{"glyphs":{"0":{"ha":703,"x_min":10,"x_max":663,"o":"m 224 -17 l 224 -17 q 152 -13 185 -23 q 94 19 119 -3 q 49 71 68 41 q 18 135 30 101 l 18 135 q 23 264 10 206 q 61 371 36 322 q 116 463 85 420 q 176 544 147 505 l 176 544 q 186 545 182 541 q 194 553 190 548 q 201 563 197 558 q 210 570 204 568 l 210 570 q 220 586 214 579 q 233 598 226 592 q 245 610 239 604 q 255 625 251 616 l 255 625 q 271 633 264 627 q 284 644 278 638 q 297 656 290 650 q 312 664 303 661 l 312 664 l 312 677 q 341 701 332 688 q 363 732 350 713 l 363 732 q 379 734 373 734 q 396 735 385 733 l 396 735 q 412 761 405 752 q 433 781 419 770 l 433 781 q 462 771 446 773 q 489 755 478 768 l 489 755 q 496 735 490 742 q 508 723 501 728 q 521 711 515 717 q 529 693 527 704 l 529 693 q 535 695 533 693 q 540 696 536 697 l 540 696 q 544 682 542 687 q 548 673 546 677 q 553 664 550 668 q 557 651 555 659 l 557 651 q 549 625 552 639 q 534 606 545 611 l 534 606 q 540 597 534 598 q 546 589 545 596 l 546 589 q 543 573 546 579 l 543 573 q 590 471 569 524 q 636 369 610 417 l 636 369 q 638 340 634 354 q 646 313 641 326 q 655 286 650 299 q 661 259 659 273 l 661 259 q 662 221 663 241 q 655 181 660 200 q 640 146 649 162 q 619 122 631 130 l 619 122 q 608 117 617 123 q 588 100 599 110 q 564 78 576 90 q 543 57 552 66 l 543 57 q 517 46 531 49 q 487 38 502 42 l 487 38 q 459 22 475 30 q 425 7 442 13 q 390 -2 407 1 q 360 -4 373 -6 l 360 -4 q 297 -22 327 -18 q 224 -17 266 -27 z m 246 361 l 246 361 q 227 318 238 337 q 206 279 216 299 q 188 237 195 259 q 179 184 180 214 l 179 184 q 218 163 195 167 q 264 162 240 159 q 310 170 287 165 q 352 176 333 175 l 352 176 q 359 184 352 185 l 359 184 q 422 209 392 188 q 483 250 451 229 l 483 250 q 494 272 487 263 q 500 298 500 281 l 500 298 q 495 315 496 309 q 494 333 494 320 l 494 333 q 458 416 473 371 q 422 498 442 460 l 422 498 q 415 488 420 493 q 404 490 410 483 l 404 490 q 387 472 399 470 q 363 484 374 474 l 363 484 q 307 428 335 455 q 257 364 279 400 l 257 364 q 252 363 253 361 q 246 361 251 364 z"},"1":{"ha":330,"x_min":20,"x_max":279,"o":"m 179 724 l 179 724 q 208 689 190 702 q 242 661 225 675 l 242 661 q 268 574 263 622 q 279 469 273 526 l 279 469 q 273 383 279 423 q 258 304 267 342 q 236 227 248 265 q 213 147 224 189 l 213 147 q 192 105 199 132 q 190 51 184 77 l 190 51 q 164 20 177 35 q 135 -8 151 5 l 135 -8 q 120 -1 129 -2 q 100 -1 110 -1 q 82 -3 90 -2 q 69 -4 73 -5 l 69 -4 q 56 13 64 4 q 41 32 47 22 q 31 52 34 42 q 32 70 27 61 l 32 70 q 20 81 32 81 l 20 81 q 35 172 23 127 q 62 259 47 216 q 92 343 77 301 q 114 426 106 385 q 118 508 121 467 q 94 591 114 549 l 94 591 q 94 615 94 605 q 93 632 93 624 q 91 646 92 639 q 87 661 90 653 l 87 661 q 95 687 92 675 q 94 709 97 699 l 94 709 q 98 721 95 716 q 105 730 101 725 q 113 739 109 734 q 117 750 116 743 l 117 750 l 139 750 q 158 734 150 741 q 179 724 166 726 z"},"2":{"ha":666,"x_min":60,"x_max":728,"o":"m 703 174 l 703 174 q 728 144 727 162 q 717 111 728 126 q 687 87 705 95 q 653 88 668 79 l 653 88 q 645 78 651 80 q 636 68 638 75 l 636 68 q 438 31 539 53 q 236 -2 337 9 l 236 -2 q 106 21 158 1 l 106 21 q 75 66 85 39 q 62 123 64 93 q 64 182 60 153 q 76 231 68 210 l 76 231 q 185 358 128 297 q 313 465 241 418 l 313 465 q 362 510 334 491 q 413 551 390 528 l 413 551 q 350 562 383 562 q 285 557 317 562 q 225 543 253 551 q 176 531 197 535 l 176 531 q 139 540 160 539 q 96 548 117 541 l 96 548 q 80 574 84 558 q 74 607 75 590 q 73 640 73 624 q 69 665 73 655 l 69 665 q 84 691 77 678 q 99 715 90 704 l 99 715 q 203 737 146 728 q 318 744 260 745 q 430 730 376 743 q 526 685 484 716 l 526 685 q 547 641 531 657 q 586 615 563 624 l 586 615 q 605 575 597 595 q 616 531 613 554 l 616 531 q 560 442 596 478 q 486 375 523 405 l 486 375 q 443 346 466 358 q 403 318 420 334 l 403 318 q 398 308 399 314 q 393 298 397 301 l 393 298 q 353 270 375 282 q 313 241 331 257 l 313 241 q 292 217 300 230 q 269 194 283 204 l 269 194 q 305 189 287 188 q 341 193 322 190 q 379 199 359 196 q 419 201 398 202 l 419 201 q 483 219 448 211 q 553 224 518 226 l 553 224 q 611 242 583 236 q 663 244 638 247 l 663 244 q 683 226 676 239 q 703 208 689 213 l 703 208 q 702 192 700 197 q 703 174 703 187 z"},"3":{"ha":575,"x_min":-11,"x_max":565,"o":"m 36 680 l 36 680 q 145 703 91 691 q 254 722 199 714 q 365 733 308 730 q 485 730 422 736 l 485 730 q 529 674 510 704 q 565 610 548 643 l 565 610 q 563 596 563 603 q 560 581 562 589 l 560 581 q 547 558 555 568 q 533 533 538 547 l 533 533 q 486 503 508 519 q 441 470 463 487 l 441 470 q 404 456 423 462 q 374 431 384 449 l 374 431 q 432 397 407 417 q 476 352 457 377 q 509 298 495 327 q 534 238 523 269 l 534 238 q 529 207 532 223 q 529 180 526 191 l 529 180 q 511 147 522 159 q 488 113 499 134 l 488 113 q 431 71 453 98 l 431 71 q 421 75 421 71 l 421 75 q 349 40 390 54 q 261 17 308 25 q 162 8 214 9 q 58 12 110 7 l 58 12 q 51 19 54 15 q 39 22 48 23 l 39 22 q 29 40 35 32 q 18 57 22 47 l 18 57 q 32 94 28 73 q 40 135 35 115 q 52 170 44 154 q 79 192 60 185 l 79 192 q 88 187 87 193 q 94 179 89 181 l 94 179 q 172 181 133 179 q 246 188 211 182 q 312 204 281 193 q 364 235 342 215 l 364 235 q 294 272 334 259 q 217 296 254 284 q 150 327 179 308 q 112 381 121 345 l 112 381 q 119 422 117 404 q 124 455 121 440 q 134 484 127 470 q 155 510 140 497 l 155 510 q 141 512 150 513 q 120 507 131 510 q 99 499 109 503 q 81 491 88 494 l 81 491 q 39 498 60 496 q -1 510 17 499 l -1 510 q -6 535 -3 521 q -10 562 -9 548 q -8 590 -11 576 q 6 616 -5 604 l 6 616 q 3 630 4 623 q -1 642 2 637 l -1 642 q 23 660 10 651 q 36 680 35 669 z"},"4":{"ha":596,"x_min":49,"x_max":586,"o":"m 551 499 l 551 499 q 563 469 557 482 q 586 446 569 456 l 586 446 q 584 408 582 423 q 579 371 586 393 l 579 371 q 546 347 565 356 q 506 332 526 338 q 465 318 485 325 q 427 299 444 311 l 427 299 q 400 220 414 259 q 374 134 385 181 l 374 134 q 381 127 376 129 q 389 121 386 125 l 389 121 q 388 99 384 107 q 399 83 392 90 q 414 69 406 76 q 424 53 421 62 l 424 53 q 419 35 420 44 q 418 17 418 26 q 415 -1 417 8 q 405 -19 412 -10 l 405 -19 q 365 -27 385 -27 q 327 -32 344 -27 l 327 -32 q 292 -11 306 -27 q 268 24 277 4 q 254 65 259 44 q 246 102 249 86 l 246 102 q 243 112 252 113 l 243 112 q 244 139 239 126 q 246 159 249 152 l 246 159 q 254 212 248 184 q 268 274 260 239 l 268 274 q 240 280 255 277 q 210 284 224 282 q 183 286 195 285 q 165 287 171 287 l 165 287 q 139 300 150 291 q 119 319 128 308 q 102 340 110 329 q 84 361 93 351 l 84 361 q 74 432 81 396 q 61 502 67 468 q 52 566 55 536 q 55 620 49 596 l 55 620 q 75 649 65 635 q 99 673 85 663 l 99 673 q 117 663 110 670 q 129 647 123 655 q 141 631 134 638 q 158 620 147 623 l 158 620 q 171 585 162 601 q 187 551 179 568 q 200 516 194 534 q 205 474 205 497 l 205 474 q 227 456 215 459 q 251 453 238 452 q 278 455 264 454 q 305 452 291 456 l 305 452 q 315 458 308 457 q 327 461 322 458 l 327 461 q 334 471 333 463 q 342 480 334 479 l 342 480 q 343 514 340 497 q 348 545 345 530 q 351 574 350 560 q 346 602 351 588 l 346 602 q 359 648 356 621 q 365 699 361 674 q 378 745 368 724 q 411 773 387 765 l 411 773 q 495 636 471 722 l 495 636 q 484 558 485 594 q 483 486 482 522 l 483 486 q 519 494 500 491 q 551 499 537 497 z"},"5":{"ha":594,"x_min":47,"x_max":683,"o":"m 631 672 l 631 672 q 643 652 637 664 q 644 630 649 640 l 644 630 q 673 586 662 612 q 670 529 683 560 l 670 529 q 630 517 647 521 q 592 506 612 512 l 592 506 q 545 503 554 504 q 530 501 535 502 q 515 498 525 500 q 469 490 504 495 l 469 490 q 469 495 469 494 q 467 495 468 496 q 464 493 465 494 q 459 493 462 492 l 459 493 q 419 483 439 486 q 379 476 399 479 q 339 469 359 473 q 298 454 319 464 l 298 454 q 304 447 300 449 q 313 442 308 444 q 321 436 317 439 q 327 428 325 433 l 327 428 q 374 406 355 421 q 407 371 392 390 q 436 331 422 351 q 469 295 450 311 l 469 295 q 472 286 469 289 q 473 275 475 283 l 473 275 q 501 220 491 252 q 505 146 511 188 l 505 146 q 474 92 492 114 q 427 45 456 69 l 427 45 q 382 30 404 35 q 343 13 360 24 l 343 13 q 329 18 335 18 q 317 19 322 17 l 317 19 q 268 6 294 9 q 213 16 242 2 l 213 16 q 171 18 192 15 q 131 27 149 20 q 101 47 113 34 q 84 78 88 59 l 84 78 q 54 126 61 97 q 61 181 47 154 l 61 181 q 71 185 67 183 q 80 191 74 186 l 80 191 q 189 183 133 186 q 307 191 244 179 l 307 191 q 315 203 309 199 q 327 209 320 206 q 340 215 334 212 q 349 224 346 218 l 349 224 q 346 233 349 230 q 340 238 343 235 q 335 243 337 240 q 333 253 332 246 l 333 253 q 303 262 320 253 q 275 282 285 271 l 275 282 q 188 312 231 290 q 103 353 144 334 l 103 353 q 88 376 96 365 q 71 398 79 386 q 58 421 63 409 q 51 447 52 433 l 51 447 q 53 478 52 463 q 55 507 54 492 q 58 537 56 521 q 64 570 60 552 l 64 570 q 172 670 107 629 q 304 736 236 710 l 304 736 q 326 713 315 725 q 349 689 337 700 q 375 670 361 678 q 405 661 388 662 l 405 661 q 422 665 416 664 q 433 666 428 666 q 446 666 438 666 q 469 668 454 666 l 469 668 q 498 670 484 670 q 524 671 512 670 l 524 671 q 561 675 549 673 q 576 678 572 677 q 580 680 580 679 q 584 680 580 680 q 597 677 587 679 q 631 672 607 675 z"},"6":{"ha":513,"x_min":-13,"x_max":485,"o":"m 449 304 l 449 304 q 465 289 459 298 q 478 272 471 280 l 478 272 q 482 228 478 253 q 481 179 485 203 l 481 179 q 437 119 461 147 q 378 73 413 91 l 378 73 q 375 66 373 72 q 372 57 377 59 l 372 57 q 360 53 364 57 q 349 54 356 48 l 349 54 q 326 42 338 47 q 305 28 314 36 l 305 28 q 289 27 296 29 q 275 23 282 25 q 261 18 268 20 q 247 18 254 16 l 247 18 q 176 -8 215 2 q 93 -11 137 -18 l 93 -11 q 41 11 63 -6 q 6 54 19 28 q -10 112 -7 79 q -4 179 -13 144 l -4 179 q -6 187 -6 182 q -7 197 -7 192 q -7 207 -7 202 q -10 214 -7 212 l -10 214 q 1 235 -4 224 q 0 259 5 245 l 0 259 q 7 265 5 260 q 11 275 9 269 q 14 286 12 281 q 19 294 15 291 l 19 294 q 29 345 21 321 q 48 392 37 369 q 70 436 58 414 q 93 481 82 458 l 93 481 q 91 492 89 489 q 93 503 92 494 l 93 503 q 123 557 108 528 q 155 614 138 585 q 191 669 172 642 q 234 715 210 695 l 234 715 q 265 725 250 718 q 295 737 280 732 q 326 744 310 742 q 359 737 341 745 l 359 737 q 361 724 361 728 q 362 715 360 720 l 362 715 q 381 689 378 707 q 385 654 383 671 l 385 654 q 402 636 397 648 q 410 609 407 624 l 410 609 q 388 586 398 597 q 366 567 377 575 l 366 567 q 355 566 362 565 q 346 567 348 566 l 346 567 q 294 533 316 554 q 255 484 271 511 q 227 427 238 457 q 208 368 215 397 l 208 368 q 161 279 179 325 q 131 176 143 233 l 131 176 q 140 169 132 168 q 154 169 147 170 l 154 169 q 170 209 166 190 q 173 253 173 228 l 173 253 q 197 289 184 272 q 221 326 210 306 l 221 326 q 251 347 237 338 q 279 363 265 356 q 310 375 293 369 q 349 384 326 380 l 349 384 q 391 374 373 382 q 420 355 408 366 q 439 330 432 343 q 449 304 446 316 z"},"7":{"ha":590,"x_min":10,"x_max":642,"o":"m 641 374 l 641 374 q 637 366 642 369 q 628 359 632 362 q 621 353 623 356 q 624 345 618 349 l 624 345 q 633 344 631 347 q 640 342 635 340 l 640 342 q 637 335 639 340 q 640 329 634 329 l 640 329 q 630 313 637 319 q 616 301 623 306 q 600 290 608 295 q 587 276 592 284 l 587 276 q 537 269 552 271 q 509 264 521 266 q 480 259 496 261 q 430 250 464 256 l 430 250 q 420 240 425 244 q 409 231 414 236 q 400 218 403 225 q 396 201 396 211 l 396 201 q 376 181 384 193 q 360 156 367 169 q 344 130 352 143 q 326 106 336 117 l 326 106 q 330 99 327 101 q 332 90 333 96 l 332 90 q 315 70 320 84 q 304 40 309 55 q 290 13 299 25 q 261 -1 281 0 l 261 -1 q 239 5 248 3 q 222 6 230 6 q 204 6 213 6 q 183 5 195 5 l 183 5 q 181 22 183 13 q 187 35 178 31 l 187 35 q 168 51 182 48 l 168 51 q 184 137 169 94 q 216 213 198 180 l 216 213 q 185 209 196 210 q 165 206 174 207 q 145 206 155 205 q 116 206 134 206 l 116 206 q 106 220 116 218 q 90 229 96 222 l 90 229 q 80 247 88 240 q 63 259 71 254 l 63 259 q 73 269 63 270 l 73 269 q 68 289 71 279 q 77 306 64 299 l 77 306 q 72 311 76 310 q 71 319 67 311 l 71 319 q 108 363 84 351 q 161 378 132 374 q 221 383 190 381 q 280 398 252 384 l 280 398 q 312 397 298 394 q 342 404 326 400 l 342 404 q 353 441 344 423 q 367 478 362 459 l 367 478 q 363 493 368 488 q 361 511 358 498 l 361 511 q 321 536 342 529 q 277 546 300 543 q 229 550 254 549 q 179 557 204 551 l 179 557 q 134 556 153 558 q 97 550 114 553 q 64 546 80 547 q 26 549 47 545 l 26 549 q 29 560 29 555 q 26 568 28 564 q 19 578 23 572 q 10 591 14 583 l 10 591 q 18 633 13 606 q 19 683 22 660 l 19 683 q 28 686 26 684 q 31 691 30 688 q 32 698 31 694 q 36 705 32 701 l 36 705 q 54 714 46 705 q 72 728 61 723 l 72 728 q 102 730 93 729 q 116 733 110 731 q 128 736 121 734 q 151 741 134 738 l 151 741 q 157 741 155 742 q 159 738 158 739 q 162 735 160 736 q 167 734 163 733 l 167 734 q 199 737 186 736 q 224 737 212 737 q 246 734 235 736 q 271 727 256 731 l 271 727 q 284 728 277 727 q 296 728 290 728 q 305 726 301 728 q 310 717 308 724 l 310 717 q 344 717 329 719 q 372 711 358 715 q 400 700 385 706 q 434 687 414 693 l 434 687 q 463 637 448 661 q 503 599 477 613 l 503 599 q 502 593 504 594 q 500 586 500 591 l 500 586 q 494 580 492 581 q 499 579 496 579 q 505 579 502 579 q 509 576 508 578 l 509 576 q 507 571 509 572 q 503 566 504 569 l 503 566 q 510 539 509 556 q 508 502 510 522 q 503 459 505 481 q 502 418 500 437 l 502 418 q 538 412 528 413 q 554 410 547 410 q 572 411 560 410 q 613 410 583 411 l 613 410 q 624 389 614 395 q 641 374 633 382 z"},"8":{"ha":550,"x_min":59,"x_max":601,"o":"m 524 733 l 524 733 q 560 695 546 717 q 581 647 573 672 q 594 594 589 621 q 601 541 598 566 l 601 541 q 567 474 591 506 q 510 423 543 442 l 510 423 q 457 382 480 400 q 401 357 433 363 l 401 357 q 386 343 393 349 q 372 326 378 336 l 372 326 q 407 235 389 280 q 431 136 425 190 l 431 136 q 418 115 419 129 q 417 85 417 101 l 417 85 q 399 56 405 71 q 380 29 393 40 l 380 29 q 374 29 377 27 q 367 28 370 30 l 367 28 q 341 10 354 21 q 313 -5 327 -1 l 313 -5 q 261 -11 287 -12 q 210 -3 234 -10 q 164 17 185 4 q 127 46 143 29 l 127 46 q 109 88 116 66 q 86 125 102 109 l 86 125 q 81 201 81 157 q 94 288 80 245 l 94 288 q 107 313 99 302 q 114 338 115 324 l 114 338 q 122 342 119 339 q 129 347 124 345 l 129 347 q 129 358 132 355 q 127 368 125 361 l 127 368 q 98 412 112 389 q 73 458 83 434 q 61 509 63 482 q 70 567 59 536 l 70 567 q 77 601 70 582 q 94 638 83 620 q 119 671 105 656 q 150 692 133 685 l 150 692 q 154 701 150 699 q 157 709 157 702 l 157 709 q 181 719 170 713 q 204 731 192 725 q 229 741 215 736 q 260 746 242 745 l 260 746 q 326 742 292 748 q 382 722 359 736 l 382 722 q 407 676 392 696 q 428 639 421 656 l 428 639 q 432 613 430 624 q 434 590 434 601 q 431 568 434 579 q 420 541 428 556 l 420 541 q 454 557 440 546 q 474 589 467 568 l 474 589 q 465 618 474 606 q 451 645 456 630 l 451 645 q 459 653 457 648 q 460 662 461 657 q 458 672 459 667 q 456 682 456 677 l 456 682 q 464 682 462 684 q 469 683 466 680 l 469 683 q 467 692 467 691 q 465 698 466 692 l 465 698 q 475 708 469 703 q 486 707 481 713 l 486 707 q 486 726 480 717 q 500 740 491 735 l 500 740 q 511 736 505 738 q 524 733 516 734 z m 287 163 l 287 163 q 290 174 287 170 q 295 182 293 177 l 295 182 q 272 225 283 207 q 234 258 260 242 l 234 258 q 213 236 220 249 q 205 210 206 223 q 210 183 204 196 q 226 160 215 170 l 226 160 q 254 160 236 163 q 287 163 272 156 z m 262 453 l 262 453 q 293 467 277 461 q 325 479 309 473 q 356 493 341 485 q 382 512 371 500 l 382 512 q 320 525 344 512 q 296 571 295 538 l 296 571 q 266 578 282 578 q 237 571 250 577 q 218 553 224 564 q 217 527 212 541 l 217 527 q 210 522 215 522 q 205 514 205 521 l 205 514 q 232 483 220 500 q 262 453 243 466 z"},"9":{"ha":542,"x_min":39,"x_max":553,"o":"m 509 594 l 509 594 q 509 577 507 585 q 513 561 511 568 q 517 545 515 553 q 518 527 519 536 l 518 527 q 529 509 522 517 q 541 494 535 501 q 550 477 546 486 q 552 455 553 468 l 552 455 q 538 435 543 444 q 526 418 533 425 q 510 404 519 410 q 494 391 501 398 l 494 391 q 479 354 486 368 q 463 316 471 339 l 463 316 q 457 269 461 290 q 448 227 453 247 q 438 185 443 206 q 429 140 433 164 l 429 140 q 416 61 428 98 q 380 -11 403 23 l 380 -11 q 348 -11 362 -9 q 315 -17 333 -14 l 315 -17 q 301 -1 307 -9 q 287 12 295 6 l 287 12 q 293 103 288 62 q 305 182 297 143 q 322 263 312 221 q 343 356 332 304 l 343 356 q 311 355 329 357 q 272 349 292 352 q 231 341 251 345 q 192 333 210 336 l 192 333 q 170 334 181 334 q 148 335 158 334 q 130 340 138 336 q 115 351 121 343 l 115 351 q 88 353 99 347 q 69 368 77 358 q 56 389 61 377 q 44 411 50 401 l 44 411 q 42 470 39 444 q 52 518 44 496 q 71 561 59 540 q 94 603 82 581 l 94 603 q 152 656 120 629 q 220 704 183 683 q 299 737 257 725 q 389 745 341 749 l 389 745 q 456 676 429 716 q 509 594 483 636 z m 377 542 l 377 542 q 367 569 378 561 q 340 579 356 576 l 340 579 q 292 560 315 569 q 251 533 268 550 l 251 533 q 244 529 248 530 q 235 527 239 528 q 229 521 231 525 q 229 510 227 517 l 229 510 q 306 519 271 508 q 377 542 341 530 z"},"ð":{"ha":554,"x_min":-26,"x_max":539,"o":"m 533 237 l 533 237 q 457 148 503 184 q 357 85 411 112 q 243 34 302 57 q 127 -15 183 11 l 127 -15 q 90 5 103 -9 q 71 38 77 19 q 62 79 64 56 q 58 126 60 102 l 58 126 q 67 145 61 137 q 71 166 72 152 l 71 166 q 84 204 78 185 q 94 242 90 222 l 94 242 q 47 230 64 235 q 24 219 30 224 l 24 219 q 5 226 12 220 q -6 241 -2 232 q -13 260 -10 249 q -20 283 -16 271 l -20 283 q -19 306 -18 291 q -26 329 -20 321 l -26 329 q -18 341 -21 330 q -18 356 -16 351 l -18 356 q 4 362 -8 360 q 27 365 15 363 q 48 369 38 366 q 65 378 57 371 l 65 378 q 87 380 76 379 q 109 381 98 380 l 109 381 q 103 427 107 404 q 93 471 98 450 l 93 471 q 96 485 94 480 q 95 492 97 489 l 95 492 q 100 500 93 500 q 114 500 107 500 l 114 500 q 109 530 114 515 q 98 564 103 545 l 98 564 q 107 594 105 579 q 116 620 109 608 l 116 620 q 169 601 143 612 q 221 579 195 590 q 270 559 246 568 q 318 543 294 549 l 318 543 q 392 492 354 517 q 462 435 430 466 q 515 365 493 404 q 539 272 536 326 l 539 272 q 535 257 537 261 q 533 237 532 252 z m 300 216 l 300 216 q 342 233 321 224 q 380 254 362 242 q 412 281 398 266 q 435 317 426 296 l 435 317 q 419 339 429 329 q 399 357 409 348 q 379 375 389 365 q 363 397 369 384 l 363 397 q 340 404 350 399 q 321 415 330 409 q 301 426 311 421 q 276 431 290 430 l 276 431 q 237 448 254 443 q 209 460 219 452 l 209 460 q 199 458 203 462 l 199 458 q 214 384 209 419 l 214 384 q 236 382 224 383 q 257 378 247 381 q 274 365 266 374 q 285 340 282 356 l 285 340 q 298 334 294 339 q 304 321 302 328 q 304 304 305 313 q 303 286 303 295 l 303 286 q 266 264 289 271 q 216 253 242 256 l 216 253 q 204 173 213 217 l 204 173 q 224 178 215 174 q 241 185 232 181 q 259 193 249 189 q 281 197 268 196 l 281 197 q 290 208 284 204 q 300 216 295 211 z"},"Ý":{"ha":505,"x_min":42,"x_max":618,"o":"m 166 -27 l 149 -33 q 42 60 61 -21 l 42 60 l 43 71 q 52 98 47 83 l 52 98 q 63 132 57 115 q 83 161 69 148 l 83 161 q 95 189 86 170 q 123 244 103 207 l 123 244 q 149 290 139 273 q 164 316 158 307 l 164 316 q 136 351 154 334 l 136 351 q 109 409 120 381 q 91 458 97 436 l 91 458 q 83 507 90 482 l 83 507 q 77 533 80 520 q 74 560 74 546 l 74 560 q 67 578 70 567 l 67 578 l 69 590 q 72 612 74 598 q 65 639 69 625 l 65 639 q 60 667 62 652 q 58 695 57 681 q 66 722 59 709 q 88 744 72 735 l 88 744 l 98 751 l 108 745 q 129 733 119 738 q 149 723 139 728 l 149 723 q 173 711 161 717 q 199 696 185 704 l 199 696 l 209 689 l 208 678 q 209 673 208 676 q 212 668 210 670 l 212 668 l 223 665 l 224 651 l 224 639 q 225 627 224 630 q 229 619 226 623 l 229 619 l 234 606 q 237 574 234 588 q 244 546 240 560 l 244 546 q 252 518 249 532 q 253 486 255 503 l 253 486 q 265 495 259 489 l 265 495 q 270 499 267 497 q 275 503 272 501 l 275 503 l 345 598 l 343 610 l 368 634 q 387 651 378 642 q 402 670 396 659 l 402 670 l 408 679 q 524 753 453 739 l 524 753 l 541 757 l 546 741 q 566 717 551 727 q 597 696 580 706 l 597 696 l 608 689 q 614 671 614 677 q 613 661 614 665 l 613 661 l 618 648 q 594 607 607 619 q 567 583 581 594 l 567 583 q 547 565 556 574 q 533 545 538 556 l 533 545 l 525 535 q 493 497 500 522 l 493 497 l 489 483 l 474 483 q 469 479 473 483 q 457 457 465 474 l 457 457 q 445 442 448 445 q 439 436 441 438 l 439 436 q 436 427 437 431 q 432 417 434 423 l 432 417 l 426 409 q 413 394 417 401 q 404 376 409 386 l 404 376 q 395 358 400 367 q 381 339 390 348 l 381 339 l 383 328 l 375 321 q 361 304 367 314 q 349 282 355 293 l 349 282 q 336 258 343 270 q 318 236 329 246 l 318 236 q 306 208 311 218 q 287 184 300 198 l 287 184 q 230 81 275 136 l 230 81 q 224 60 229 70 q 212 40 218 49 l 212 40 q 208 32 210 36 q 204 25 205 27 l 204 25 l 201 14 q 189 -4 195 3 q 176 -17 182 -11 l 176 -17 q 171 -22 173 -19 q 166 -27 168 -25 l 166 -27 z m 581 993 l 581 993 q 555 979 573 991 q 507 941 536 967 l 507 941 q 471 909 492 928 q 426 871 450 889 q 375 838 401 852 q 325 823 349 824 l 325 823 q 311 837 318 830 q 300 851 304 844 q 294 866 295 858 q 299 884 293 874 l 299 884 q 288 916 286 905 q 299 935 290 927 q 318 950 307 943 q 332 971 328 957 l 332 971 q 383 1023 355 996 q 434 1076 410 1049 l 434 1076 q 454 1086 444 1078 q 472 1102 463 1093 q 491 1121 481 1111 q 511 1136 500 1130 l 511 1136 q 523 1125 513 1130 q 537 1122 532 1119 l 537 1122 q 548 1101 538 1111 q 566 1086 558 1090 l 566 1086 q 578 1061 572 1072 q 587 1038 584 1049 q 590 1016 590 1027 q 581 993 589 1005 z"},"ý":{"ha":410,"x_min":42,"x_max":559,"o":"m 325 277 l 320 262 q 308 248 313 256 q 298 230 303 239 l 298 230 q 287 209 293 219 q 272 191 281 199 l 272 191 q 262 168 267 176 q 246 148 257 159 l 246 148 q 199 61 236 108 l 199 61 q 194 44 198 52 q 184 27 189 35 l 184 27 q 180 21 182 24 q 177 15 178 17 l 177 15 l 175 5 q 164 -9 170 -3 q 153 -20 158 -15 l 153 -20 q 146 -28 151 -23 l 146 -28 l 131 -34 q 42 44 58 -24 l 42 44 l 43 54 q 47 65 45 59 q 50 76 48 70 l 50 76 q 60 104 54 90 q 76 129 65 118 l 76 129 q 85 152 78 136 q 109 198 92 167 l 109 198 q 131 236 123 222 q 144 258 139 250 l 144 258 q 120 287 134 274 l 120 287 q 98 335 107 312 q 83 376 88 358 l 83 376 q 80 398 82 389 q 76 417 78 407 l 76 417 q 71 439 73 428 q 69 462 69 450 l 69 462 q 63 476 64 469 l 63 476 l 65 486 q 66 505 68 493 q 61 528 64 516 l 61 528 q 57 550 59 538 q 55 574 54 562 q 62 597 56 586 q 80 615 67 607 l 80 615 l 97 616 q 115 607 106 611 q 131 597 123 602 l 131 597 q 152 587 142 592 q 173 574 162 582 l 173 574 l 180 560 l 193 549 l 193 538 q 194 527 194 534 l 194 527 q 198 511 194 514 l 198 511 l 202 499 q 205 473 202 485 q 211 449 208 460 l 211 449 q 217 426 214 438 q 218 400 220 414 l 218 400 q 228 407 224 403 l 228 407 q 232 410 230 409 q 236 413 234 411 l 236 413 l 295 493 l 293 503 l 314 523 q 330 538 322 531 q 342 553 337 545 l 342 553 l 353 561 q 444 623 385 611 l 444 623 l 458 625 l 462 612 q 479 592 466 601 q 505 575 491 583 l 505 575 l 514 569 q 519 554 519 559 q 518 545 519 549 l 518 545 l 522 535 q 503 500 514 511 q 480 480 491 489 l 480 480 q 464 466 471 472 q 452 449 456 459 l 452 449 l 445 441 q 418 409 424 429 l 418 409 l 415 397 l 403 397 q 399 394 402 397 q 388 376 395 390 l 388 376 q 378 363 381 366 q 373 358 375 360 l 373 358 q 371 351 372 354 q 367 342 369 347 l 367 342 q 351 323 354 329 q 344 308 348 316 l 344 308 q 337 293 340 300 q 325 277 333 285 l 325 277 z m 550 870 l 550 870 q 524 856 542 868 q 476 818 505 844 l 476 818 q 440 786 461 805 q 395 748 419 766 q 344 715 370 729 q 294 700 318 701 l 294 700 q 280 714 287 707 q 269 728 273 721 q 263 743 264 735 q 268 761 262 751 l 268 761 q 257 793 255 782 q 268 812 259 804 q 287 827 276 820 q 301 848 297 834 l 301 848 q 352 900 324 873 q 403 953 379 926 l 403 953 q 423 963 413 955 q 441 979 432 970 q 460 998 450 988 q 480 1013 469 1007 l 480 1013 q 492 1002 482 1007 q 506 999 501 996 l 506 999 q 517 978 507 988 q 535 963 527 967 l 535 963 q 547 938 541 949 q 556 915 553 926 q 559 893 559 904 q 550 870 558 882 z"},"Þ":{"ha":697,"x_min":26,"x_max":703,"o":"m 609 551 l 609 551 q 656 515 637 536 q 686 469 675 493 q 700 419 696 444 q 702 370 703 393 l 702 370 q 651 310 684 335 q 584 259 618 284 l 584 259 q 573 261 577 259 l 573 261 q 560 248 568 253 q 543 239 552 243 q 525 231 534 235 q 510 220 516 226 l 510 220 q 466 209 485 216 q 428 194 446 202 q 391 178 410 185 q 347 167 372 171 l 347 167 q 325 156 338 160 q 298 147 312 151 q 272 139 284 143 q 251 126 259 134 l 251 126 q 234 130 245 131 q 214 126 223 128 l 214 126 q 210 109 208 118 q 212 92 211 100 l 212 92 q 207 35 217 56 q 179 5 197 14 q 137 -6 160 -5 q 91 -5 113 -8 l 91 -5 q 69 37 79 11 q 52 89 59 62 q 38 143 44 116 q 26 189 31 169 l 26 189 q 34 222 32 204 q 36 260 35 240 q 37 299 37 279 q 40 337 37 319 l 40 337 q 64 433 48 387 q 90 527 79 479 l 90 527 q 88 548 92 538 q 86 565 84 557 l 86 565 q 94 572 88 570 q 101 579 99 574 l 101 579 q 103 602 105 593 q 107 622 100 610 l 107 622 q 122 650 112 631 q 129 689 131 669 l 129 689 q 149 706 140 696 q 168 723 158 715 q 191 737 178 731 q 221 743 203 743 l 221 743 q 234 717 230 731 q 241 688 237 702 q 250 661 244 673 q 269 641 255 648 l 269 641 q 270 624 270 633 q 270 604 269 615 l 270 604 q 287 606 278 605 q 303 609 295 607 l 303 609 q 432 599 366 607 q 554 578 498 590 l 554 578 q 578 562 565 570 q 609 551 590 554 z m 476 401 l 476 401 q 480 415 475 410 q 489 425 484 420 l 489 425 q 482 442 487 435 q 470 455 476 448 l 470 455 q 368 462 421 462 q 260 460 315 462 l 260 460 q 237 369 247 414 q 223 278 226 323 l 223 278 q 293 299 260 287 q 348 328 326 310 l 348 328 q 388 342 370 334 q 420 360 405 350 q 449 381 435 370 q 476 401 462 391 z"},"þ":{"ha":593,"x_min":26,"x_max":599,"o":"m 260 517 l 260 517 q 370 508 314 515 q 473 490 426 501 l 473 490 q 493 477 483 483 q 520 468 503 470 l 520 468 q 560 437 544 455 q 584 398 575 419 q 596 356 593 377 q 598 314 599 334 l 598 314 q 555 263 583 284 q 498 220 527 241 l 498 220 q 488 222 494 220 l 488 222 q 478 212 484 216 q 464 204 471 208 q 449 197 456 200 q 435 188 441 193 l 435 188 q 398 179 414 185 q 367 165 382 172 q 335 152 351 158 q 298 143 319 146 l 298 143 q 279 133 290 137 q 256 126 268 129 q 234 118 244 122 q 217 108 223 114 l 217 108 q 203 112 212 113 q 185 108 193 110 l 185 108 q 181 94 180 101 q 184 79 182 87 l 184 79 q 180 31 188 49 q 155 5 171 13 q 119 -4 139 -3 q 81 -3 99 -6 l 81 -3 q 62 32 70 11 q 48 77 54 53 q 36 122 41 100 q 26 161 30 144 l 26 161 q 33 190 31 174 q 35 222 34 205 q 36 255 35 238 q 38 287 36 272 l 38 287 q 58 368 44 329 q 80 447 72 406 l 80 447 q 79 465 82 457 q 77 480 75 473 l 77 480 q 83 486 78 484 q 89 492 88 487 l 89 492 q 91 511 93 504 q 95 528 89 517 l 95 528 q 107 551 99 535 q 113 584 114 567 l 113 584 q 130 598 122 590 q 146 613 137 606 q 166 625 155 620 q 191 630 176 630 l 191 630 q 202 608 199 620 q 208 583 205 595 q 215 561 210 571 q 232 544 220 550 l 232 544 l 232 513 q 260 517 249 513 z m 407 341 l 407 341 q 410 352 406 348 q 418 361 414 356 l 418 361 q 412 375 416 369 q 402 386 407 381 l 402 386 q 315 393 360 392 q 224 391 270 393 l 224 391 q 204 314 213 352 q 192 236 195 275 l 192 236 q 252 254 224 244 q 298 279 280 263 l 298 279 q 360 307 336 289 q 407 341 383 324 z"},"½":{"ha":768,"x_min":30,"x_max":718,"o":"m 691 131 l 702 109 q 715 92 712 101 q 716 74 718 82 l 716 74 q 700 48 713 59 q 671 36 686 36 l 671 36 l 658 29 q 619 23 638 26 q 579 15 599 20 l 579 15 q 524 6 552 10 q 468 -2 496 1 l 468 -2 q 461 -1 461 -2 q 458 -1 460 -1 l 458 -1 q 399 9 423 1 l 399 9 q 375 39 381 23 q 367 70 368 54 q 368 102 365 86 q 374 128 370 117 l 374 128 q 430 192 403 164 q 492 241 457 219 l 492 241 q 496 245 494 243 q 500 249 498 247 l 500 249 q 479 245 489 247 q 459 240 468 242 l 459 240 q 450 238 454 239 q 442 236 446 237 l 442 236 l 432 237 q 426 239 430 238 q 418 240 422 239 l 418 240 q 407 242 413 241 q 395 244 401 242 l 395 244 q 375 272 377 257 q 372 297 372 286 l 372 297 l 372 307 l 373 325 q 381 340 378 334 q 389 350 384 345 l 389 350 l 398 356 q 450 366 424 363 q 500 369 476 369 l 500 369 q 613 340 572 369 l 613 340 l 621 327 q 625 318 622 322 q 638 311 628 314 l 638 311 l 647 303 q 664 258 659 282 l 664 258 l 663 248 q 634 204 652 222 q 595 169 615 185 l 595 169 q 574 157 584 161 l 574 157 q 566 152 570 154 q 559 147 562 149 l 559 147 q 557 142 558 145 q 552 136 555 138 l 552 136 q 539 127 547 131 l 539 127 l 550 127 q 579 135 564 131 q 611 138 594 138 l 611 138 q 660 147 640 147 l 660 147 q 670 146 667 147 l 670 146 q 685 139 681 143 q 691 131 689 134 l 691 131 z m 187 438 l 183 430 q 177 419 179 426 q 176 406 174 412 l 176 406 l 172 387 q 156 370 162 376 q 141 358 149 364 l 141 358 l 117 359 q 103 357 106 357 q 98 356 100 356 l 98 356 l 81 364 q 62 387 69 377 q 57 410 55 397 l 57 410 q 63 465 55 441 q 80 512 71 489 l 80 512 q 101 575 94 545 q 92 632 108 604 l 92 632 q 89 650 90 647 l 89 650 q 87 666 89 661 l 87 666 l 88 680 q 91 690 91 690 l 91 690 q 95 710 91 705 q 101 717 99 715 l 101 717 l 120 732 l 136 729 l 147 726 q 156 720 153 720 l 156 720 l 169 710 q 189 693 173 703 l 189 693 l 200 683 q 215 647 211 666 q 220 608 218 628 l 220 608 q 221 599 220 603 q 222 589 221 594 l 222 589 q 216 524 224 552 q 197 467 207 496 l 197 467 q 193 453 195 460 q 187 438 190 446 l 187 438 z m 556 596 l 556 596 q 512 545 542 579 q 448 472 481 510 q 388 399 415 433 q 352 347 360 364 l 352 347 q 314 304 337 332 q 265 246 290 276 q 215 185 239 215 q 175 136 190 155 l 175 136 q 178 127 174 131 q 183 118 181 123 l 183 118 q 171 98 173 107 q 170 80 169 89 q 173 63 171 71 q 173 44 175 54 l 173 44 q 162 29 166 37 q 152 13 157 21 q 141 -2 147 5 q 124 -15 134 -9 l 124 -15 q 90 -9 103 -13 q 59 -3 77 -6 l 59 -3 q 36 32 42 11 q 31 76 30 53 q 37 120 32 98 q 47 158 42 141 l 47 158 q 48 168 58 165 l 48 168 q 62 193 52 183 q 72 210 72 202 l 72 210 q 100 245 79 221 q 144 295 120 268 q 191 346 168 321 q 225 386 213 371 l 225 386 q 253 429 231 403 q 300 483 275 455 q 344 536 324 511 q 364 576 363 561 l 364 576 q 404 620 382 590 q 449 681 425 650 q 499 733 473 711 q 549 752 524 755 l 549 752 q 565 679 564 715 q 556 596 565 642 z"},"¼":{"ha":722,"x_min":30,"x_max":681,"o":"m 663 263 l 664 262 q 668 252 666 254 q 672 248 669 250 l 672 248 l 681 226 q 680 215 680 222 l 680 215 q 680 203 680 210 q 676 188 679 196 l 676 188 l 669 179 q 643 163 657 168 q 614 154 628 158 l 614 154 q 588 145 597 149 l 588 145 q 584 136 586 140 q 580 127 582 132 l 580 127 q 571 107 575 117 q 563 86 567 97 l 563 86 l 567 67 q 579 62 574 66 q 585 49 583 57 l 585 49 l 583 33 q 579 12 581 20 q 569 -6 577 3 l 569 -6 l 559 -12 q 544 -15 551 -15 q 529 -17 536 -16 l 529 -17 q 515 -19 523 -17 l 515 -19 l 505 -19 q 488 -12 497 -17 q 471 2 479 -8 q 456 26 462 11 q 449 62 450 40 l 449 62 q 447 79 446 73 q 450 90 448 85 l 450 90 q 459 131 453 111 l 459 131 q 444 133 452 132 q 428 133 436 133 l 428 133 q 398 148 407 139 q 382 164 389 156 l 382 164 q 373 174 379 168 l 373 174 l 366 188 q 364 213 366 200 q 360 237 362 225 l 360 237 q 354 281 356 260 q 358 320 352 302 l 358 320 q 375 343 368 335 q 392 357 382 350 l 392 357 l 408 359 q 425 350 419 356 q 435 339 431 344 l 435 339 l 453 319 q 462 297 456 310 l 462 297 q 471 279 467 289 q 476 254 475 268 l 476 254 q 486 255 483 254 l 486 255 l 498 255 l 509 255 q 513 278 511 271 l 513 278 q 515 296 516 292 l 515 296 l 517 315 q 521 327 519 320 q 524 341 522 333 l 524 341 q 528 359 525 349 q 535 378 530 369 q 547 395 539 387 q 568 407 555 403 l 568 407 l 587 403 q 636 327 624 374 l 636 327 l 636 316 q 631 295 632 305 q 628 275 629 285 l 628 275 q 636 276 632 275 q 643 276 639 276 l 643 276 l 663 263 z m 187 438 l 183 430 q 177 419 179 426 q 176 406 174 412 l 176 406 l 172 387 q 156 370 162 376 q 141 358 149 364 l 141 358 l 117 359 q 103 357 106 357 q 98 356 100 356 l 98 356 l 81 364 q 62 387 69 377 q 57 410 55 397 l 57 410 q 63 465 55 441 q 80 512 71 489 l 80 512 q 101 575 94 545 q 92 632 108 604 l 92 632 q 89 650 90 647 l 89 650 q 87 666 89 661 l 87 666 l 88 680 q 91 690 91 690 l 91 690 q 95 710 91 705 q 101 717 99 715 l 101 717 l 120 732 l 136 729 l 147 726 q 156 720 153 720 l 156 720 l 169 710 q 189 693 173 703 l 189 693 l 200 683 q 215 647 211 666 q 220 608 218 628 l 220 608 q 221 599 220 603 q 222 589 221 594 l 222 589 q 216 524 224 552 q 197 467 207 496 l 197 467 q 193 453 195 460 q 187 438 190 446 l 187 438 z m 556 596 l 556 596 q 512 545 542 579 q 448 472 481 510 q 388 399 415 433 q 352 347 360 364 l 352 347 q 314 304 337 332 q 265 246 290 276 q 215 185 239 215 q 175 136 190 155 l 175 136 q 178 127 174 131 q 183 118 181 123 l 183 118 q 171 98 173 107 q 170 80 169 89 q 173 63 171 71 q 173 44 175 54 l 173 44 q 162 29 166 37 q 152 13 157 21 q 141 -2 147 5 q 124 -15 134 -9 l 124 -15 q 90 -9 103 -13 q 59 -3 77 -6 l 59 -3 q 36 32 42 11 q 31 76 30 53 q 37 120 32 98 q 47 158 42 141 l 47 158 q 48 168 58 165 l 48 168 q 62 193 52 183 q 72 210 72 202 l 72 210 q 100 245 79 221 q 144 295 120 268 q 191 346 168 321 q 225 386 213 371 l 225 386 q 253 429 231 403 q 300 483 275 455 q 344 536 324 511 q 364 576 363 561 l 364 576 q 404 620 382 590 q 449 681 425 650 q 499 733 473 711 q 549 752 524 755 l 549 752 q 565 679 564 715 q 556 596 565 642 z"},"¹":{"ha":211,"x_min":63,"x_max":233,"o":"m 229 608 l 229 608 q 230 599 229 603 q 231 589 230 594 l 231 589 q 225 524 233 552 q 206 467 216 496 l 206 467 q 202 453 204 460 q 196 438 199 446 l 196 438 q 186 419 188 426 q 185 406 183 412 l 185 406 l 181 387 q 164 370 170 376 q 150 358 158 364 l 150 358 l 126 359 q 112 357 115 357 q 107 356 109 356 l 107 356 l 90 364 q 71 387 78 377 q 66 410 64 397 l 66 410 q 71 465 63 441 q 89 512 79 489 l 89 512 q 110 575 102 545 q 101 632 117 604 l 101 632 q 99 646 99 643 q 98 650 98 648 l 98 650 q 96 666 98 661 l 96 666 l 96 680 q 99 687 98 685 q 99 690 99 689 l 99 690 q 104 710 100 705 q 110 717 108 715 l 110 717 l 129 732 l 145 729 l 156 726 q 165 720 162 720 l 165 720 l 178 710 q 186 702 180 705 q 198 693 191 698 l 198 693 l 209 683 q 224 647 220 666 q 229 608 227 628 z"},"¾":{"ha":838,"x_min":72,"x_max":787,"o":"m 102 382 l 94 385 l 81 397 q 75 408 76 405 q 72 414 73 410 l 72 414 l 75 433 q 79 441 77 436 q 82 452 80 446 l 82 452 q 93 480 85 464 q 123 502 100 496 l 123 502 q 144 495 139 502 l 144 495 q 183 494 163 494 q 219 496 202 494 l 219 496 q 210 500 214 498 q 200 503 205 501 l 200 503 q 155 524 177 511 q 127 563 132 536 l 127 563 l 128 573 q 131 583 130 578 q 133 592 132 587 l 133 592 q 135 598 134 595 q 136 603 135 600 l 136 603 q 114 605 119 605 l 114 605 q 99 610 107 607 q 83 617 91 612 l 83 617 l 77 629 q 74 660 74 646 q 83 686 74 673 l 83 686 l 91 709 q 104 717 102 715 l 104 717 l 121 729 q 136 731 129 730 q 151 733 143 732 l 151 733 q 227 741 189 738 q 306 741 264 744 l 306 741 q 326 739 316 740 q 346 736 336 738 l 346 736 l 356 731 q 393 669 377 706 l 393 669 l 394 657 l 391 644 q 384 631 386 634 q 379 625 381 628 l 379 625 l 363 607 q 339 595 350 602 q 319 583 327 588 l 319 583 q 348 542 337 564 q 366 496 359 519 l 366 496 q 364 477 365 480 l 364 477 l 361 457 q 344 433 354 441 l 344 433 q 341 429 342 431 q 337 423 339 426 l 337 423 l 324 414 q 304 402 311 409 l 304 402 l 288 396 q 143 377 229 369 l 143 377 q 123 379 132 378 q 102 382 113 380 l 102 382 z m 773 263 l 773 262 q 776 252 775 254 q 780 248 777 250 l 780 248 l 787 226 q 785 221 785 223 q 784 215 785 218 l 784 215 q 782 203 783 210 q 777 188 781 196 l 777 188 l 770 179 q 741 163 756 168 q 711 154 725 158 l 711 154 q 684 145 696 149 l 684 145 q 679 136 682 140 q 674 127 676 132 l 674 127 q 664 107 669 117 q 653 86 658 97 l 653 86 l 654 67 q 665 62 661 66 q 670 49 668 57 l 670 49 l 667 33 q 660 12 663 20 q 648 -6 657 3 l 648 -6 l 638 -12 q 623 -15 630 -15 q 607 -17 615 -16 l 607 -17 q 593 -19 601 -17 l 593 -19 q 567 -12 576 -17 q 551 2 558 -8 q 540 26 544 11 q 536 62 535 40 l 536 62 q 536 79 534 73 q 540 90 538 85 l 540 90 q 553 131 545 111 l 553 131 q 539 133 547 132 q 523 133 531 133 l 523 133 q 495 148 503 139 q 480 164 486 156 l 480 164 q 472 174 478 168 l 472 174 l 468 188 q 469 213 469 200 q 466 237 468 225 l 466 237 q 465 281 464 260 q 474 320 466 302 l 474 320 q 494 343 486 335 q 512 357 501 350 l 512 357 l 528 359 q 544 350 539 356 q 552 339 549 344 l 552 339 l 569 319 q 575 297 570 309 l 575 297 q 582 279 579 289 q 585 254 585 268 l 585 254 l 607 255 l 618 255 q 621 268 619 262 q 624 278 622 273 l 624 278 q 628 296 629 292 l 628 296 l 632 315 q 638 327 635 320 q 642 341 640 333 l 642 341 q 657 379 647 358 q 693 407 667 399 l 693 407 l 712 403 q 753 327 745 374 l 753 327 l 751 316 q 739 275 742 293 l 739 275 q 747 276 743 275 q 753 276 750 276 l 753 276 l 773 263 z m 729 606 l 729 606 q 702 576 722 596 q 654 531 681 556 q 597 479 627 506 q 539 426 566 451 q 492 379 512 400 q 464 347 471 358 l 464 347 q 419 304 447 332 q 359 246 390 276 q 299 185 328 215 q 252 136 270 155 l 252 136 q 253 127 250 131 q 257 118 256 123 l 257 118 q 241 98 245 107 q 237 80 237 89 q 237 63 236 71 q 234 44 237 54 l 234 44 q 220 29 226 37 q 208 13 214 21 q 194 -2 202 5 q 175 -15 186 -9 l 175 -15 q 142 -9 155 -13 q 112 -3 129 -6 l 112 -3 q 96 32 98 11 q 98 76 93 53 q 111 120 102 98 q 127 158 119 141 l 127 158 q 130 168 139 165 l 130 168 q 148 193 136 183 q 161 210 160 202 l 161 210 q 195 245 170 221 q 248 295 219 268 q 303 346 276 321 q 344 386 330 371 l 344 386 q 379 429 353 403 q 434 483 405 455 q 487 536 463 511 q 515 576 511 561 l 515 576 q 560 619 535 590 q 611 676 585 647 q 663 725 637 704 q 711 743 688 746 l 711 743 q 731 679 727 711 q 729 606 734 646 z"},"³":{"ha":375,"x_min":69,"x_max":405,"o":"m 404 473 l 405 453 q 400 439 403 444 q 395 428 397 433 l 395 428 q 392 424 393 426 q 389 418 391 421 l 389 418 l 379 408 q 362 395 368 402 l 362 395 l 347 387 q 286 365 321 373 q 207 357 250 357 l 207 357 q 187 358 197 357 q 166 359 177 358 l 166 359 q 153 365 155 363 l 153 365 l 141 373 q 128 388 131 384 l 128 388 l 127 407 q 129 416 129 410 q 129 427 129 421 l 129 427 q 130 441 129 433 q 134 456 131 448 q 143 469 137 463 q 158 479 148 475 l 158 479 q 181 474 173 480 l 181 474 q 219 476 200 475 q 255 480 238 477 l 255 480 q 245 483 250 482 q 235 486 240 484 l 235 486 q 184 504 209 493 q 148 540 159 514 l 148 540 l 147 569 l 147 580 q 132 580 135 580 q 125 581 129 580 l 125 581 q 109 584 117 582 q 92 590 100 585 l 92 590 l 83 601 q 73 631 76 618 q 75 658 69 644 l 75 658 l 78 681 q 87 689 85 688 q 88 690 88 689 l 88 690 l 102 704 q 117 707 110 706 q 131 710 124 708 l 131 710 q 206 724 169 718 q 284 729 242 729 l 284 729 q 304 729 294 729 q 325 728 314 729 l 325 728 l 335 723 q 362 698 349 712 q 387 665 374 683 l 387 665 l 391 654 l 391 641 q 387 627 388 630 q 383 621 385 623 l 383 621 l 371 602 q 351 588 360 595 q 334 574 341 580 l 334 574 q 374 535 357 556 q 401 492 390 514 l 401 492 l 404 473 z"},"²":{"ha":396,"x_min":71,"x_max":448,"o":"m 420 491 l 431 469 q 445 452 442 461 q 446 433 448 442 l 446 433 q 429 407 443 418 q 398 396 415 396 l 398 396 l 384 389 q 343 383 364 386 q 299 375 322 379 l 299 375 q 241 365 270 370 q 181 357 211 360 l 181 357 q 170 359 172 358 l 170 359 q 137 362 152 359 q 107 369 121 364 l 107 369 q 81 398 88 382 q 73 430 74 413 q 73 462 71 446 q 80 488 75 477 l 80 488 q 140 552 111 524 q 206 600 168 579 l 206 600 q 215 608 212 606 l 215 608 q 192 604 203 606 q 171 600 181 602 l 171 600 q 162 598 166 598 q 152 596 157 597 l 152 596 l 142 597 q 127 599 136 599 l 127 599 q 116 601 122 600 q 103 604 109 602 l 103 604 q 81 631 83 617 q 78 656 78 645 l 78 656 q 78 662 78 659 q 77 667 78 665 l 77 667 l 78 685 q 88 699 84 693 q 96 710 91 705 l 96 710 l 106 716 q 161 726 133 722 q 215 729 189 729 l 215 729 q 336 699 292 729 l 336 699 l 345 687 q 349 678 346 682 q 362 670 352 674 l 362 670 l 372 663 q 384 641 380 651 q 390 618 388 630 l 390 618 l 389 607 q 358 563 378 581 q 317 529 338 545 l 317 529 q 306 522 312 525 q 295 516 300 519 l 295 516 q 286 512 290 514 q 279 507 282 509 l 279 507 q 276 502 277 505 q 270 495 274 498 l 270 495 q 264 491 267 493 q 257 486 260 488 l 257 486 q 268 487 260 487 l 268 487 q 300 494 283 491 q 334 497 317 497 l 334 497 q 386 507 363 507 l 386 507 q 392 507 389 507 q 397 506 395 506 l 397 506 q 414 499 409 503 q 420 491 418 494 l 420 491 z"},"¦":{"ha":309,"x_min":-15,"x_max":325,"o":"m 158 543 l 157 545 q 178 596 169 563 q 198 663 187 629 q 225 723 209 696 q 264 756 240 750 l 264 756 q 304 694 291 727 q 325 616 317 661 l 325 616 q 300 551 317 593 q 262 456 282 508 l 262 456 q 261 441 261 448 q 258 426 260 433 l 258 426 q 245 416 250 422 q 233 404 239 410 q 220 393 227 398 q 203 384 213 387 l 203 384 q 173 395 184 389 q 146 408 162 401 l 146 408 q 132 441 134 423 q 133 476 130 458 q 143 512 136 494 q 158 543 150 529 l 158 543 z m 97 301 l 97 301 q 127 300 111 304 q 156 287 142 295 q 180 268 170 278 q 193 251 190 258 l 193 251 q 192 229 195 243 l 192 229 q 182 195 190 216 q 158 140 174 174 l 158 140 q 153 123 157 135 q 149 105 148 110 l 149 105 q 134 85 138 96 q 127 63 129 74 q 124 41 125 52 q 119 21 123 30 l 119 21 q 104 11 110 17 q 90 -1 97 5 q 75 -12 83 -7 q 56 -19 67 -17 l 56 -19 q 25 -4 36 -12 q -3 11 14 3 l -3 11 q -15 50 -15 29 q -9 92 -15 71 q 8 132 -3 113 q 27 165 18 151 l 27 165 q 60 245 47 220 q 80 283 72 270 l 80 283 q 97 301 90 297 z"},"×":{"ha":502,"x_min":-6,"x_max":502,"o":"m 445 525 l 445 525 q 467 509 459 519 q 480 489 475 499 q 490 467 485 478 q 502 448 494 456 l 502 448 q 487 424 495 434 q 476 401 479 414 l 476 401 q 434 379 459 394 l 434 379 q 381 343 413 366 q 305 282 349 320 l 305 282 q 322 260 316 270 q 333 242 328 250 l 333 242 q 341 225 337 233 l 341 225 q 353 212 348 219 q 363 196 358 204 q 373 181 367 188 q 388 170 379 174 l 388 170 q 403 125 393 145 q 411 84 412 105 l 411 84 q 394 53 405 65 q 377 27 382 41 l 377 27 q 362 23 369 25 q 350 15 355 20 l 350 15 l 303 49 q 267 129 290 91 q 221 195 244 167 l 221 195 q 157 138 187 169 q 101 71 126 106 l 101 71 q 88 23 98 36 q 47 -2 77 9 l 47 -2 q 7 49 19 19 q 4 107 -6 78 l 4 107 q 15 148 5 128 q 38 187 24 168 q 67 221 51 205 q 97 251 83 237 l 97 251 q 107 265 100 259 q 122 277 114 271 q 138 290 130 283 q 151 306 146 297 l 151 306 q 128 346 145 326 q 97 386 111 365 l 97 386 q 92 388 96 389 q 85 388 87 386 l 85 388 q 81 413 87 399 q 65 434 74 426 l 65 434 q 71 456 67 442 q 69 485 74 469 l 69 485 q 72 498 69 492 q 77 510 74 504 q 81 521 79 515 q 80 531 82 526 l 80 531 q 99 530 90 532 q 115 524 107 527 q 129 519 122 521 q 142 520 135 517 l 142 520 q 145 512 140 512 q 149 506 149 511 l 149 506 q 178 488 162 502 q 209 457 194 474 q 236 424 224 440 q 253 399 247 408 l 253 399 q 297 429 273 411 q 345 465 320 447 q 395 499 369 483 q 445 525 421 515 z"}," ":{"ha":379,"x_min":0,"x_max":0,"o":""},"!":{"ha":267,"x_min":0,"x_max":277,"o":"m 276 688 l 276 688 q 274 666 276 679 q 269 640 271 653 q 268 617 267 627 q 277 603 269 606 l 277 603 q 253 514 259 550 q 242 446 246 478 q 230 377 237 413 q 205 289 223 341 l 205 289 q 178 245 194 257 q 144 232 162 232 q 107 242 126 232 q 72 264 88 252 l 72 264 q 72 311 69 283 q 78 368 74 338 q 86 426 82 398 q 92 472 90 453 l 92 472 q 106 490 102 483 q 112 505 110 497 q 114 525 113 513 q 119 559 115 537 l 119 559 q 118 579 121 570 q 116 595 114 587 l 116 595 q 123 601 118 599 q 128 608 127 603 l 128 608 q 130 629 132 621 q 133 647 128 636 l 133 647 q 146 673 138 655 q 151 709 153 690 l 151 709 q 168 725 160 716 q 185 742 176 734 q 204 754 193 749 q 229 759 214 759 l 229 759 q 241 738 237 748 q 249 719 245 728 q 258 702 252 710 q 276 688 264 694 z m 173 127 l 177 119 q 180 104 179 111 q 182 89 181 97 l 182 89 q 169 51 176 68 l 169 51 q 165 42 166 44 q 164 39 164 40 q 165 37 164 38 q 166 28 166 35 l 166 28 l 161 16 q 150 5 156 9 q 136 -2 143 1 l 136 -2 q 130 -5 133 -4 q 124 -9 126 -7 l 124 -9 l 121 -21 l 107 -23 q 78 -27 91 -27 l 78 -27 l 67 -27 q 48 -10 55 -16 q 32 1 41 -4 l 32 1 q 19 34 21 20 l 19 34 q 14 51 17 47 l 14 51 l 0 65 l 12 74 l 0 93 q 18 106 12 102 q 29 115 24 110 q 38 126 33 119 q 54 149 43 133 l 54 149 l 63 162 l 75 155 q 94 150 80 152 q 117 145 107 147 l 117 145 q 149 138 133 140 q 173 127 164 135 l 173 127 z"},"\"":{"ha":504,"x_min":81,"x_max":545,"o":"m 254 739 l 254 739 q 277 721 266 729 q 297 704 288 713 q 311 684 306 695 q 313 655 315 672 l 313 655 q 294 622 305 646 q 267 551 283 597 l 267 551 q 252 489 259 528 q 234 407 244 449 q 208 327 223 364 q 170 272 193 289 l 170 272 q 151 277 161 275 q 133 283 141 279 q 121 295 125 287 q 117 316 116 302 l 117 316 q 88 348 94 329 q 82 387 81 366 q 87 428 83 407 q 87 465 90 448 l 87 465 q 109 554 97 506 q 129 645 120 601 l 129 645 q 144 668 138 654 q 153 697 149 681 q 162 729 157 713 q 174 758 166 744 l 174 758 q 191 754 179 753 q 206 760 203 754 l 206 760 q 228 744 212 750 q 254 739 244 737 z m 437 759 l 437 759 q 468 746 452 753 q 499 731 484 739 q 526 712 514 723 q 545 686 538 701 l 545 686 q 523 618 537 651 q 496 553 509 585 q 475 490 483 521 q 472 427 467 459 l 472 427 q 466 426 470 424 q 460 422 462 427 l 460 422 q 446 372 454 399 q 437 315 438 344 l 437 315 q 420 304 428 310 q 413 287 412 297 l 413 287 q 389 277 402 282 q 365 271 376 271 q 344 277 353 270 q 334 303 335 283 l 334 303 q 321 312 324 305 q 316 327 318 319 q 311 343 314 335 q 297 355 307 351 l 297 355 q 322 484 311 436 q 341 556 333 531 l 341 556 q 356 596 350 585 l 356 596 q 367 634 361 617 q 378 669 372 651 q 389 705 383 686 q 400 747 394 723 l 400 747 q 416 757 408 752 q 437 759 423 762 z"},"#":{"ha":720,"x_min":30,"x_max":741,"o":"m 638 286 l 638 286 q 665 273 661 281 q 662 256 669 265 q 642 236 655 246 q 617 219 629 226 l 617 219 q 594 216 606 221 q 570 203 581 210 l 570 203 q 544 205 557 205 q 516 205 530 205 l 516 205 q 501 167 509 185 q 478 135 492 148 l 478 135 q 481 126 477 130 q 486 117 484 122 l 486 117 q 471 98 475 108 q 465 77 466 88 q 463 56 463 66 q 458 37 462 46 l 458 37 q 442 27 449 33 q 429 15 435 21 q 414 5 422 9 q 394 -2 406 0 l 394 -2 q 360 12 373 5 q 330 26 347 18 l 330 26 q 315 64 316 44 q 319 104 313 84 q 335 142 325 124 q 354 174 345 160 l 354 174 q 366 199 361 188 l 366 199 q 320 199 343 200 q 271 194 296 197 l 271 194 q 257 162 265 177 q 236 134 248 146 l 236 134 q 239 125 235 129 q 245 116 243 121 l 245 116 q 230 97 234 107 q 224 77 225 87 q 221 56 222 66 q 216 37 220 45 l 216 37 q 201 27 207 33 q 187 15 194 21 q 172 5 180 9 q 152 -2 164 0 l 152 -2 q 119 12 131 5 q 88 26 106 18 l 88 26 q 73 64 74 43 q 78 104 72 84 q 94 142 84 124 q 113 174 104 160 l 113 174 q 89 174 101 174 q 64 172 76 173 l 64 172 q 42 192 49 180 q 33 218 35 204 q 31 245 30 231 q 31 273 31 259 l 31 273 q 45 290 35 284 q 65 301 54 296 l 65 301 q 119 304 95 302 q 166 307 143 305 l 166 307 q 168 312 167 309 q 169 317 168 315 l 169 317 q 176 354 168 331 q 193 402 183 376 l 193 402 q 164 397 176 399 q 144 393 152 395 l 144 393 q 109 400 120 394 q 91 415 97 406 q 83 434 85 423 q 77 456 81 444 l 77 456 q 88 478 85 464 q 81 499 90 492 l 81 499 q 99 511 91 501 q 105 525 107 520 l 105 525 q 169 531 136 530 q 232 534 202 531 l 232 534 q 252 587 243 554 q 271 652 260 619 q 297 709 281 684 q 336 739 312 734 l 336 739 q 382 680 366 711 q 407 605 397 648 l 407 605 q 398 580 404 595 q 384 545 392 565 l 384 545 q 432 546 408 546 q 479 547 456 546 l 479 547 q 496 600 488 569 q 515 661 504 631 q 540 712 525 690 q 578 739 555 734 l 578 739 q 623 680 607 712 q 648 605 639 648 l 648 605 q 639 579 645 595 q 624 541 632 562 l 624 541 q 655 538 640 540 q 682 531 670 535 q 701 519 694 526 q 709 499 708 511 l 709 499 q 734 492 727 497 q 741 480 740 487 q 737 465 741 473 q 730 448 733 456 l 730 448 q 663 430 702 436 q 578 420 623 423 l 578 420 q 559 363 567 388 q 550 324 551 337 l 550 324 l 594 324 q 601 311 593 315 q 618 305 609 307 q 634 299 627 302 q 638 286 641 295 z m 308 323 l 307 318 q 354 321 327 320 q 410 323 381 322 l 410 323 q 421 364 412 339 q 440 416 429 389 l 440 416 q 384 416 410 416 q 335 415 357 416 l 335 415 q 317 360 324 384 q 308 323 309 335 l 308 323 z"},"$":{"ha":505,"x_min":31,"x_max":569,"o":"m 414 306 l 414 306 q 418 268 416 285 q 411 234 419 251 l 411 234 q 366 171 396 198 q 298 124 336 144 l 298 124 q 294 110 296 117 q 293 100 292 103 l 293 100 q 277 80 282 91 q 270 58 272 69 q 267 36 268 47 q 262 16 266 25 l 262 16 q 247 6 254 12 q 234 -6 240 0 q 219 -17 227 -12 q 200 -24 211 -22 l 200 -24 q 169 -9 180 -17 q 141 6 157 -2 l 141 6 q 129 39 130 21 q 131 74 127 57 l 131 74 q 113 76 122 75 q 96 75 104 76 l 96 75 q 85 86 90 80 q 77 100 79 92 l 77 100 q 73 104 73 100 q 69 109 73 108 l 69 109 q 75 118 75 117 q 72 120 74 119 q 68 123 70 121 q 67 127 66 124 l 67 127 q 70 142 71 133 q 68 161 69 151 q 69 179 67 170 q 82 192 71 187 l 82 192 q 142 195 114 189 q 196 210 170 200 q 244 232 221 220 q 289 253 267 244 l 289 253 q 307 276 294 268 q 324 298 319 283 l 324 298 q 321 305 325 304 q 316 311 316 306 l 316 311 q 266 330 289 323 q 228 344 243 336 l 228 344 q 210 342 218 339 q 187 346 201 344 l 187 346 q 126 352 155 348 q 69 367 97 356 l 69 367 q 65 375 67 372 q 55 377 63 378 l 55 377 q 44 390 50 384 q 33 404 38 396 l 33 404 q 36 421 35 414 q 31 435 37 428 l 31 435 q 36 453 34 446 q 36 471 38 460 l 36 471 q 57 502 43 489 q 89 524 71 515 q 125 539 106 533 q 159 549 143 544 l 159 549 q 216 570 185 561 q 278 588 246 579 l 278 588 q 293 639 285 612 q 310 689 300 665 q 333 729 320 712 q 365 751 346 746 l 365 751 q 404 690 391 722 q 425 614 417 658 l 425 614 q 468 612 446 614 q 513 602 490 609 l 513 602 q 522 587 516 594 q 533 572 527 579 q 544 557 539 564 q 549 541 548 549 l 549 541 q 564 525 558 533 q 566 501 569 516 l 566 501 q 548 489 557 495 q 529 478 539 483 l 529 478 q 460 484 494 486 q 396 480 425 482 l 396 480 q 376 488 387 488 q 352 484 364 487 q 327 478 339 481 q 303 476 314 474 l 303 476 q 281 467 294 469 q 252 463 267 464 l 252 463 q 254 457 251 458 q 254 451 256 456 l 254 451 q 269 443 259 445 q 288 438 278 440 q 305 432 297 436 q 315 419 312 428 l 315 419 q 339 413 328 419 q 356 399 349 407 q 366 380 362 390 q 368 363 369 370 l 368 363 q 375 358 371 356 q 383 354 378 359 l 383 354 q 397 332 386 343 q 414 306 408 320 z"},"%":{"ha":659,"x_min":40,"x_max":673,"o":"m 455 557 l 455 557 q 485 582 468 565 q 519 617 501 598 q 556 655 537 635 q 594 691 575 675 q 631 715 613 706 q 665 723 649 724 l 665 723 q 668 654 673 688 q 645 576 662 619 l 645 576 q 614 547 634 565 q 569 506 593 528 q 518 459 544 483 q 469 412 492 434 q 428 371 445 389 q 403 342 410 352 l 403 342 q 359 301 386 327 q 301 246 331 275 q 242 189 270 217 q 195 143 213 161 l 195 143 q 196 135 193 138 q 199 126 199 131 l 199 126 q 184 108 187 116 q 180 91 180 99 q 180 75 179 83 q 177 56 180 66 l 177 56 q 163 43 169 50 q 150 28 156 35 q 137 14 144 20 q 118 2 129 7 l 118 2 q 86 7 98 3 q 57 13 74 10 l 57 13 q 42 46 43 26 q 45 87 40 66 q 58 129 49 108 q 74 164 66 149 l 74 164 q 95 196 84 187 q 108 213 106 205 l 108 213 q 141 245 117 223 q 192 292 164 267 q 247 341 220 317 q 287 378 273 364 l 287 378 q 322 419 296 394 q 377 470 348 444 q 428 520 405 496 q 455 557 451 543 z m 300 680 l 300 680 q 297 670 298 675 q 290 661 295 664 l 290 661 q 294 648 295 650 l 294 648 q 316 607 306 628 q 337 566 325 586 l 337 566 q 341 543 335 554 q 349 521 347 532 l 349 521 q 346 490 351 507 q 329 466 340 473 l 329 466 q 312 453 322 458 q 294 440 302 448 l 294 440 q 282 435 288 436 q 268 432 275 434 l 268 432 q 239 419 257 425 q 209 415 221 413 l 209 415 q 180 408 194 410 q 146 410 165 406 l 146 410 q 85 425 109 405 q 50 471 61 444 l 50 471 q 52 524 46 500 q 70 567 58 547 q 96 604 81 587 q 123 637 110 621 l 123 637 q 132 640 129 635 q 139 647 134 645 l 139 647 q 150 659 143 655 q 160 669 156 662 l 160 669 q 174 677 169 671 q 186 685 178 683 l 186 685 q 200 700 196 695 q 210 713 204 705 l 210 713 q 218 713 215 713 q 226 714 220 713 l 226 714 q 233 725 230 721 q 243 732 236 728 l 243 732 q 257 728 249 729 q 269 722 264 727 l 269 722 q 272 714 269 717 q 278 709 275 711 q 284 704 281 706 q 287 697 286 701 l 287 697 q 297 689 295 691 q 300 680 298 686 z m 228 537 l 228 537 q 231 548 231 547 q 230 550 231 548 l 230 550 q 223 563 226 556 q 216 576 220 570 l 216 576 q 204 574 210 570 l 204 574 q 194 565 199 569 q 183 555 188 561 l 183 555 q 173 542 177 547 q 167 527 168 537 l 167 527 q 184 524 174 522 q 202 526 194 526 l 202 526 q 216 531 210 528 q 228 537 222 534 z m 592 176 l 592 176 q 596 154 590 164 q 603 132 601 143 l 603 132 q 600 101 605 118 q 584 77 595 83 l 584 77 q 567 63 577 68 q 548 50 556 58 l 548 50 q 536 46 542 47 q 522 42 530 44 l 522 42 q 494 30 511 36 q 463 25 476 24 l 463 25 q 434 18 448 20 q 400 20 420 16 l 400 20 q 340 35 363 15 q 305 82 316 54 l 305 82 q 307 134 301 110 q 324 177 313 157 q 350 214 335 197 q 378 247 364 231 l 378 247 q 386 251 383 245 q 394 257 389 256 l 394 257 q 404 269 397 265 q 415 280 411 272 l 415 280 q 428 288 423 282 q 441 295 433 293 l 441 295 q 455 310 450 305 q 465 323 459 315 l 465 323 q 473 324 470 324 q 480 324 475 323 l 480 324 q 488 335 485 332 q 497 343 491 338 l 497 343 q 511 339 503 339 q 523 332 518 338 l 523 332 q 532 319 524 321 q 542 307 540 316 l 542 307 q 551 299 549 301 q 555 290 553 297 l 555 290 q 551 280 553 285 q 544 272 549 274 l 544 272 q 548 259 550 261 l 548 259 q 570 218 560 239 q 592 176 579 196 z m 483 148 l 483 148 q 485 161 485 157 l 485 161 q 478 174 480 167 q 471 187 475 181 l 471 187 q 464 182 466 182 q 459 184 461 182 l 459 184 q 448 175 453 179 q 437 166 442 171 l 437 166 q 427 152 432 157 q 422 138 422 147 l 422 138 q 439 134 429 132 q 457 136 449 136 l 457 136 q 471 141 465 138 q 483 148 476 144 z"},"&":{"ha":614,"x_min":0,"x_max":594,"o":"m 561 318 l 561 318 q 583 312 576 317 q 592 299 589 306 q 593 283 594 291 q 592 265 592 274 l 592 265 q 555 249 577 255 q 505 238 532 242 q 449 233 478 234 q 390 231 419 231 l 390 231 q 378 171 385 203 q 355 95 371 139 l 355 95 q 323 52 341 64 q 286 39 305 39 q 246 49 266 39 q 208 70 226 58 l 208 70 q 207 123 204 96 q 216 188 210 149 l 216 188 q 200 205 210 200 q 179 210 190 209 q 157 208 167 210 q 143 204 147 206 l 143 204 q 104 213 124 205 q 64 232 83 221 q 31 255 45 242 q 9 279 16 267 l 9 279 q 12 302 14 287 q 0 324 9 317 l 0 324 q 12 336 8 326 q 12 351 15 346 l 12 351 q 38 371 28 355 q 60 404 47 386 q 96 439 73 422 q 164 461 119 455 l 164 461 q 211 434 193 444 q 239 419 228 424 l 239 419 q 257 411 251 413 l 257 411 q 264 417 258 415 q 270 424 269 419 l 270 424 q 272 445 274 437 q 276 463 270 452 l 276 463 q 290 484 281 471 q 296 515 298 496 l 296 515 q 315 531 306 522 q 333 547 323 539 q 354 560 342 554 q 382 565 365 565 l 382 565 q 395 544 391 554 q 403 525 399 534 q 414 508 407 516 q 433 493 420 500 l 433 493 q 431 471 434 484 q 426 446 428 458 q 425 423 424 433 q 435 409 426 412 l 435 409 q 420 366 425 383 l 420 366 q 459 363 437 363 q 501 359 481 362 q 538 347 521 356 q 561 318 554 338 z m 139 323 l 139 323 q 154 314 139 314 l 154 314 q 163 315 158 314 q 172 316 167 315 l 172 316 q 182 318 177 317 l 182 318 q 172 328 177 324 l 172 328 q 163 336 167 332 q 154 339 158 339 l 154 339 q 145 332 150 339 q 139 323 139 325 z"},"'":{"ha":272,"x_min":81,"x_max":315,"o":"m 254 739 l 254 739 q 277 721 266 729 q 297 704 288 713 q 311 684 306 695 q 313 655 315 672 l 313 655 q 294 622 305 646 q 267 551 283 597 l 267 551 q 252 489 259 528 q 234 407 244 449 q 208 327 223 364 q 170 272 193 289 l 170 272 q 151 277 161 275 q 133 283 141 279 q 121 295 125 287 q 117 316 116 302 l 117 316 q 88 348 94 329 q 82 387 81 366 q 87 428 83 407 q 87 465 90 448 l 87 465 q 109 554 97 506 q 129 645 120 601 l 129 645 q 144 668 138 654 q 153 697 149 681 q 162 729 157 713 q 174 758 166 744 l 174 758 q 191 754 179 753 q 206 760 203 754 l 206 760 q 228 744 212 750 q 254 739 244 737 z"},"(":{"ha":370,"x_min":31,"x_max":483,"o":"m 282 491 l 276 474 l 240 429 l 239 401 q 218 348 227 376 q 200 285 208 320 l 200 285 q 190 206 191 247 q 194 123 189 164 q 207 43 198 82 q 228 -28 216 4 l 228 -28 q 223 -43 225 -32 q 219 -68 220 -55 q 217 -92 217 -81 q 218 -109 216 -104 l 218 -109 l 225 -120 q 230 -127 229 -122 q 232 -136 231 -132 l 232 -136 q 219 -184 234 -161 l 219 -184 q 182 -174 199 -181 q 149 -161 164 -168 l 149 -161 q 126 -122 138 -137 q 101 -93 113 -107 l 101 -93 q 80 -68 90 -81 q 58 -35 69 -55 l 58 -35 q 48 25 54 -2 q 34 81 42 52 l 34 81 l 31 92 q 35 168 33 129 q 35 234 37 206 l 35 234 q 38 252 37 242 q 39 271 38 261 l 39 271 q 39 283 39 275 q 40 295 39 291 l 40 295 l 62 297 l 55 329 l 66 341 l 70 359 q 86 459 73 416 q 123 542 99 501 l 123 542 l 131 557 q 165 606 148 580 q 204 662 182 632 l 204 662 q 266 727 239 700 q 319 771 292 754 l 319 771 l 328 782 q 361 812 347 800 q 385 834 374 823 l 385 834 q 405 852 396 844 q 423 865 414 860 l 423 865 q 450 857 437 855 q 471 862 463 859 l 471 862 q 483 840 483 849 q 479 815 483 831 l 479 815 q 474 785 476 802 q 479 748 471 768 l 479 748 q 471 726 474 737 q 463 702 467 714 l 463 702 q 456 685 459 690 q 450 676 453 679 q 442 669 446 672 q 431 657 437 665 l 431 657 q 385 629 408 648 q 341 586 361 609 q 305 537 320 562 q 282 491 289 512 l 282 491 z"},")":{"ha":370,"x_min":-123,"x_max":329,"o":"m 326 600 l 329 589 q 325 513 327 551 q 325 447 323 475 l 325 447 q 323 429 323 438 q 321 410 322 419 l 321 410 q 321 398 321 406 q 320 386 321 390 l 320 386 l 298 383 l 305 352 l 294 340 l 290 322 q 274 223 287 265 q 237 138 261 180 l 237 138 l 229 124 q 195 75 212 101 q 156 18 178 48 l 156 18 q 95 -46 121 -20 q 41 -90 68 -73 l 41 -90 l 32 -101 q 0 -130 13 -119 q -25 -153 -14 -142 l -25 -153 q -45 -171 -36 -163 q -63 -184 -54 -179 l -63 -184 q -90 -176 -77 -174 q -111 -181 -103 -179 l -111 -181 q -123 -159 -123 -169 q -119 -135 -123 -150 l -119 -135 q -113 -104 -116 -121 q -119 -67 -111 -87 l -119 -67 q -110 -45 -114 -56 q -103 -21 -107 -34 l -103 -21 q -96 -3 -99 -9 q -89 6 -93 2 q -81 13 -86 9 q -71 24 -77 16 l -71 24 q -25 53 -49 33 q 20 96 -1 72 q 56 144 40 119 q 78 189 71 168 l 78 189 l 84 207 l 119 252 l 121 280 q 160 396 144 327 l 160 396 q 170 475 169 433 q 166 558 170 516 q 152 638 161 599 q 132 709 143 677 l 132 709 q 138 725 135 713 q 142 749 140 736 q 144 774 143 762 q 142 790 144 785 l 142 790 l 135 800 q 130 808 131 803 q 128 817 129 812 l 128 817 q 141 865 126 842 l 141 865 q 178 856 160 862 q 211 842 195 849 l 211 842 q 235 803 222 818 q 259 774 247 788 l 259 774 q 281 749 270 761 q 302 716 291 736 l 302 716 q 312 656 306 683 q 326 600 318 629 l 326 600 z"},"*":{"ha":690,"x_min":72,"x_max":722,"o":"m 684 526 l 684 526 q 710 521 702 525 q 720 509 718 516 q 721 494 722 502 q 718 477 719 485 l 718 477 q 634 454 686 461 q 522 444 581 447 l 522 444 q 539 407 528 427 q 557 368 550 387 q 564 329 564 348 q 548 295 564 310 l 548 295 q 553 272 554 281 q 545 258 551 263 q 530 248 539 252 q 512 240 521 244 l 512 240 q 450 296 481 256 q 389 382 418 336 l 389 382 q 354 319 366 342 q 339 284 342 295 l 339 284 q 311 259 324 267 q 285 249 298 251 q 259 246 272 246 q 230 245 245 246 l 230 245 q 211 258 226 253 q 183 257 196 262 l 183 257 q 182 273 188 265 q 168 280 175 281 l 168 280 q 188 315 176 297 q 211 349 199 332 q 232 383 222 366 q 244 413 241 399 l 244 413 q 249 421 246 417 q 255 428 252 424 l 255 428 q 196 419 218 423 q 163 411 173 415 l 163 411 q 126 417 139 412 q 105 431 113 422 q 92 449 97 439 q 79 470 86 459 l 79 470 q 84 492 85 478 q 72 512 83 505 l 72 512 q 87 523 81 514 q 89 537 92 532 l 89 537 q 132 543 109 541 q 176 546 154 544 q 218 550 198 547 q 253 559 238 553 l 253 559 l 273 559 q 240 599 253 585 q 219 619 227 613 l 219 619 q 210 650 210 637 q 215 674 210 663 q 228 694 220 684 q 244 716 236 704 l 244 716 q 268 726 254 717 q 283 747 281 735 l 283 747 q 300 743 288 741 q 316 749 312 744 l 316 749 q 339 720 328 736 q 361 689 350 704 q 382 660 371 673 q 405 638 392 646 l 405 638 q 434 665 420 648 q 463 696 448 682 q 495 718 478 710 q 531 724 512 726 l 531 724 q 552 741 543 737 q 570 744 561 745 q 586 738 578 742 q 601 729 593 733 l 601 729 q 575 656 599 699 q 519 568 551 613 l 519 568 q 566 566 540 566 q 616 563 592 566 q 659 552 640 560 q 684 526 678 544 z"},"+":{"ha":593,"x_min":10,"x_max":542,"o":"m 510 298 l 510 298 q 532 291 525 296 q 540 279 538 286 q 542 262 542 271 q 541 244 541 253 l 541 244 q 504 228 526 234 q 454 218 481 221 q 398 213 427 214 q 339 210 368 211 l 339 210 q 327 151 334 182 q 304 74 320 119 l 304 74 q 272 31 290 43 q 235 18 254 18 q 195 28 215 18 q 157 49 175 37 l 157 49 q 156 80 155 62 q 159 119 157 98 q 165 160 161 139 q 171 200 168 180 l 171 200 q 120 191 139 195 q 92 184 100 187 l 92 184 q 62 191 73 185 q 44 206 51 197 q 32 225 37 214 q 20 248 27 236 l 20 248 q 22 271 24 256 q 10 294 19 286 l 10 294 q 22 306 18 295 q 22 321 26 316 l 22 321 q 57 327 38 325 q 93 329 75 328 q 127 333 111 330 q 155 341 143 335 l 155 341 q 182 342 169 341 q 208 342 194 342 l 208 342 q 207 364 211 355 q 205 380 203 373 l 205 380 q 213 387 207 385 q 219 393 218 388 l 219 393 q 221 414 223 406 q 225 433 219 421 l 225 433 q 239 458 230 441 q 245 494 247 475 l 245 494 q 264 510 255 501 q 282 527 272 519 q 303 540 291 534 q 331 545 314 545 l 331 545 q 344 524 340 534 q 352 505 348 514 q 363 488 356 496 q 382 473 369 480 l 382 473 q 379 451 382 464 q 374 425 376 438 q 373 402 372 412 q 383 388 374 392 l 383 388 q 376 367 379 377 q 369 346 372 356 l 369 346 q 408 343 386 343 q 450 339 430 342 q 487 327 470 335 q 510 298 503 318 z"},",":{"ha":209,"x_min":-118,"x_max":127,"o":"m 9 149 l 9 149 q 30 138 15 144 q 60 125 44 131 q 90 113 76 118 q 110 107 104 108 l 110 107 q 123 72 121 87 q 127 39 124 56 l 127 39 q 121 23 122 34 q 119 6 119 11 l 119 6 q 115 -3 118 -2 q 110 -12 112 -5 l 110 -12 q 111 -18 109 -14 q 112 -24 113 -22 l 112 -24 q 108 -29 111 -29 q 102 -35 104 -30 l 102 -35 q 97 -48 98 -46 q 95 -51 95 -51 q 93 -53 94 -52 q 86 -65 91 -55 l 86 -65 q 69 -94 79 -80 q 56 -123 59 -109 l 56 -123 q 22 -153 42 -135 q -17 -179 1 -172 l -17 -179 q -45 -166 -26 -175 q -82 -146 -65 -157 q -109 -122 -100 -135 q -107 -98 -118 -109 l -107 -98 q -75 -52 -89 -79 q -52 5 -62 -26 q -34 68 -42 35 q -20 130 -27 100 l -20 130 q -12 128 -16 126 q -4 133 -8 129 q 3 141 0 136 q 9 149 6 146 z"},"-":{"ha":624,"x_min":20,"x_max":553,"o":"m 520 298 l 520 298 q 542 291 535 296 q 551 279 548 286 q 552 262 553 271 q 551 244 551 253 l 551 244 q 482 221 526 227 q 390 212 438 214 q 297 209 342 209 q 226 206 252 209 l 226 206 q 143 195 172 200 q 102 184 113 189 l 102 184 q 72 191 83 185 q 54 206 61 197 q 42 225 47 214 q 30 248 37 236 l 30 248 q 32 271 34 256 q 20 294 30 286 l 20 294 q 32 306 28 295 q 32 321 36 316 l 32 321 q 67 327 48 325 q 103 329 85 328 q 138 333 121 330 q 166 341 154 335 l 166 341 q 270 344 216 342 q 370 348 323 346 l 370 348 q 410 343 387 343 q 455 340 433 342 q 495 328 477 337 q 520 298 513 319 z"},".":{"ha":234,"x_min":-31,"x_max":152,"o":"m 142 127 l 146 119 q 149 104 148 111 q 152 89 150 97 l 152 89 q 145 70 148 79 q 139 51 142 60 l 139 51 q 135 42 136 44 q 134 39 134 40 q 135 37 134 38 q 135 28 135 35 l 135 28 l 131 16 q 119 5 126 9 q 105 -2 112 1 l 105 -2 q 99 -5 103 -4 q 93 -9 95 -7 l 93 -9 l 90 -21 l 77 -23 q 48 -27 60 -27 l 48 -27 l 36 -27 q 17 -10 24 -16 q 2 1 10 -4 l 2 1 q -9 22 -8 15 q -12 34 -10 28 l -12 34 q -17 51 -14 47 l -17 51 l -31 65 l -19 74 l -30 93 q -12 106 -18 102 q -2 115 -6 110 q 7 126 2 119 q 23 149 12 133 l 23 149 l 32 162 l 45 155 q 63 150 49 152 q 86 145 76 147 l 86 145 q 118 138 103 140 q 142 127 133 135 l 142 127 z"},"/":{"ha":411,"x_min":-36,"x_max":489,"o":"m 290 561 l 290 561 q 329 604 308 574 q 374 662 350 633 q 422 713 397 691 q 471 731 446 734 l 471 731 q 488 660 487 695 q 481 579 489 624 l 481 579 q 455 549 472 568 q 418 507 438 530 q 375 458 397 483 q 334 410 353 433 q 300 368 314 387 q 280 338 285 349 l 280 338 q 243 296 266 323 q 194 239 219 269 q 146 181 169 209 q 107 133 122 152 l 107 133 q 110 124 106 128 q 116 115 114 120 l 116 115 q 103 97 105 105 q 102 79 101 88 q 105 62 103 70 q 106 43 107 53 l 106 43 q 95 29 99 37 q 86 14 90 21 q 75 -1 81 6 q 58 -13 68 -8 l 58 -13 q 24 -7 37 -11 q -7 -1 11 -4 l -7 -1 q -30 34 -24 13 q -35 76 -36 54 q -30 119 -35 97 q -21 156 -26 140 l -21 156 q -20 166 -10 163 l -20 166 q -6 190 -16 180 q 4 206 4 199 l 4 206 q 31 240 11 217 q 75 288 51 262 q 120 339 98 314 q 154 377 142 363 l 154 377 q 182 419 160 393 q 227 471 203 444 q 270 522 250 498 q 290 561 289 546 z"},":":{"ha":247,"x_min":-31,"x_max":206,"o":"m 142 127 l 146 119 q 149 104 148 111 q 152 89 150 97 l 152 89 q 145 70 148 79 q 139 51 142 60 l 139 51 q 135 42 136 44 q 134 39 134 40 q 135 37 134 38 q 135 28 135 35 l 135 28 l 131 16 q 119 5 126 9 q 105 -2 112 1 l 105 -2 q 99 -5 103 -4 q 93 -9 95 -7 l 93 -9 l 90 -21 l 77 -23 q 48 -27 60 -27 l 48 -27 l 36 -27 q 17 -10 24 -16 q 2 1 10 -4 l 2 1 q -9 22 -8 15 q -12 34 -10 28 l -12 34 q -17 51 -14 47 l -17 51 l -31 65 l -19 74 l -30 93 q -12 106 -18 102 q -2 115 -6 110 q 7 126 2 119 q 23 149 12 133 l 23 149 l 32 162 l 45 155 q 63 150 49 152 q 86 145 76 147 l 86 145 q 118 138 103 140 q 142 127 133 135 l 142 127 z m 179 404 l 201 399 q 198 377 199 384 q 196 364 196 370 q 198 348 196 357 q 203 320 199 339 l 203 320 l 206 304 l 191 301 q 175 291 186 299 q 154 278 163 283 l 154 278 q 127 261 140 270 q 101 250 114 251 l 101 250 q 79 262 85 258 q 67 271 73 266 l 67 271 q 58 290 62 281 q 49 308 54 299 l 49 308 q 45 317 46 315 q 44 320 44 319 q 42 321 43 320 q 35 327 40 322 l 35 327 l 29 339 q 35 370 28 354 l 35 370 q 39 384 37 378 l 39 384 l 32 395 l 40 406 q 50 421 47 416 q 58 430 53 425 l 58 430 l 67 438 q 93 440 83 439 q 112 443 102 440 l 112 443 q 135 436 129 439 q 145 428 140 432 l 145 428 q 161 420 156 420 l 161 420 l 181 420 l 179 404 z"},";":{"ha":251,"x_min":-87,"x_max":210,"o":"m 40 149 l 40 149 q 61 138 46 144 q 91 125 75 131 q 121 113 106 118 q 141 107 135 108 l 141 107 q 153 72 152 87 q 158 39 154 56 l 158 39 q 152 23 153 34 q 149 6 150 11 l 149 6 q 146 -3 148 -2 q 141 -12 143 -5 l 141 -12 q 142 -18 140 -14 q 143 -24 143 -22 l 143 -24 q 138 -29 141 -29 q 132 -35 134 -30 l 132 -35 q 127 -48 128 -46 q 125 -51 126 -51 q 123 -53 124 -52 q 117 -65 121 -55 l 117 -65 q 100 -94 110 -80 q 87 -123 89 -109 l 87 -123 q 71 -137 80 -129 q 53 -153 62 -145 q 33 -169 43 -162 q 14 -179 23 -176 l 14 -179 q -14 -166 5 -175 q -51 -146 -34 -157 q -78 -122 -69 -135 q -76 -98 -87 -109 l -76 -98 q -44 -52 -58 -79 q -21 5 -31 -26 q -3 68 -11 35 q 11 130 4 100 l 11 130 q 19 128 15 126 q 27 133 23 129 q 34 141 31 136 q 40 149 37 146 z m 183 404 l 205 399 q 202 377 203 384 q 200 364 200 370 q 201 348 199 357 q 206 320 202 339 l 206 320 l 210 304 l 195 301 q 178 291 190 299 q 158 278 166 283 l 158 278 q 131 261 143 270 q 104 250 118 251 l 104 250 q 83 262 89 258 q 71 271 77 266 l 71 271 q 53 308 61 288 l 53 308 q 49 317 49 315 q 47 320 48 319 q 45 321 46 320 q 38 327 43 322 l 38 327 l 33 339 q 34 355 31 347 q 38 370 36 363 l 38 370 q 42 384 42 378 l 42 384 l 36 395 l 44 406 q 54 421 51 416 q 62 430 57 425 l 62 430 l 71 438 q 96 440 87 439 q 115 443 105 440 l 115 443 l 125 442 q 139 436 133 439 q 149 428 144 432 l 149 428 q 165 420 160 420 l 165 420 l 185 420 l 183 404 z"},"<":{"ha":640,"x_min":-7,"x_max":630,"o":"m 586 478 l 586 478 q 603 467 597 470 q 612 461 608 463 q 619 456 615 459 q 630 447 622 453 l 630 447 q 625 430 625 436 q 626 419 625 424 q 629 407 627 413 q 629 391 630 401 l 629 391 q 532 336 574 356 q 450 300 489 315 q 368 272 410 285 q 269 236 325 258 l 269 236 q 329 212 292 222 q 402 188 365 201 q 468 154 438 174 q 508 102 498 134 l 508 102 q 533 86 522 101 q 541 51 543 71 l 541 51 q 523 38 531 45 q 501 26 514 30 l 501 26 q 473 28 490 24 q 435 39 455 32 q 392 54 414 46 q 349 67 369 62 l 349 67 q 306 76 329 72 q 262 88 282 80 l 262 88 q 247 98 253 92 q 231 105 240 103 l 231 105 q 193 117 213 108 q 151 135 172 125 q 110 155 130 145 q 71 173 89 165 l 71 173 q 58 188 72 179 q 28 198 44 197 l 28 198 q 19 220 28 210 q 4 241 9 229 l 4 241 q 12 294 -7 269 q 69 324 31 319 l 69 324 q 88 321 81 320 q 105 316 94 321 l 105 316 q 149 340 123 328 q 198 346 174 351 l 198 346 q 210 354 201 354 q 220 363 218 354 l 220 363 q 300 385 261 370 q 376 418 339 400 q 448 453 413 435 q 514 484 482 470 l 514 484 q 540 485 528 480 q 565 488 552 489 l 565 488 q 564 484 562 485 q 570 483 566 483 q 579 482 574 482 q 586 478 583 481 z"},"=":{"ha":601,"x_min":10,"x_max":570,"o":"m 546 410 l 546 410 q 565 403 560 408 q 570 391 570 398 q 567 376 570 384 q 561 358 564 367 l 561 358 q 487 336 532 342 q 393 327 441 329 q 301 325 345 324 q 229 322 256 325 l 229 322 q 144 311 175 316 q 100 300 113 305 l 100 300 q 73 307 82 301 q 59 322 63 313 q 53 341 54 330 q 47 363 51 351 l 47 363 q 56 385 54 371 q 51 406 58 399 l 51 406 q 66 418 59 408 q 70 432 72 427 l 70 432 q 107 438 88 436 q 143 440 125 439 q 178 443 161 441 q 208 451 194 445 l 208 451 q 311 455 257 453 q 412 458 365 456 l 412 458 q 450 453 427 453 q 493 450 472 452 q 530 439 514 447 q 546 410 545 431 z m 488 217 l 488 217 q 509 205 506 213 q 507 188 512 197 q 492 168 502 178 q 472 150 481 158 l 472 150 q 453 147 463 152 q 435 135 443 141 l 435 135 q 378 136 407 138 q 323 131 348 133 l 323 131 q 318 127 318 131 q 314 122 317 123 l 314 122 q 252 129 285 131 q 183 121 219 127 q 110 109 147 115 q 36 101 73 102 l 36 101 q 20 121 25 109 q 12 146 14 132 q 11 173 10 159 q 11 201 11 187 l 11 201 q 22 218 14 212 q 38 229 30 224 l 38 229 q 83 232 63 230 q 122 236 103 234 q 159 240 140 238 q 199 243 177 242 l 199 243 q 244 249 212 246 l 244 249 q 321 253 271 251 q 454 255 370 255 l 454 255 q 460 242 453 246 q 473 236 466 238 q 486 230 480 233 q 488 217 491 226 z"},">":{"ha":650,"x_min":-41,"x_max":591,"o":"m 561 316 l 561 316 q 571 295 561 304 q 585 273 580 285 l 585 273 q 589 245 591 259 q 577 220 586 231 q 554 201 568 209 q 520 190 539 193 l 520 190 q 502 194 508 195 q 484 198 495 193 l 484 198 q 441 175 466 186 q 391 168 415 163 l 391 168 q 380 160 388 160 q 369 151 371 160 l 369 151 q 289 129 328 144 q 213 97 250 114 q 142 61 176 79 q 75 30 107 43 l 75 30 q 49 30 61 34 q 24 26 37 25 l 24 26 q 25 30 27 29 q 19 32 23 31 q 11 33 15 32 q 3 36 6 33 l 3 36 q -13 47 -8 43 q -22 53 -19 51 q -30 58 -26 55 q -41 67 -34 61 l -41 67 q -36 84 -37 77 q -37 96 -36 90 q -39 107 -38 101 q -40 123 -41 113 l -40 123 q 57 179 15 158 q 139 214 99 199 q 222 243 179 229 q 320 278 264 256 l 320 278 q 261 302 297 291 q 188 327 224 313 q 121 360 151 340 q 81 412 91 380 l 81 412 q 57 428 67 413 q 48 463 46 443 l 48 463 q 67 477 58 469 q 88 488 75 484 l 88 488 q 117 486 99 490 q 155 475 134 482 q 198 460 175 468 q 240 447 220 452 l 240 447 q 284 438 260 442 q 327 426 307 434 l 327 426 q 343 417 336 422 q 358 409 349 411 l 358 409 q 397 398 376 406 q 438 379 417 389 q 480 359 459 369 q 518 341 500 348 l 518 341 q 531 326 517 335 q 561 316 545 317 z"},"?":{"ha":570,"x_min":50,"x_max":631,"o":"m 604 689 l 604 689 q 616 673 611 681 q 631 660 621 664 l 631 660 q 628 613 626 635 q 631 564 630 590 l 631 564 q 569 443 617 488 q 458 380 521 397 l 458 380 q 452 366 458 370 l 452 366 q 422 356 432 363 q 404 341 412 349 q 384 326 395 333 q 348 314 372 318 l 348 314 q 335 300 343 303 q 318 296 326 297 q 301 291 309 294 q 289 274 293 287 l 289 274 l 232 221 q 190 227 208 227 q 160 228 172 226 q 142 240 148 230 q 133 278 135 250 l 133 278 q 141 292 134 288 q 149 303 147 295 l 149 303 q 156 336 149 325 q 172 353 162 346 q 193 369 182 360 q 212 395 204 377 l 212 395 q 248 418 228 402 q 283 448 267 433 l 283 448 q 326 471 308 461 q 358 491 343 481 q 388 513 373 501 q 424 543 403 525 l 424 543 q 406 558 419 556 q 375 557 392 559 l 375 557 q 319 569 346 566 q 254 573 291 571 l 254 573 q 234 571 240 572 q 214 571 227 569 l 214 571 q 201 563 208 566 q 185 558 193 560 q 168 553 176 555 q 152 546 159 550 l 152 546 q 120 565 132 551 q 91 587 108 579 l 91 587 q 94 596 89 594 q 97 608 99 598 l 97 608 q 88 616 87 613 q 81 624 88 619 l 81 624 q 93 652 85 640 q 109 674 100 663 q 127 694 118 684 q 143 717 136 704 l 143 717 q 171 730 159 721 q 193 748 182 738 l 193 748 q 298 752 247 754 q 400 741 349 749 q 501 719 450 733 q 604 689 551 705 z m 199 119 l 220 114 q 217 92 218 99 q 215 79 215 85 q 217 64 215 73 q 222 36 218 55 l 222 36 l 225 20 l 211 17 q 195 8 206 16 q 174 -5 183 0 l 174 -5 q 148 -22 160 -13 q 122 -32 135 -32 l 122 -32 q 101 -20 107 -24 q 89 -12 95 -16 l 89 -12 q 80 6 84 -3 q 71 24 76 15 l 71 24 q 67 33 68 31 q 66 36 66 35 q 64 38 65 37 q 57 43 62 38 l 57 43 l 51 55 q 53 71 50 63 q 57 85 55 78 l 57 85 q 60 93 58 88 q 61 99 61 97 l 61 99 l 55 109 l 63 120 q 72 135 69 131 q 80 144 75 139 l 80 144 l 89 151 q 133 156 116 152 l 133 156 q 155 150 150 153 q 165 142 160 146 l 165 142 q 181 134 176 134 l 181 134 l 201 134 l 199 119 z"},"@":{"ha":750,"x_min":-10,"x_max":731,"o":"m 725 452 l 725 452 q 729 376 731 414 q 717 295 726 338 l 717 295 q 690 259 709 279 q 649 219 671 238 q 606 187 627 200 q 575 172 585 173 l 575 172 q 540 171 557 169 q 508 178 523 173 l 508 178 q 502 174 505 176 q 495 168 498 171 l 495 168 q 469 165 485 166 q 442 157 453 163 l 442 157 q 371 153 407 152 q 302 157 334 153 l 302 157 q 287 166 294 162 q 269 170 280 169 l 269 170 q 240 190 252 177 q 219 218 227 203 q 205 250 210 233 q 199 282 200 267 l 199 282 q 219 327 204 307 q 250 365 234 346 l 250 365 q 270 382 260 376 q 286 397 280 388 l 286 397 q 309 408 299 401 q 327 422 318 415 q 346 435 336 428 q 368 446 355 441 l 368 446 q 392 463 376 456 q 415 481 408 469 l 415 481 q 425 480 420 477 q 435 484 430 482 l 435 484 q 446 482 442 486 q 452 483 450 477 l 452 483 q 459 478 456 478 q 464 476 461 477 l 464 476 q 473 485 469 481 q 478 494 476 489 l 478 494 l 490 505 l 509 518 l 519 519 l 536 503 q 541 496 538 501 q 545 483 544 491 l 545 483 q 546 474 545 476 q 548 465 546 471 l 548 465 l 548 453 q 547 445 547 448 q 547 434 547 442 l 547 434 q 547 430 547 432 q 546 424 546 427 l 546 424 q 527 355 533 385 q 523 310 520 324 l 523 310 q 526 294 524 303 q 531 278 527 285 q 541 265 535 270 q 557 259 547 259 l 557 259 q 574 265 565 260 l 574 265 q 592 279 582 270 q 613 304 602 287 l 613 304 l 607 320 q 615 340 613 330 q 617 361 617 350 q 617 383 617 371 q 619 409 616 395 l 619 409 q 597 461 610 432 q 568 518 584 490 q 534 569 552 546 q 494 600 515 591 l 494 600 q 487 601 489 602 q 482 598 484 599 q 476 596 479 596 q 467 598 473 595 l 467 598 q 347 510 407 553 q 236 409 286 466 l 236 409 q 150 307 188 366 q 92 171 112 247 l 92 171 q 103 165 95 169 l 103 165 q 126 158 115 160 q 148 152 137 156 l 148 152 l 184 132 q 188 122 188 124 l 188 122 q 231 111 211 114 q 270 100 251 108 l 270 100 q 358 97 320 98 q 434 94 396 95 l 434 94 q 496 98 468 94 q 549 106 523 102 l 549 106 q 551 116 551 113 q 554 123 550 118 l 554 123 q 573 105 563 117 q 591 80 582 93 q 609 55 600 67 q 627 37 618 43 l 627 37 q 624 25 623 30 q 622 13 625 20 l 622 13 q 567 -14 598 -7 q 499 -21 535 -21 q 424 -19 463 -22 q 348 -20 385 -17 l 348 -20 q 316 -14 328 -15 q 287 -10 304 -13 l 287 -10 q 242 -4 256 -9 l 242 -4 q 224 -2 233 -2 q 207 0 215 -2 l 207 0 q 163 20 182 7 l 163 20 q 120 40 142 27 q 78 69 98 53 q 40 102 57 84 q 10 134 22 119 l 10 134 q 8 162 10 150 q 3 184 5 173 q -1 205 0 194 q 2 231 -2 216 l 2 231 q -4 249 -1 240 q -10 265 -7 257 l -10 265 q 8 342 -8 308 q 47 405 24 376 q 96 457 69 433 q 148 504 123 481 l 148 504 q 156 503 153 499 q 168 504 158 506 l 168 504 q 173 518 168 510 q 186 534 178 526 q 202 546 193 541 q 219 549 211 551 l 219 549 q 250 581 229 568 q 291 608 270 594 q 329 637 312 621 q 350 676 346 652 l 350 676 l 369 676 q 358 712 357 694 q 371 742 359 730 q 402 757 382 754 q 448 748 422 760 l 448 748 q 458 749 454 747 q 464 752 461 750 q 470 756 467 754 q 476 759 472 758 l 476 759 q 558 713 522 740 q 622 650 594 685 l 622 650 q 619 647 621 648 q 614 644 616 645 q 612 640 612 642 q 615 635 611 638 l 615 635 q 675 549 648 595 q 725 452 702 503 z m 349 272 l 349 272 q 388 272 368 270 q 427 275 407 273 l 427 275 q 417 330 414 299 l 417 330 q 419 337 418 334 q 419 343 419 340 l 419 343 q 421 352 420 347 q 423 362 422 356 l 423 362 q 406 352 414 357 q 392 340 397 347 l 392 340 q 364 321 374 332 q 343 299 354 310 l 343 299 q 343 292 344 294 q 339 286 341 289 l 339 286 q 344 278 341 281 q 349 272 346 275 z"},"A":{"ha":719,"x_min":-26,"x_max":724,"o":"m -11 80 l -26 95 l -13 105 l -12 126 q 40 243 13 187 q 95 358 66 299 l 95 358 q 114 396 104 377 q 132 435 123 415 l 132 435 q 131 444 131 439 q 133 454 131 448 l 133 454 q 156 490 147 474 q 172 523 164 506 l 172 523 q 192 563 181 543 q 218 602 202 583 l 218 602 l 225 612 l 236 611 q 245 615 240 613 q 256 616 249 616 l 256 616 l 274 613 q 333 657 307 628 q 384 725 358 685 l 384 725 l 396 742 l 412 732 q 428 726 417 729 q 451 719 439 723 l 451 719 q 492 708 472 714 q 523 690 512 701 l 523 690 l 528 681 q 532 661 530 670 q 535 643 533 652 l 535 643 q 542 602 539 622 q 546 556 545 581 l 546 556 q 556 516 551 536 q 564 475 560 495 l 564 475 q 575 420 569 446 q 591 369 581 393 l 591 369 q 603 368 601 369 l 603 368 q 631 374 615 373 l 631 374 l 644 375 l 648 363 q 653 357 650 360 q 660 351 656 354 l 660 351 q 684 345 676 350 q 696 334 691 339 l 696 334 q 701 330 698 332 q 706 326 704 327 l 706 326 l 724 319 l 714 300 q 681 259 703 279 q 630 226 658 239 l 630 226 q 633 213 632 219 q 635 199 633 207 l 635 199 q 642 158 639 179 q 641 113 644 136 l 641 113 q 618 67 631 87 q 586 30 604 46 q 544 3 567 13 q 496 -9 521 -8 l 496 -9 q 476 -2 482 -6 q 464 6 469 2 l 464 6 q 451 14 456 12 l 451 14 l 438 20 l 442 35 q 442 49 445 43 q 427 65 438 55 l 427 65 q 420 72 423 68 q 413 79 417 75 l 413 79 l 393 102 l 426 111 q 466 132 456 119 q 474 176 476 144 l 474 176 q 433 178 449 181 q 401 170 417 174 l 401 170 q 356 160 378 164 q 308 155 334 155 l 308 155 q 272 158 291 155 l 272 158 l 261 159 l 258 170 q 256 175 258 172 q 251 179 253 177 l 251 179 q 239 195 246 185 q 236 220 232 205 l 236 220 q 228 243 229 231 l 228 243 q 222 228 224 235 q 217 213 219 220 l 217 213 l 213 200 l 200 198 q 197 192 198 196 q 196 186 195 188 l 196 186 l 200 175 l 190 166 q 185 161 188 163 q 180 157 182 159 l 180 157 q 175 136 178 146 q 167 116 171 126 l 167 116 q 158 85 162 100 q 153 55 153 70 l 153 55 l 149 42 q 137 30 144 34 q 122 23 129 26 l 122 23 q 108 15 112 19 l 108 15 l 105 2 l 90 0 q 72 -4 77 -3 q 59 -5 66 -5 l 59 -5 l 46 -4 q 27 15 34 8 q 9 26 19 21 l 9 26 l 3 34 q -2 49 -1 42 q -5 62 -3 55 l -5 62 q -11 80 -7 75 l -11 80 z m 294 356 l 293 355 q 266 313 279 335 l 266 313 q 280 314 273 314 q 293 315 286 314 l 293 315 q 358 320 328 317 q 423 330 388 323 l 423 330 q 406 406 415 367 q 385 483 396 444 l 385 483 l 380 473 q 332 415 355 446 q 294 356 309 384 l 294 356 z"},"B":{"ha":703,"x_min":-31,"x_max":673,"o":"m 83 483 l 83 483 q 14 531 41 500 q -31 604 -14 562 l -31 604 q 1 650 -21 631 q 51 681 23 668 q 109 702 78 694 q 169 716 140 710 l 169 716 q 175 716 175 714 q 180 714 175 718 l 180 714 q 263 736 216 725 q 363 743 310 746 l 363 743 q 380 748 370 747 q 401 748 390 748 q 422 749 412 748 q 439 752 432 749 l 439 752 q 457 744 445 745 q 482 733 469 742 l 482 733 q 482 737 486 732 q 483 743 478 741 l 483 743 q 506 737 496 743 q 525 724 516 731 q 541 710 533 716 q 557 704 548 704 l 557 704 q 579 684 566 693 q 603 664 591 674 q 622 642 614 654 q 629 615 629 630 l 629 615 q 633 608 628 609 q 640 602 638 607 l 640 602 q 629 538 641 565 q 597 489 616 511 q 557 446 578 466 q 517 403 535 426 l 517 403 q 545 376 529 388 q 576 351 560 363 q 607 326 592 339 q 631 295 621 312 l 631 295 q 644 287 634 289 l 644 287 q 653 263 647 275 q 663 239 658 250 q 669 218 668 227 q 664 203 670 209 l 664 203 q 672 191 671 199 q 672 177 673 182 l 672 177 q 642 139 650 150 q 630 123 634 128 q 622 114 626 118 q 604 98 618 110 l 604 98 q 494 41 551 66 q 374 6 436 15 l 374 6 q 360 -5 369 -1 q 338 -13 350 -10 q 313 -18 326 -16 q 288 -22 299 -20 l 288 -22 q 283 -15 283 -20 q 277 -9 282 -11 l 277 -9 q 267 -21 276 -21 q 243 -17 257 -22 q 214 -3 229 -12 q 188 14 199 6 l 188 14 q 176 -5 183 5 q 160 -19 168 -15 l 160 -19 q 140 -16 146 -17 q 127 -21 133 -15 l 127 -21 q 115 -12 119 -17 q 107 -3 111 -8 q 98 5 103 1 q 83 11 93 8 l 83 11 q 80 27 85 16 q 66 39 75 37 l 66 39 q 62 60 71 47 q 48 88 53 72 l 48 88 q 50 103 49 95 q 52 117 50 110 q 56 128 53 123 q 66 135 59 133 l 66 135 q 58 160 65 148 l 58 160 q 70 178 67 167 q 76 199 73 188 q 82 221 78 210 q 95 238 86 231 l 95 238 q 91 243 93 241 q 89 250 89 245 l 89 250 q 110 293 104 275 q 120 327 116 310 q 127 362 123 343 q 143 410 131 381 l 143 410 q 147 442 142 428 q 158 470 152 456 q 166 498 163 483 q 165 533 169 513 l 165 533 q 141 521 148 531 q 131 494 133 511 l 131 494 q 108 487 122 486 q 83 483 94 487 z m 523 290 l 523 290 q 454 315 485 311 q 394 315 422 319 q 339 302 365 310 q 287 290 313 294 l 287 290 q 260 215 274 256 q 233 135 246 174 l 233 135 q 299 150 269 140 q 357 173 329 160 q 412 198 385 185 q 468 221 439 210 l 468 221 q 481 240 471 233 q 501 254 491 247 q 518 268 511 260 q 523 290 525 276 z m 453 603 l 453 603 q 331 592 391 605 q 230 554 271 579 l 230 554 q 272 524 250 537 q 304 489 293 511 l 304 489 q 388 538 352 508 q 453 603 424 567 z"},"C":{"ha":626,"x_min":-1,"x_max":610,"o":"m 93 87 l 93 87 q 46 142 64 109 q 17 212 27 175 q 3 289 6 249 q 0 364 -1 328 l 0 364 q 22 414 9 391 q 51 457 35 436 q 85 496 67 477 q 119 533 102 514 l 119 533 q 130 530 125 533 l 130 530 q 142 549 134 541 q 159 564 150 557 q 177 577 168 570 q 192 592 186 583 l 192 592 q 237 609 217 598 q 274 633 256 620 q 311 657 292 646 q 355 674 330 668 l 355 674 q 378 691 364 684 q 405 704 391 698 q 431 717 418 710 q 451 736 443 724 l 451 736 q 468 731 457 728 q 488 736 479 733 l 488 736 q 498 734 494 737 q 506 728 502 731 q 512 723 509 724 q 517 729 514 722 l 517 729 q 522 722 525 728 q 517 714 518 716 l 517 714 q 534 711 527 716 q 554 703 540 705 l 554 703 q 557 695 559 698 q 554 685 555 692 l 554 685 q 600 651 590 674 q 602 602 610 627 q 573 555 594 576 q 525 526 551 533 l 525 526 q 468 510 494 518 q 417 492 441 502 q 371 469 392 482 q 333 437 349 455 l 333 437 q 283 415 305 429 q 241 384 260 401 q 203 349 221 367 q 167 312 185 330 l 167 312 q 161 286 167 295 q 148 268 155 277 l 148 268 q 157 236 150 249 q 170 208 163 222 l 170 208 q 340 179 250 184 q 517 172 429 173 l 517 172 q 538 150 526 160 q 559 128 549 139 q 574 103 568 117 q 576 68 579 88 l 576 68 q 539 36 559 51 q 499 5 519 20 l 499 5 q 478 5 490 4 q 452 6 465 6 q 425 5 438 6 q 399 -2 411 3 l 399 -2 q 270 14 336 0 q 148 46 204 27 l 148 46 q 125 71 137 59 q 93 87 113 82 z"},"D":{"ha":603,"x_min":15,"x_max":588,"o":"m 98 -11 l 98 -11 q 54 13 69 -4 q 31 52 38 29 q 21 101 23 74 q 15 157 18 128 l 15 157 q 26 179 19 170 q 31 204 32 188 l 31 204 q 51 266 42 236 q 63 328 60 296 l 63 328 q 75 340 69 337 l 75 340 q 77 457 83 397 q 57 568 71 517 l 57 568 q 60 585 58 579 q 60 594 62 590 l 60 594 q 66 603 58 603 q 82 603 74 603 l 82 603 q 76 639 82 621 q 63 679 69 656 l 63 679 q 74 714 71 697 q 85 745 77 731 l 85 745 q 148 722 117 735 q 209 697 179 709 q 268 673 239 684 q 325 654 297 661 l 325 654 q 414 593 368 623 q 497 526 459 562 q 559 442 534 489 q 588 331 584 395 l 588 331 q 585 321 586 325 q 583 313 584 317 q 582 304 582 309 q 582 290 582 299 l 582 290 q 491 184 546 227 q 371 108 436 141 q 236 48 306 75 q 98 -11 165 20 z m 196 556 l 196 556 q 183 552 187 556 l 183 552 q 201 467 195 507 q 208 387 207 427 q 203 305 208 347 q 189 214 198 263 l 189 214 q 212 219 202 215 q 233 228 222 223 q 255 237 243 233 q 281 242 266 241 l 281 242 q 292 255 285 250 q 303 264 298 259 l 303 264 q 353 285 328 274 q 399 310 378 296 q 437 342 420 324 q 465 385 454 360 l 465 385 q 446 411 457 400 q 422 432 434 421 q 398 454 409 442 q 379 480 386 465 l 379 480 q 351 489 363 482 q 328 502 339 495 q 305 514 317 508 q 275 521 292 520 l 275 521 q 228 541 249 535 q 196 556 207 546 z"},"E":{"ha":642,"x_min":9,"x_max":668,"o":"m 56 34 l 56 34 q 45 53 48 42 q 28 71 41 64 l 28 71 q 23 106 26 86 q 16 146 19 125 q 11 187 12 166 q 12 224 9 207 l 12 224 q 19 241 14 233 q 28 257 23 249 q 35 272 32 264 q 35 288 37 280 l 35 288 q 43 295 41 289 q 52 298 44 300 l 52 298 q 67 339 59 320 q 84 376 75 358 q 103 413 93 394 q 120 454 112 431 l 120 454 q 96 489 103 470 q 84 526 88 507 q 78 565 80 545 q 70 604 76 584 l 70 604 q 99 634 82 622 q 137 653 116 645 q 181 665 157 660 q 232 675 205 669 l 232 675 q 318 699 280 690 q 392 713 356 707 q 467 723 428 718 q 557 736 506 727 l 557 736 q 561 733 558 733 q 567 733 563 733 l 567 733 q 578 726 570 726 l 578 726 q 578 732 578 729 q 577 736 577 734 l 577 736 q 583 735 579 736 q 589 733 586 734 q 593 734 591 732 q 594 740 595 735 l 594 740 q 625 706 606 719 q 667 682 644 692 l 667 682 q 668 669 668 673 q 666 662 667 665 q 665 654 665 658 q 667 641 665 649 l 667 641 q 631 599 651 614 q 587 576 610 584 q 539 564 564 568 q 487 556 513 560 q 433 543 460 551 q 380 519 406 535 l 380 519 q 366 522 372 522 q 352 519 359 521 q 337 515 345 517 q 316 515 328 513 l 316 515 q 298 505 308 508 q 276 499 287 502 l 276 499 q 281 477 281 488 q 283 458 280 466 l 283 458 q 376 459 325 454 q 476 465 427 463 l 476 465 q 475 458 477 460 q 473 451 473 456 l 473 451 q 490 436 482 445 q 507 419 498 427 q 524 405 515 410 q 545 400 533 399 l 545 400 q 552 379 550 390 q 549 356 554 368 l 549 356 q 510 330 529 343 q 471 305 491 316 q 426 287 450 294 q 374 281 402 280 l 374 281 q 366 281 369 281 q 357 285 362 281 l 357 285 q 331 282 347 280 q 303 278 314 283 l 303 278 q 271 283 289 283 q 238 288 252 283 l 238 288 q 204 234 220 262 q 176 173 188 205 l 176 173 q 244 168 217 167 q 295 172 271 169 q 345 178 319 175 q 407 180 370 181 l 407 180 q 465 197 432 192 q 525 210 497 201 l 525 210 q 542 199 535 207 q 556 182 549 190 q 569 167 562 173 q 587 163 576 161 l 587 163 q 594 151 592 158 q 597 138 595 144 q 601 129 598 132 q 612 126 604 125 l 612 126 q 570 66 593 87 q 517 34 546 45 q 451 17 487 22 q 369 3 414 11 l 369 3 q 351 4 358 1 q 335 6 343 6 l 335 6 q 269 -4 307 1 q 191 -8 230 -9 q 116 2 152 -7 q 56 34 80 11 z"},"F":{"ha":589,"x_min":-20,"x_max":732,"o":"m 44 203 l 44 203 q -2 251 14 220 q -20 310 -18 282 l -20 310 q -7 348 -17 334 q 15 370 2 361 q 42 383 28 378 q 69 390 56 387 l 69 390 l 84 385 q 95 376 89 380 q 105 368 100 372 l 105 368 q 118 380 115 372 q 123 396 120 388 l 123 396 q 130 418 126 407 q 140 440 134 429 l 140 440 q 141 456 139 449 q 145 468 143 463 l 145 468 q 137 474 139 473 q 128 476 134 474 l 128 476 q 122 477 125 476 q 115 478 119 477 l 115 478 q 96 497 100 489 q 86 512 91 504 l 86 512 q 77 526 81 520 q 68 537 73 532 l 68 537 l 56 545 l 62 557 q 64 563 64 559 q 60 573 64 566 l 60 573 q 59 592 57 586 l 59 592 l 61 604 q 72 619 71 617 l 72 619 l 82 629 q 129 643 105 635 q 176 658 153 650 l 176 658 q 223 674 199 666 q 271 688 247 682 l 271 688 q 289 697 279 695 q 306 699 298 698 l 306 699 q 319 700 313 699 q 328 705 325 701 l 328 705 q 361 715 345 711 l 361 715 q 440 734 391 723 q 550 750 489 745 l 550 750 l 571 751 q 583 751 577 750 q 595 751 589 751 l 595 751 q 664 719 647 751 l 664 719 q 682 707 674 714 q 697 692 690 699 l 697 692 q 706 684 702 687 q 713 678 710 680 l 713 678 l 721 670 q 725 623 732 646 l 725 623 q 712 609 719 611 q 698 605 705 607 l 698 605 l 685 598 q 666 599 672 599 q 651 599 659 599 l 651 599 q 582 596 621 599 q 501 586 542 592 q 421 570 460 579 q 353 549 382 560 l 353 549 q 332 538 345 543 l 332 538 q 323 533 329 537 l 323 533 q 323 518 324 525 q 320 503 322 510 l 320 503 q 319 493 319 498 q 317 481 318 487 l 317 481 q 297 422 296 456 l 297 422 l 292 412 q 286 401 288 408 q 285 385 283 393 l 285 385 l 289 373 q 329 378 309 375 q 370 383 348 380 l 370 383 q 427 392 398 388 q 486 395 455 395 l 486 395 l 525 395 l 516 386 l 527 385 l 521 369 q 532 365 528 366 q 538 361 535 363 l 538 361 l 545 351 q 554 342 550 348 q 559 324 558 335 l 559 324 l 556 314 l 509 254 l 503 246 l 493 249 q 457 245 474 250 l 457 245 q 440 241 449 243 q 422 238 431 238 l 422 238 q 382 232 398 234 q 350 227 366 229 l 350 227 q 308 220 328 223 q 269 209 287 216 l 269 209 q 256 209 258 208 q 252 209 254 209 l 252 209 q 232 206 242 209 q 213 200 222 203 l 213 200 q 205 190 207 195 q 201 178 203 184 l 201 178 q 196 165 199 171 q 187 151 192 158 l 187 151 l 188 133 q 179 131 179 131 q 178 130 179 130 l 178 130 q 176 115 178 122 q 171 102 173 108 l 171 102 q 168 95 169 98 q 167 89 167 92 l 167 89 q 172 48 177 71 l 172 48 q 157 15 168 29 q 131 -8 146 0 l 131 -8 q 108 -7 115 -10 q 92 -1 100 -4 l 92 -1 q 82 3 87 1 q 72 5 77 4 l 72 5 l 60 15 q 53 27 57 21 q 45 38 49 32 l 45 38 q 35 52 40 45 q 26 68 30 59 l 26 68 q 24 127 19 103 q 36 173 28 150 l 36 173 q 40 188 38 181 q 44 203 42 195 z"},"G":{"ha":808,"x_min":0,"x_max":851,"o":"m 0 237 l 0 237 q 3 257 0 248 q 4 280 6 266 l 4 280 q 75 403 35 346 q 169 502 114 459 l 169 502 q 184 517 178 509 q 195 531 189 524 q 207 544 200 538 q 225 551 214 549 l 225 551 q 285 604 250 580 q 358 650 320 628 q 435 695 396 672 q 504 745 473 718 l 504 745 q 522 741 515 738 q 535 741 528 743 l 535 741 q 559 715 544 722 q 589 700 573 707 q 618 682 604 692 q 638 653 631 671 l 638 653 q 632 648 631 653 q 634 637 632 643 q 636 626 636 631 q 627 621 636 621 l 627 621 q 634 614 627 614 q 641 607 641 614 l 641 607 q 639 598 641 601 q 638 586 636 594 l 638 586 q 585 556 614 570 q 523 525 555 541 q 457 491 490 509 q 390 448 423 472 l 390 448 q 324 395 357 424 q 259 334 290 366 q 201 267 228 301 q 155 199 174 232 l 155 199 q 161 190 157 194 q 166 181 164 186 l 166 181 q 237 182 204 179 q 303 177 270 184 l 303 177 q 308 185 307 180 q 314 192 309 190 l 314 192 q 441 215 382 199 q 561 246 500 230 l 561 246 q 529 257 543 253 l 529 257 q 530 268 523 263 q 540 277 536 272 l 540 277 q 514 301 524 286 q 501 340 503 316 l 501 340 q 508 354 508 346 q 501 367 508 362 l 501 367 q 495 367 496 369 q 494 363 494 365 q 492 359 493 361 q 486 359 490 357 l 486 359 q 491 377 487 370 q 497 394 495 384 l 497 394 l 580 449 q 612 428 593 439 q 652 406 631 417 q 695 384 673 395 q 736 361 717 372 l 736 361 q 767 342 754 353 q 792 318 780 330 q 816 293 804 305 q 845 273 828 281 l 845 273 q 847 247 843 257 q 849 223 851 237 l 849 223 q 803 166 830 189 q 743 125 776 142 q 671 97 709 108 q 593 75 633 85 q 513 53 553 64 q 433 26 472 41 l 433 26 q 404 25 416 26 q 381 22 392 24 q 359 18 370 20 q 335 15 348 16 l 335 15 q 329 13 330 16 q 324 8 327 10 l 324 8 q 288 5 304 5 q 261 5 272 5 l 261 5 q 232 1 247 5 q 204 -2 217 -3 l 204 -2 q 63 62 114 2 q 7 227 12 122 l 7 227 q 5 234 8 232 q 0 237 2 235 z"},"H":{"ha":712,"x_min":-10,"x_max":692,"o":"m 15 34 l 15 34 q 11 36 12 33 q 11 42 10 39 q 14 47 11 45 q 20 47 16 49 l 20 47 q 4 76 7 63 q -10 108 0 89 l -10 108 q -6 117 -7 111 q -3 127 -5 122 q 1 135 -2 132 q 7 133 3 137 l 7 133 q 7 151 5 144 q 12 164 9 158 q 15 176 14 170 q 12 190 16 182 l 12 190 q 37 247 31 216 q 44 302 43 277 l 44 302 q 60 326 53 311 q 69 357 66 341 q 72 389 72 373 q 68 413 72 404 l 68 413 q 73 418 69 417 q 81 417 76 418 l 81 417 q 91 506 88 457 q 101 601 93 555 q 125 681 108 646 q 179 725 142 715 l 179 725 q 198 681 186 700 q 223 644 209 662 q 250 608 236 626 q 276 568 264 590 l 276 568 q 272 515 275 545 q 263 454 268 485 q 252 394 257 423 q 241 345 246 365 l 241 345 q 248 339 242 340 q 250 327 254 337 l 250 327 q 311 341 279 334 q 373 354 342 347 q 433 369 403 360 q 488 391 462 378 l 488 391 q 503 486 494 439 q 505 581 512 533 l 505 581 q 515 593 511 586 q 527 602 519 600 l 527 602 q 522 651 521 625 q 531 698 523 676 q 553 737 538 720 q 590 758 568 753 l 590 758 q 613 717 603 739 q 633 673 623 695 q 655 630 643 650 q 684 596 666 610 l 684 596 q 689 525 687 561 q 692 449 691 488 l 692 449 q 672 362 683 404 q 655 271 660 319 l 655 271 q 642 250 647 262 q 633 225 637 237 q 622 200 628 212 q 607 180 616 188 l 607 180 q 609 154 611 166 q 615 124 606 141 l 615 124 q 608 73 617 93 q 582 38 598 52 q 544 15 565 23 q 501 -1 522 6 l 501 -1 q 483 12 491 5 q 462 21 474 18 l 462 21 l 467 30 q 433 73 447 50 q 419 124 418 95 l 419 124 q 421 138 419 125 q 426 164 423 150 q 431 191 428 178 q 433 204 433 203 l 433 204 q 375 191 405 201 q 317 169 345 181 q 264 143 288 156 q 224 120 239 129 l 224 120 q 219 103 224 117 q 207 74 214 89 q 192 46 200 58 q 174 35 183 34 l 174 35 q 178 28 176 30 q 178 18 180 25 l 178 18 q 148 5 161 13 q 120 -8 134 -3 q 90 -13 106 -14 q 50 -1 73 -13 l 50 -1 q 44 12 50 6 q 32 21 38 17 q 20 28 25 25 q 15 34 15 31 z"},"I":{"ha":528,"x_min":-36,"x_max":662,"o":"m 17 -12 l 17 -12 q -5 11 3 -3 q -19 41 -14 25 q -28 75 -25 57 q -36 108 -32 92 l -36 108 q -30 129 -36 122 q -17 141 -24 135 l -17 141 q 26 145 7 142 q 63 151 45 148 q 99 157 81 154 q 138 159 117 159 l 138 159 q 166 219 153 190 q 191 273 179 247 l 191 273 q 207 320 197 298 q 225 361 216 341 q 241 400 234 380 q 250 441 248 419 l 250 441 q 272 506 262 476 q 286 576 281 535 l 286 576 q 225 565 248 570 q 192 554 202 559 l 192 554 q 161 562 172 555 q 142 579 149 569 q 130 602 135 589 q 118 629 125 615 l 118 629 q 120 656 122 638 q 108 681 118 673 l 108 681 q 120 695 116 683 q 121 712 124 706 l 121 712 q 157 719 138 717 q 195 722 176 720 q 230 726 213 723 q 259 736 247 728 l 259 736 q 368 740 311 738 q 472 745 424 742 l 472 745 q 514 739 490 739 q 561 736 537 739 q 603 723 584 733 q 628 688 621 713 l 628 688 q 651 680 643 686 q 660 666 658 674 q 662 647 662 657 q 661 626 661 636 l 661 626 q 621 607 645 614 q 567 595 596 599 q 507 589 538 590 q 445 586 475 587 l 445 586 q 428 509 440 553 q 402 422 415 464 q 380 346 389 379 q 371 302 370 312 l 371 302 q 355 263 361 279 q 343 233 348 247 q 332 206 337 219 q 318 175 326 192 l 318 175 l 386 175 q 395 160 388 164 q 410 153 402 156 q 425 146 418 150 q 431 131 431 141 l 431 131 q 455 116 450 126 q 458 95 460 106 q 448 71 455 83 q 433 50 440 59 l 433 50 q 416 46 424 52 q 401 31 408 39 l 401 31 q 344 32 372 35 q 292 27 316 29 l 292 27 q 288 22 287 26 q 286 15 289 17 l 286 15 q 223 23 255 25 q 157 14 190 21 q 88 -2 123 6 q 17 -12 53 -11 z"},"J":{"ha":685,"x_min":-20,"x_max":821,"o":"m 329 18 l 326 18 q 298 13 311 16 q 270 6 284 10 l 270 6 q 258 3 264 4 q 245 0 252 2 l 245 0 q 211 6 227 4 q 181 8 194 8 l 181 8 l 166 12 q 148 19 154 16 q 137 23 142 21 q 124 25 131 24 q 102 28 116 26 l 102 28 q 69 21 85 21 l 69 21 q 46 25 58 21 q 22 39 34 28 q -1 68 10 49 q -20 115 -12 86 l -20 115 q -13 155 -17 138 q -5 182 -9 172 l -5 182 l 3 191 q 44 198 21 198 l 44 198 q 87 191 66 198 q 129 176 108 184 l 129 176 q 142 170 138 172 q 148 167 146 168 q 154 166 150 166 q 166 166 157 166 l 166 166 q 176 167 171 166 q 185 168 180 167 l 185 168 l 197 167 q 214 163 204 163 l 214 163 q 229 165 221 163 q 244 169 236 167 l 244 169 q 258 173 252 172 q 269 176 264 174 l 269 176 l 279 185 q 295 194 289 189 q 304 206 300 199 q 312 219 308 212 q 321 234 315 226 l 321 234 q 331 246 326 240 q 340 257 335 252 l 340 257 l 340 267 q 368 342 356 304 q 389 418 380 380 q 405 492 398 456 q 416 557 411 528 l 416 557 q 410 558 413 557 q 405 558 407 558 l 405 558 q 356 557 375 558 q 321 554 337 556 q 288 549 305 552 q 243 540 270 545 l 243 540 l 226 537 q 190 521 207 528 q 153 513 172 513 l 153 513 q 101 537 123 513 l 101 537 q 75 577 78 551 l 75 577 q 71 594 70 586 l 71 594 q 67 620 67 608 q 66 641 66 631 l 66 641 l 67 658 l 82 658 q 91 667 88 664 q 94 674 93 670 l 94 674 l 97 684 l 107 685 q 150 692 128 688 q 195 701 172 696 l 195 701 q 235 708 218 705 q 266 713 251 711 q 297 715 281 714 q 334 715 313 715 l 334 715 q 349 715 342 715 q 362 714 355 714 l 362 714 q 370 720 366 719 q 376 721 374 721 l 376 721 q 387 719 383 720 q 392 717 390 718 l 392 717 q 455 725 426 723 q 506 726 483 726 l 506 726 q 528 726 517 726 q 549 725 539 726 l 549 725 l 587 725 l 614 725 q 624 726 619 726 q 633 726 628 726 l 633 726 q 649 726 643 726 q 658 726 654 726 q 666 725 662 725 q 677 723 670 724 l 677 723 q 708 718 694 720 q 736 716 722 716 l 736 716 l 755 717 l 758 705 l 767 692 q 775 681 770 686 q 786 671 780 676 l 786 671 q 810 644 798 660 q 818 596 821 627 l 818 596 l 809 584 q 802 579 805 582 q 794 572 798 576 l 794 572 l 784 563 q 762 562 771 562 q 742 561 753 561 l 742 561 q 706 562 724 561 q 667 564 687 563 l 667 564 q 650 565 656 565 q 639 565 644 565 q 628 565 634 565 q 611 564 621 564 l 611 564 q 597 564 601 564 q 584 563 592 564 l 584 563 q 577 508 582 531 q 563 458 571 484 l 563 458 q 517 273 544 360 q 455 116 489 186 l 455 116 q 394 56 423 82 q 329 18 365 29 l 329 18 z"},"K":{"ha":795,"x_min":9,"x_max":815,"o":"m 20 183 l 20 183 q 22 189 21 187 q 18 194 22 191 l 18 194 q 21 203 16 201 q 31 207 26 205 l 31 207 q 52 317 36 267 q 86 413 67 366 q 123 508 104 460 q 153 611 141 555 l 153 611 q 175 642 166 624 q 192 679 183 660 q 212 714 200 697 q 243 742 223 731 l 243 742 q 260 739 252 741 q 274 733 267 736 q 289 728 281 730 q 306 726 297 726 l 306 726 q 313 715 310 721 q 321 703 316 708 l 321 703 l 339 706 q 362 679 352 695 q 376 645 372 662 q 375 611 380 627 q 352 585 370 594 l 352 585 q 352 576 353 579 q 350 571 351 573 q 348 566 348 568 q 352 559 348 563 l 352 559 q 332 537 341 550 q 317 508 323 523 q 308 478 311 493 q 303 450 304 463 l 303 450 q 371 506 332 480 q 439 555 410 532 l 439 555 q 480 586 462 571 q 515 613 497 600 q 553 637 533 625 q 592 662 572 648 l 592 662 q 608 664 602 666 q 618 659 613 662 l 618 659 q 615 668 619 666 q 612 677 611 669 l 612 677 q 643 689 629 682 q 671 702 656 696 l 671 702 q 691 679 681 691 q 718 665 701 666 l 718 665 q 733 646 724 652 q 750 633 741 639 q 764 619 758 627 q 771 592 770 610 l 771 592 q 762 575 767 584 q 752 551 756 565 l 752 551 q 704 513 728 529 q 654 481 679 496 q 602 450 628 466 q 548 413 575 434 l 548 413 q 533 397 542 404 q 515 384 524 390 q 497 370 505 377 q 483 353 488 363 l 483 353 q 476 353 479 353 q 469 351 473 352 l 469 351 q 458 338 465 343 q 447 325 450 333 l 447 325 q 494 266 465 286 q 559 237 523 246 q 637 227 595 228 q 724 226 679 226 l 724 226 q 729 232 729 227 q 734 235 728 236 l 734 235 q 759 223 749 230 q 778 208 769 216 q 796 192 787 200 q 815 174 804 183 l 815 174 q 788 98 813 127 q 720 50 762 68 l 720 50 q 619 53 662 48 q 534 75 576 58 l 534 75 q 529 81 531 76 q 524 88 526 86 l 524 88 q 506 92 516 93 q 489 94 496 91 l 489 94 q 460 112 480 98 q 422 138 439 126 l 422 138 q 382 172 401 155 q 347 208 362 188 l 347 208 q 339 213 344 213 q 328 216 333 213 l 328 216 q 270 162 293 194 q 224 96 246 129 q 178 33 202 62 q 116 -13 153 3 l 116 -13 q 97 -9 105 -13 q 82 0 89 -6 q 68 10 75 5 q 52 17 61 15 l 52 17 q 47 44 52 31 q 36 67 41 56 q 28 87 30 77 q 33 107 25 97 l 33 107 q 12 122 22 116 l 12 122 q 19 135 19 129 q 15 147 18 141 q 11 160 12 153 q 14 174 9 166 l 14 174 q 18 178 18 175 q 20 183 17 181 z"},"L":{"ha":648,"x_min":9,"x_max":628,"o":"m 57 37 l 57 37 q 50 47 53 41 q 45 61 47 52 l 45 61 q 23 100 31 78 q 12 146 15 122 q 11 193 9 169 q 18 238 13 217 l 18 238 q 23 259 21 248 l 23 259 q 33 297 28 278 q 48 327 38 315 l 48 327 q 49 351 44 338 q 59 375 54 364 l 59 375 q 62 381 61 378 q 64 385 63 383 l 64 385 q 88 453 76 420 q 110 515 99 485 l 110 515 q 149 623 130 570 q 182 736 167 676 l 182 736 q 196 744 190 742 l 196 744 q 201 746 198 745 q 208 747 204 747 l 208 747 q 258 727 229 736 q 306 717 286 717 l 306 717 l 323 702 q 346 671 336 687 q 351 628 355 654 l 351 628 q 341 617 345 619 l 341 617 q 328 577 335 594 q 314 543 321 559 l 314 543 q 299 507 306 525 q 287 463 292 489 l 287 463 q 280 451 281 456 q 276 441 278 446 l 276 441 q 271 429 274 435 q 262 417 268 422 l 262 417 q 250 367 258 386 q 234 328 242 347 l 234 328 q 208 259 220 293 q 194 180 196 224 l 194 180 q 216 183 206 183 l 216 183 q 241 179 229 183 l 241 179 q 320 201 277 197 q 404 206 362 205 l 404 206 q 469 209 439 206 l 469 209 q 482 202 479 202 q 492 201 485 201 l 492 201 q 498 201 495 201 q 506 200 501 201 l 506 200 q 533 181 520 186 q 561 170 546 175 l 561 170 q 587 160 574 165 q 611 145 599 154 l 611 145 l 620 94 q 627 79 628 83 l 627 79 q 623 65 627 71 l 623 65 l 625 52 q 600 44 606 48 q 587 32 594 39 l 587 32 q 566 31 576 31 l 566 31 q 525 25 546 31 l 525 25 q 459 36 495 36 l 459 36 q 431 35 445 36 q 402 32 416 34 l 402 32 q 372 29 387 30 q 342 27 357 27 l 342 27 q 325 24 330 25 q 315 21 320 23 l 315 21 q 242 -1 281 10 q 162 -12 202 -12 l 162 -12 q 67 18 103 -12 l 67 18 q 61 30 63 27 q 57 37 59 33 z"},"M":{"ha":997,"x_min":5,"x_max":992,"o":"m 90 -14 l 90 -14 q 59 -11 80 -14 l 59 -11 q 31 36 43 6 q 12 99 18 65 q 6 166 5 132 q 17 225 6 199 l 17 225 q 27 249 17 226 q 51 308 36 272 q 85 387 66 343 q 123 472 104 430 q 160 549 142 514 q 190 602 177 583 l 190 602 q 207 629 199 616 q 221 653 214 642 l 221 653 q 242 687 232 671 q 263 715 251 702 q 288 737 274 727 q 322 753 302 746 l 322 753 q 343 743 334 748 q 359 729 352 737 l 359 729 l 362 715 q 369 706 364 708 q 376 703 373 703 l 376 703 q 399 697 389 700 q 419 692 408 693 l 419 692 q 427 680 423 686 q 434 669 430 674 l 434 669 q 467 613 454 640 q 467 554 480 586 l 467 554 l 468 543 q 473 530 473 536 q 471 513 473 524 l 471 513 q 470 496 470 505 q 472 475 469 486 l 472 475 l 479 467 q 510 459 495 459 l 510 459 q 546 468 530 459 q 576 486 562 477 l 576 486 q 597 499 587 494 q 615 506 606 504 l 615 506 q 654 542 636 526 q 690 573 671 557 l 690 573 q 760 636 726 602 q 814 719 794 669 l 814 719 q 839 726 825 726 l 839 726 q 867 721 853 726 q 895 708 881 715 l 895 708 q 901 705 898 706 q 906 702 903 704 l 906 702 q 915 682 906 691 l 915 682 q 922 677 920 678 q 926 675 924 676 l 926 675 q 940 666 934 670 q 948 655 945 662 l 948 655 q 978 613 957 628 l 978 613 q 979 592 976 602 q 986 571 982 581 l 986 571 q 989 564 988 567 q 992 555 990 560 l 992 555 l 970 557 l 973 535 q 971 497 976 518 q 958 464 965 476 l 958 464 q 960 417 960 434 q 958 384 960 399 q 952 356 956 369 q 940 327 947 342 l 940 327 q 923 188 944 251 q 876 70 901 125 l 876 70 q 870 57 873 63 q 865 45 867 51 l 865 45 q 845 38 854 42 q 828 29 836 34 l 828 29 q 806 18 817 22 q 783 13 795 13 l 783 13 q 734 134 735 48 q 770 353 732 220 l 770 353 q 776 368 777 358 l 776 368 l 776 379 l 766 380 q 757 379 761 380 q 751 370 753 378 l 751 370 q 682 323 719 347 q 604 278 644 298 q 523 244 564 257 q 442 230 481 230 l 442 230 q 291 332 342 230 l 291 332 l 282 350 l 272 334 q 262 315 269 329 q 247 281 254 300 q 234 242 239 262 q 230 207 228 222 l 230 207 q 207 182 218 196 q 190 150 195 168 l 190 150 q 189 141 188 145 q 192 131 190 136 l 192 131 q 188 121 191 124 q 181 115 185 118 l 181 115 q 171 105 176 110 q 162 92 166 99 l 162 92 q 159 80 160 86 q 157 68 158 73 l 157 68 q 154 53 157 57 l 154 53 q 137 19 144 32 q 122 -2 129 5 q 108 -11 115 -9 q 90 -14 100 -14 z"},"N":{"ha":701,"x_min":-15,"x_max":727,"o":"m 181 94 l 181 94 q 169 74 171 86 q 164 49 167 61 q 154 29 161 37 q 127 21 146 20 l 127 21 q 126 15 123 16 q 130 6 128 14 l 130 6 q 110 4 116 8 q 95 -2 104 0 l 95 -2 q 57 24 72 5 q 30 64 41 42 q 10 109 18 86 q -8 149 1 132 l -8 149 q -4 153 -8 153 q 2 152 -1 152 l 2 152 q -5 175 -3 162 q -15 195 -8 187 l -15 195 q 47 325 14 257 q 114 462 80 392 q 181 602 147 531 q 245 740 214 672 l 245 740 q 300 717 273 730 q 348 685 326 703 q 386 644 370 667 q 406 590 401 620 l 406 590 q 401 586 404 584 q 396 584 398 588 l 396 584 q 402 576 401 578 q 401 571 402 573 q 400 564 400 568 q 405 553 400 560 l 405 553 q 398 552 400 554 q 391 551 396 549 l 391 551 q 394 529 396 537 q 388 515 392 521 q 382 501 384 508 q 383 480 379 493 l 383 480 q 378 479 379 480 q 375 475 376 477 q 373 472 374 473 q 367 471 371 470 l 367 471 q 369 419 370 445 q 367 365 368 392 q 367 308 366 337 q 375 248 368 279 l 375 248 q 445 313 418 273 q 487 402 471 353 q 511 507 502 451 q 528 621 519 563 l 528 621 q 546 648 539 632 q 557 681 552 664 q 566 716 561 698 q 578 747 570 733 l 578 747 q 609 737 596 745 q 632 718 621 728 q 655 698 643 707 q 685 686 667 689 l 685 686 q 711 648 699 666 q 727 606 723 629 l 727 606 q 718 584 721 596 q 712 560 715 572 q 702 538 708 548 q 685 521 696 528 l 685 521 q 676 465 682 491 q 665 414 670 439 q 656 362 660 389 q 653 303 652 335 l 653 303 q 633 244 644 274 q 617 187 622 213 l 617 187 q 587 150 598 172 q 564 106 576 128 l 564 106 q 558 105 559 102 q 549 108 557 107 l 549 108 q 546 97 550 99 q 546 82 541 94 l 546 82 q 516 61 529 74 q 488 37 503 48 q 452 23 472 26 q 398 31 431 19 l 398 31 q 310 114 349 67 q 248 225 271 161 l 248 225 q 233 212 238 222 q 224 191 228 202 q 216 171 220 180 q 204 162 212 162 l 204 162 q 197 146 202 153 q 186 131 191 138 q 179 114 181 123 q 181 94 176 105 z"},"O":{"ha":762,"x_min":5,"x_max":727,"o":"m 241 -4 l 241 -4 q 161 0 197 -10 q 97 31 125 10 q 48 81 68 52 q 14 143 27 110 l 14 143 q 19 267 5 211 q 60 369 33 322 q 122 457 87 416 q 188 536 156 498 l 188 536 q 200 536 195 533 q 208 544 204 539 q 216 554 211 549 q 226 561 220 559 l 226 561 q 237 576 230 570 q 251 588 243 582 q 265 599 258 593 q 276 614 271 605 l 276 614 q 294 621 286 616 q 308 632 301 626 q 321 643 314 638 q 338 651 328 648 l 338 651 l 338 664 q 370 686 360 674 q 394 717 380 698 l 394 717 q 412 718 405 718 q 432 720 418 718 l 432 720 q 449 745 441 737 q 472 763 457 753 l 472 763 q 504 754 487 755 q 535 738 521 752 l 535 738 q 542 720 536 726 q 555 708 548 713 q 569 696 562 702 q 578 679 576 690 l 578 679 q 585 681 583 679 q 591 682 586 683 l 591 682 q 595 669 593 674 q 600 660 597 664 q 605 651 602 656 q 609 639 607 646 l 609 639 q 600 614 604 627 q 584 595 596 600 l 584 595 q 590 587 584 587 q 597 579 596 586 l 597 579 q 594 564 598 570 l 594 564 q 645 466 622 517 q 697 367 668 414 l 697 367 q 699 340 695 353 q 708 313 702 326 q 718 287 713 300 q 725 261 723 274 l 725 261 q 725 225 727 244 q 717 187 723 205 q 701 154 711 169 q 678 130 691 138 l 678 130 q 638 98 662 110 q 594 68 614 85 l 594 68 q 564 57 580 60 q 531 49 548 53 l 531 49 q 500 34 518 41 q 463 20 482 26 q 425 11 444 14 q 391 9 406 7 l 391 9 q 321 -9 355 -4 q 241 -4 287 -14 z m 254 360 l 254 360 q 231 319 244 337 q 204 281 217 300 q 182 241 191 262 q 171 190 172 219 l 171 190 q 219 170 191 173 q 275 169 246 166 q 333 176 304 171 q 385 181 362 181 l 385 181 q 393 190 385 190 l 393 190 q 471 214 435 194 q 546 253 507 233 l 546 253 q 559 274 551 265 q 568 300 567 283 l 568 300 q 562 315 563 309 q 560 333 560 321 l 560 333 q 515 412 534 369 q 471 492 496 454 l 471 492 q 463 482 469 487 q 450 484 457 477 l 450 484 q 441 471 447 474 q 428 467 435 467 q 413 470 420 467 q 399 478 405 473 l 399 478 q 330 424 364 450 q 267 363 295 398 l 267 363 q 261 361 262 360 q 254 360 260 362 z"},"P":{"ha":655,"x_min":36,"x_max":686,"o":"m 45 282 l 45 282 q 50 286 46 286 q 56 286 53 285 l 56 286 q 46 308 48 294 q 36 330 44 321 l 36 330 q 40 340 38 335 q 48 344 41 345 l 48 344 q 49 385 45 366 q 62 421 53 404 q 82 455 70 438 q 104 488 93 471 l 104 488 q 115 487 113 490 q 122 488 117 483 l 122 488 q 144 513 138 499 q 150 542 150 526 l 150 542 q 171 594 159 568 q 197 641 182 619 q 229 680 212 663 q 266 705 246 696 l 266 705 q 302 727 280 717 q 348 743 323 737 q 398 749 372 748 q 446 743 424 749 l 446 743 q 452 746 451 741 q 457 750 453 750 l 457 750 q 547 730 507 744 q 614 691 586 716 l 614 691 q 650 627 633 661 q 677 555 667 592 q 685 477 686 517 q 668 397 684 437 l 668 397 q 583 327 633 353 q 476 283 533 300 q 357 254 418 265 q 237 230 295 243 l 237 230 q 237 173 238 203 q 231 112 236 142 q 215 52 225 81 q 186 -2 204 23 l 186 -2 q 145 -6 166 -1 q 106 -16 123 -11 l 106 -16 q 91 -6 98 -11 q 72 -1 83 -2 l 72 -1 q 67 24 75 11 q 50 50 58 37 q 39 75 41 62 q 50 97 36 87 l 50 97 q 42 119 42 104 l 42 119 q 52 115 46 115 l 52 115 q 57 158 50 133 q 68 208 63 183 q 69 253 72 232 q 45 282 66 273 z m 305 516 l 305 516 q 299 497 301 505 q 293 481 296 488 q 287 467 290 474 q 279 451 283 460 l 279 451 q 287 442 281 445 q 295 433 293 439 l 295 433 q 323 444 309 440 q 351 449 337 447 q 379 454 365 451 q 408 464 393 457 l 408 464 q 440 476 423 471 q 472 485 456 480 q 503 497 488 490 q 529 514 518 503 l 529 514 q 487 537 515 527 q 427 550 459 547 q 362 545 394 552 q 305 516 329 538 z"},"Q":{"ha":762,"x_min":-5,"x_max":738,"o":"m 15 87 l 15 87 q 13 116 15 103 q 8 139 10 128 q 4 162 5 150 q 7 190 3 174 l 7 190 q 1 208 4 199 q -5 225 -2 216 l -5 225 q 13 307 -3 270 q 52 374 29 343 q 102 430 75 404 q 154 479 129 455 l 154 479 q 162 478 159 474 q 173 479 164 481 l 173 479 q 179 494 174 485 q 192 511 184 503 q 208 523 199 518 q 225 527 217 528 l 225 527 q 256 561 235 546 q 297 589 276 575 q 335 620 318 603 q 356 662 352 637 l 356 662 l 376 662 q 365 700 364 680 q 378 732 366 719 q 409 747 389 744 q 455 737 429 750 l 455 737 q 470 741 466 735 q 483 749 474 747 l 483 749 q 565 700 529 729 q 630 634 601 671 l 630 634 q 626 630 628 631 q 621 627 623 628 q 619 623 619 625 q 622 618 618 621 l 622 618 q 683 527 656 575 q 733 424 710 478 l 733 424 q 736 343 738 383 q 725 257 734 302 l 725 257 q 707 226 717 240 q 684 198 696 211 q 660 171 672 184 q 638 142 648 157 l 638 142 l 655 102 q 658 85 654 94 q 666 66 662 75 q 673 47 670 56 q 672 32 675 38 l 672 32 q 685 28 675 26 l 685 28 q 680 20 681 26 q 689 16 678 14 l 689 16 q 680 -9 687 5 q 662 -35 673 -23 q 636 -56 651 -48 q 601 -65 620 -65 l 601 -65 q 570 -45 581 -55 q 542 -21 558 -35 l 542 -21 l 505 66 q 349 13 432 33 q 173 -13 266 -8 l 173 -13 q 82 25 123 1 q 15 87 41 49 z m 272 351 l 272 351 q 193 267 228 315 q 135 162 157 219 l 135 162 q 157 156 144 157 q 181 152 170 155 l 181 152 q 299 183 238 168 q 415 219 359 197 l 415 219 q 372 273 392 247 q 339 325 351 299 l 339 325 q 345 339 342 331 q 351 355 347 347 q 362 369 355 363 q 381 375 369 375 l 381 375 q 424 367 399 368 q 468 362 448 366 l 468 362 q 503 328 488 348 q 533 287 518 307 l 533 287 q 571 332 555 307 q 595 387 587 356 l 595 387 q 580 423 589 403 q 560 462 571 443 q 534 496 548 481 q 502 516 519 511 l 502 516 q 492 514 494 518 q 479 512 489 509 l 479 512 q 371 436 425 473 q 272 351 317 398 z"},"R":{"ha":662,"x_min":10,"x_max":668,"o":"m 28 86 l 28 86 q 19 94 23 85 q 10 110 15 102 l 10 110 l 21 110 q 18 151 14 132 q 26 187 21 169 q 35 221 31 204 q 31 255 38 237 l 31 255 q 39 258 36 252 q 43 272 41 263 q 44 290 44 280 q 42 305 43 299 l 42 305 q 63 369 55 336 q 76 435 70 402 q 90 498 82 467 q 109 555 97 528 l 109 555 q 139 552 123 557 q 159 538 154 546 l 159 538 q 214 596 190 562 q 263 663 238 630 q 318 720 287 695 q 395 750 349 745 l 395 750 q 449 714 419 733 q 498 665 479 694 l 498 665 q 514 655 506 660 q 529 644 521 649 l 529 644 l 529 629 q 553 599 543 616 q 570 562 562 581 q 584 522 577 542 q 600 485 591 502 l 600 485 q 599 475 598 479 q 601 466 599 470 q 603 456 602 461 q 604 442 604 450 l 604 442 q 570 357 600 389 q 496 304 539 324 q 403 269 452 283 q 314 237 354 254 l 314 237 q 319 233 314 233 q 321 227 323 233 l 321 227 q 368 198 351 209 q 399 180 384 187 q 431 167 413 172 q 479 155 448 162 l 479 155 q 528 144 510 148 q 559 137 545 139 q 589 132 573 134 q 632 127 605 130 l 632 127 q 650 101 643 116 q 660 71 657 86 q 662 43 663 56 q 653 21 660 29 l 653 21 q 659 18 654 17 q 668 17 663 18 l 668 17 q 656 5 661 12 q 646 -9 651 -2 q 635 -22 641 -16 q 618 -29 628 -28 l 618 -29 q 526 -30 582 -43 q 383 16 470 -17 l 383 16 q 313 45 340 32 q 266 71 286 58 q 229 98 246 83 q 190 132 212 112 l 190 132 q 187 128 187 131 q 183 124 186 125 l 183 124 q 168 59 178 84 q 137 8 157 34 l 137 8 q 116 5 121 11 q 102 -6 110 -1 l 102 -6 q 87 -5 92 -8 q 78 0 82 -3 q 69 6 74 3 q 53 8 64 9 l 53 8 q 47 26 50 17 q 31 33 44 34 l 31 33 q 33 49 34 42 q 30 61 32 55 q 27 72 28 66 q 28 86 25 78 z m 362 543 l 362 543 q 333 509 349 524 q 302 477 317 493 q 274 441 286 460 q 257 394 262 421 l 257 394 q 345 418 299 399 q 432 453 391 436 l 432 453 q 406 513 427 490 q 362 543 385 535 z"},"S":{"ha":590,"x_min":10,"x_max":706,"o":"m 13 451 l 13 451 q 17 476 16 466 q 10 496 18 485 l 10 496 q 17 521 14 512 q 17 546 19 530 l 17 546 q 45 590 26 572 q 85 621 63 608 q 131 642 107 633 q 176 656 155 650 l 176 656 q 172 660 176 660 q 170 665 168 660 l 170 665 q 279 694 224 675 q 390 728 333 713 q 507 747 447 743 q 633 731 567 750 l 633 731 q 644 708 637 719 q 659 687 651 697 q 672 666 666 676 q 679 645 678 656 l 679 645 q 699 622 691 634 q 701 588 706 609 l 701 588 q 678 572 690 580 q 653 557 666 564 l 653 557 q 563 565 608 568 q 482 558 518 562 l 482 558 q 456 570 471 570 q 425 565 441 569 q 392 556 408 560 q 362 553 376 551 l 362 553 q 333 540 351 543 q 295 534 315 536 l 295 534 q 297 527 294 529 q 298 519 300 525 l 298 519 q 317 507 305 510 q 342 500 329 503 q 364 492 354 497 q 377 474 374 486 l 377 474 q 408 465 395 473 q 430 444 421 456 q 443 419 439 432 q 446 394 447 405 l 446 394 q 455 386 450 384 q 465 381 459 388 l 465 381 q 484 350 469 366 q 506 314 498 333 l 506 314 q 510 260 508 284 q 501 213 511 236 l 501 213 q 452 134 484 169 q 380 73 420 99 q 294 27 339 46 q 205 -6 249 7 l 205 -6 q 196 -6 201 -5 q 193 0 190 -7 l 193 0 q 173 -10 184 -8 q 148 -11 161 -12 q 121 -10 134 -11 q 94 -11 107 -9 l 94 -11 q 80 5 86 -3 q 69 24 73 13 l 69 24 q 65 31 64 25 q 60 36 65 36 l 60 36 q 61 42 60 40 q 63 46 62 44 l 63 46 q 67 51 67 49 q 64 54 66 52 q 59 57 61 55 q 57 62 56 59 l 57 62 q 61 84 62 71 q 58 109 59 96 q 60 134 57 122 q 77 153 63 145 l 77 153 q 155 157 118 149 q 224 179 191 165 q 286 210 256 193 q 343 240 315 226 l 343 240 q 353 257 346 250 q 366 271 359 264 q 379 285 373 277 q 388 303 385 292 l 388 303 q 388 309 389 307 q 385 313 387 311 q 381 316 383 314 q 379 322 379 318 l 379 322 q 374 324 376 323 q 369 325 371 325 l 369 325 q 314 347 343 338 q 265 367 285 356 l 265 367 q 241 363 253 359 q 212 371 229 367 l 212 371 q 133 379 170 373 q 60 400 95 385 l 60 400 q 55 411 58 406 q 41 413 52 415 l 41 413 q 27 432 34 423 q 13 451 19 440 z"},"T":{"ha":622,"x_min":0,"x_max":800,"o":"m 22 553 l 22 564 q 19 579 21 572 q 13 593 16 585 l 13 593 q 4 619 8 605 q 0 652 0 633 l 0 652 q 5 667 2 662 q 11 674 8 671 l 11 674 l 15 692 l 30 692 q 47 691 38 691 q 63 691 55 691 l 63 691 q 141 694 101 691 q 223 701 181 697 l 223 701 q 322 710 269 707 l 322 710 q 329 724 327 721 q 332 731 330 727 l 332 731 l 343 737 q 375 732 366 738 q 389 719 384 725 l 389 719 q 442 725 415 721 q 498 732 469 728 l 498 732 q 579 742 538 737 q 659 747 620 747 l 659 747 q 691 746 676 747 q 720 743 706 745 l 720 743 l 732 734 q 742 721 736 727 q 756 709 748 715 l 756 709 q 786 679 771 697 q 796 626 800 661 l 796 626 l 791 616 q 781 608 787 612 l 781 608 l 771 595 l 760 595 q 745 594 750 595 q 733 589 740 592 l 733 589 q 724 586 729 587 q 713 582 719 584 l 713 582 q 696 583 702 583 q 682 583 690 583 l 682 583 q 617 579 652 583 q 549 570 582 575 l 549 570 q 503 565 525 567 q 463 560 481 562 l 463 560 q 445 514 453 534 q 428 474 437 494 l 428 474 q 411 434 419 454 q 396 388 403 413 l 396 388 q 376 354 384 370 q 363 316 368 337 l 363 316 q 342 279 348 299 q 330 245 335 259 l 330 245 l 326 230 q 318 219 319 223 q 312 210 316 215 l 312 210 q 304 185 309 197 l 304 185 q 300 175 302 180 q 299 166 298 169 l 299 166 q 293 149 297 155 l 293 149 q 292 137 293 143 q 290 125 291 131 l 290 125 q 287 113 288 118 q 288 102 286 107 l 288 102 q 294 94 291 98 q 299 84 297 90 l 299 84 q 304 81 301 82 q 309 78 307 80 l 309 78 q 324 70 317 71 l 324 70 l 334 58 q 323 2 340 22 l 323 2 q 263 -21 305 -21 l 263 -21 l 249 -20 q 241 -11 242 -13 l 241 -11 q 226 -4 232 -7 q 215 5 220 -2 l 215 5 q 210 8 213 7 q 205 10 207 8 l 205 10 q 189 17 195 13 l 189 17 l 178 23 q 179 37 179 33 l 179 37 q 167 61 171 48 q 159 88 162 74 l 159 88 q 154 108 156 99 q 146 124 151 117 l 146 124 q 159 242 144 194 q 192 334 174 289 l 192 334 q 211 383 202 358 q 227 434 220 408 l 227 434 l 238 445 q 247 452 245 451 l 247 452 q 252 478 247 465 q 263 503 257 490 l 263 503 q 271 519 267 511 q 275 533 274 527 l 275 533 q 263 533 268 533 q 251 531 257 532 l 251 531 q 226 528 238 528 l 226 528 q 213 529 217 528 l 213 529 q 198 525 205 525 q 184 524 191 524 l 184 524 l 172 524 l 160 524 q 141 521 148 524 l 141 521 q 123 521 127 521 q 114 521 119 521 l 114 521 l 102 521 l 90 521 q 72 523 82 521 q 51 530 62 524 l 51 530 l 44 538 q 33 550 38 549 l 33 550 l 22 553 z"},"U":{"ha":712,"x_min":51,"x_max":738,"o":"m 70 490 l 72 495 q 67 511 70 508 l 67 511 q 78 547 74 529 q 83 580 81 564 l 83 580 q 88 606 85 594 q 94 629 90 618 l 94 629 q 120 644 111 633 q 133 662 128 654 l 133 662 q 157 657 151 663 q 169 637 162 651 l 169 637 q 183 614 174 626 q 210 594 192 601 l 210 594 q 217 573 213 583 q 226 552 221 563 l 226 552 q 243 509 235 531 q 252 466 251 486 l 252 466 q 234 413 240 443 q 226 353 227 383 q 227 294 224 322 q 237 247 230 266 l 237 247 l 243 231 l 265 233 q 330 254 301 242 q 384 281 359 265 q 432 318 409 297 q 480 366 455 338 l 480 366 q 523 430 504 394 q 555 503 542 465 q 574 579 567 541 q 583 650 581 617 l 583 650 q 604 679 602 659 l 604 679 l 601 692 q 599 702 598 697 q 601 710 599 706 l 601 710 q 635 744 609 733 l 635 744 q 669 718 653 732 q 697 690 684 704 l 697 690 q 705 644 699 663 q 718 606 711 624 l 718 606 q 731 573 725 589 q 738 534 736 557 l 738 534 q 724 478 728 504 q 715 422 719 451 l 715 422 l 713 411 q 678 348 695 380 q 649 291 660 315 l 649 291 q 639 277 643 285 q 630 261 634 269 l 630 261 q 625 251 628 258 q 618 241 621 244 l 618 241 l 594 250 l 588 219 l 572 215 l 560 201 q 512 134 537 161 q 455 86 486 107 q 384 47 423 65 q 293 7 344 28 l 293 7 q 259 11 273 10 q 230 12 244 11 l 230 12 q 203 13 216 12 q 173 16 190 14 l 173 16 q 162 29 169 25 q 149 33 155 33 l 149 33 q 119 61 129 43 q 98 101 109 79 l 98 101 q 88 125 93 113 q 74 148 82 137 l 74 148 l 94 154 l 68 184 q 62 190 65 187 q 55 197 58 193 l 55 197 l 55 216 q 52 368 51 298 q 70 490 52 437 l 70 490 z"},"V":{"ha":598,"x_min":66,"x_max":675,"o":"m 79 376 l 79 376 q 76 434 74 404 q 78 492 78 464 l 78 492 q 75 550 78 519 q 69 608 71 580 q 67 660 66 636 q 73 696 67 683 l 73 696 q 93 720 81 711 q 116 739 105 728 l 116 739 q 140 732 129 737 q 158 718 150 726 q 169 700 165 709 q 170 682 172 691 l 170 682 q 211 642 195 667 q 235 586 226 616 q 247 521 243 555 q 253 454 250 487 q 258 392 255 421 q 267 340 260 362 l 267 340 q 342 454 311 404 q 403 549 372 503 q 473 641 434 594 q 571 747 511 688 l 571 747 q 591 742 584 745 q 605 736 598 739 q 620 732 612 733 q 642 732 628 730 l 642 732 q 650 715 647 720 q 654 704 652 709 q 659 691 656 699 q 668 667 662 683 l 668 667 q 671 657 671 663 q 669 645 670 650 q 669 637 668 640 q 675 637 669 634 l 675 637 q 662 607 671 620 q 654 574 653 593 l 654 574 q 594 500 627 538 q 528 421 561 462 q 465 335 495 379 q 413 240 434 290 l 413 240 q 404 237 407 240 q 399 230 401 234 q 394 222 396 226 q 385 218 391 218 l 385 218 q 362 158 383 186 q 318 109 340 129 l 318 109 q 320 96 320 101 q 319 86 320 91 q 318 76 318 81 q 318 62 317 70 l 318 62 q 295 22 309 38 q 263 -2 280 6 q 228 -8 246 -10 q 194 4 210 -7 l 194 4 q 182 15 187 8 q 172 29 177 22 q 161 41 166 35 q 147 48 155 46 l 147 48 q 148 69 149 58 q 143 89 146 80 q 136 104 140 98 q 128 110 132 110 l 128 110 q 118 165 124 135 q 105 223 111 194 q 94 280 98 252 q 91 332 90 308 l 91 332 q 87 354 92 344 q 79 376 81 363 z"},"W":{"ha":1018,"x_min":20,"x_max":1069,"o":"m 78 71 l 78 71 q 68 92 73 82 q 58 110 63 102 l 58 110 q 37 153 46 134 q 20 197 28 172 l 20 197 q 31 254 23 214 q 48 342 38 294 q 70 438 58 389 q 93 522 81 487 l 93 522 q 118 588 104 553 q 148 653 131 623 q 183 703 164 682 q 224 728 202 724 l 224 728 q 237 716 230 720 q 250 709 244 711 l 250 709 q 283 669 267 685 q 321 636 299 652 l 321 636 q 304 570 315 606 q 280 496 292 533 q 255 425 267 459 q 236 365 243 390 l 236 365 q 224 319 230 345 l 224 319 q 214 266 219 297 q 203 198 208 235 l 203 198 q 235 214 217 202 q 267 239 252 226 l 267 239 q 302 271 285 254 l 302 271 q 341 313 325 294 q 371 353 357 332 q 399 398 384 373 q 433 456 413 422 l 433 456 q 471 518 451 485 q 510 581 490 551 q 549 637 530 611 q 584 676 568 662 l 584 676 q 610 653 595 665 q 641 636 624 641 l 641 636 q 655 617 648 625 q 667 600 661 608 l 667 600 q 682 580 675 589 q 693 560 688 571 l 693 560 q 690 539 692 552 q 684 511 687 526 q 678 479 681 495 q 671 448 674 463 l 671 448 q 656 380 661 403 q 649 344 651 357 q 647 322 647 331 q 646 297 646 313 l 646 297 q 648 273 646 285 l 648 273 q 653 251 650 262 q 662 229 655 239 l 662 229 l 710 266 q 749 309 730 281 q 785 372 767 336 q 819 449 802 407 q 853 534 836 490 l 853 534 q 878 598 865 566 q 903 658 890 629 q 929 710 916 686 q 953 749 941 733 l 953 749 q 1000 715 980 732 q 1034 678 1019 698 q 1057 631 1048 657 q 1069 568 1065 604 l 1069 568 q 1028 482 1047 526 q 990 393 1009 438 l 990 393 q 941 278 966 335 q 884 168 915 220 q 815 73 853 116 q 726 -1 776 29 l 726 -1 q 702 2 712 2 l 702 2 q 684 -1 691 2 q 670 -9 676 -4 l 670 -9 q 604 48 629 10 q 555 131 579 85 l 555 131 q 549 145 552 138 q 541 158 545 151 l 541 158 l 524 189 l 514 208 l 500 195 l 479 176 l 467 164 q 404 108 436 135 q 337 58 372 80 q 263 21 302 35 q 178 6 223 7 l 178 6 q 164 13 170 10 q 151 19 157 16 l 151 19 q 113 40 128 30 q 78 71 98 50 z"},"X":{"ha":638,"x_min":-24,"x_max":704,"o":"m 52 -34 l 52 -34 q -5 38 13 -5 q -10 122 -24 80 l -10 122 q 6 182 -8 153 q 39 236 19 210 q 81 285 58 262 q 124 328 104 308 l 124 328 q 138 349 128 340 q 160 367 148 358 q 183 385 171 375 q 201 408 194 395 l 201 408 q 188 436 197 422 q 168 464 179 450 q 145 492 157 478 q 123 521 133 506 l 123 521 q 116 524 122 526 q 106 525 109 522 l 106 525 q 100 560 108 541 q 77 591 91 578 l 77 591 q 87 622 82 603 q 84 663 91 641 l 84 663 q 87 682 83 673 q 94 699 90 691 q 100 715 98 707 q 99 730 102 722 l 99 730 q 127 729 114 732 q 150 721 139 725 q 170 713 160 716 q 188 714 179 710 l 188 714 q 188 706 186 708 q 192 702 189 703 q 197 699 194 700 q 199 694 199 698 l 199 694 q 241 668 218 688 q 284 624 263 648 q 322 577 305 600 q 347 540 339 553 l 347 540 q 410 583 376 558 q 479 634 443 608 q 551 684 514 660 q 622 721 587 707 l 622 721 q 654 698 642 712 q 673 669 665 684 q 687 638 680 653 q 704 610 693 622 l 704 610 q 683 577 694 590 q 667 544 672 563 l 667 544 q 607 512 642 534 l 607 512 q 531 460 577 493 q 422 373 485 427 l 422 373 q 447 341 437 356 q 462 315 456 326 l 462 315 q 473 291 469 302 l 473 291 q 491 272 484 283 q 505 250 498 261 q 519 228 511 238 q 540 212 527 218 l 540 212 q 550 179 544 194 q 562 148 556 163 q 571 119 567 133 q 573 89 574 104 l 573 89 q 549 44 565 62 q 526 7 533 26 l 526 7 q 505 1 515 4 q 487 -10 494 -3 l 487 -10 l 419 38 q 367 153 401 98 q 301 248 333 208 l 301 248 q 209 166 253 211 q 129 70 165 121 l 129 70 q 123 29 127 45 q 110 1 119 12 q 87 -18 101 -10 q 52 -34 73 -26 z"},"Y":{"ha":505,"x_min":42,"x_max":618,"o":"m 166 -27 l 149 -33 q 42 60 61 -21 l 42 60 l 43 71 q 52 98 47 83 l 52 98 q 63 132 57 115 q 83 161 69 148 l 83 161 q 95 189 86 170 q 123 244 103 207 l 123 244 q 149 290 139 273 q 164 316 158 307 l 164 316 q 136 351 154 334 l 136 351 q 109 409 120 381 q 91 458 97 436 l 91 458 q 83 507 90 482 l 83 507 q 77 533 80 520 q 74 560 74 546 l 74 560 q 67 578 70 567 l 67 578 l 69 590 q 72 612 74 598 q 65 639 69 625 l 65 639 q 60 667 62 652 q 58 695 57 681 q 66 722 59 709 q 88 744 72 735 l 88 744 l 98 751 l 108 745 q 129 733 119 738 q 149 723 139 728 l 149 723 q 173 711 161 717 q 199 696 185 704 l 199 696 l 209 689 l 208 678 q 209 673 208 676 q 212 668 210 670 l 212 668 l 223 665 l 224 651 l 224 639 q 225 627 224 630 q 229 619 226 623 l 229 619 l 234 606 q 237 574 234 588 q 244 546 240 560 l 244 546 q 252 518 249 532 q 253 486 255 503 l 253 486 q 265 495 259 489 l 265 495 q 270 499 267 497 q 275 503 272 501 l 275 503 l 345 598 l 343 610 l 368 634 q 387 651 378 642 q 402 670 396 659 l 402 670 l 408 679 q 524 753 453 739 l 524 753 l 541 757 l 546 741 q 566 717 551 727 q 597 696 580 706 l 597 696 l 608 689 q 614 671 614 677 q 613 661 614 665 l 613 661 l 618 648 q 594 607 607 619 q 567 583 581 594 l 567 583 q 547 565 556 574 q 533 545 538 556 l 533 545 l 525 535 q 493 497 500 522 l 493 497 l 489 483 l 474 483 q 469 479 473 483 q 457 457 465 474 l 457 457 q 445 442 448 445 q 439 436 441 438 l 439 436 q 436 427 437 431 q 432 417 434 423 l 432 417 l 426 409 q 413 394 417 401 q 404 376 409 386 l 404 376 q 395 358 400 367 q 381 339 390 348 l 381 339 l 383 328 l 375 321 q 361 304 367 314 q 349 282 355 293 l 349 282 q 336 258 343 270 q 318 236 329 246 l 318 236 q 306 208 311 218 q 287 184 300 198 l 287 184 q 230 81 275 136 l 230 81 q 224 60 229 70 q 212 40 218 49 l 212 40 q 208 32 210 36 q 204 25 205 27 l 204 25 l 201 14 q 189 -4 195 3 q 176 -17 182 -11 l 176 -17 q 171 -22 173 -19 q 166 -27 168 -25 l 166 -27 z"},"Z":{"ha":680,"x_min":-11,"x_max":715,"o":"m -8 88 l -8 88 q -9 142 -11 118 q -2 188 -8 166 q 13 230 3 210 q 34 273 22 250 l 34 273 q 59 287 48 278 q 80 303 70 295 l 80 303 q 100 319 90 312 q 118 326 109 325 l 118 326 l 128 332 q 177 375 148 355 q 237 412 206 394 l 237 412 q 288 443 263 427 q 334 478 313 458 l 334 478 q 351 482 344 477 l 351 482 q 355 497 356 489 l 355 497 q 361 502 358 499 q 366 506 363 504 l 366 506 q 389 521 374 513 q 408 541 403 528 l 408 541 l 434 566 l 398 565 q 341 562 371 565 q 288 557 310 559 l 288 557 q 252 554 270 555 q 210 552 233 553 l 210 552 q 178 583 191 564 q 157 624 164 602 q 148 670 149 646 q 154 716 147 694 l 154 716 q 169 721 162 718 q 181 726 175 723 l 181 726 q 196 726 192 727 q 204 725 199 725 l 204 725 q 302 735 264 735 l 302 735 q 378 725 344 735 l 378 725 q 464 728 420 725 q 552 723 507 731 l 552 723 q 616 729 584 733 q 671 700 648 724 l 671 700 q 682 670 673 680 q 706 654 691 659 l 706 654 q 708 593 715 619 q 682 547 700 567 q 639 510 664 526 q 590 479 614 494 l 590 479 q 573 461 583 468 q 554 446 563 454 l 554 446 q 464 358 515 394 q 359 286 412 321 l 359 286 q 284 234 321 260 q 211 178 246 208 l 211 178 l 198 167 l 209 155 q 243 141 223 141 l 243 141 q 265 144 254 141 q 284 151 275 147 l 284 151 q 301 157 293 154 q 313 159 308 159 l 313 159 l 324 157 q 349 169 339 165 q 368 175 358 172 l 368 175 q 386 180 376 177 q 404 188 395 183 l 404 188 q 454 196 430 188 q 501 212 478 203 l 501 212 q 529 222 515 217 q 556 231 542 227 l 556 231 q 568 220 561 224 q 580 212 574 215 l 580 212 q 593 204 589 207 q 598 194 597 200 l 598 194 l 602 161 l 623 184 q 639 156 638 170 q 636 118 640 141 l 636 118 q 540 57 597 79 q 418 16 482 35 l 418 16 q 391 9 404 12 q 364 0 378 5 l 364 0 l 365 21 l 339 4 q 331 -3 334 0 q 325 -11 328 -7 l 325 -11 q 274 -22 294 -18 q 235 -30 253 -26 l 235 -30 q 198 -38 215 -35 q 159 -41 180 -41 l 159 -41 q 146 -40 152 -41 q 132 -39 139 -40 l 132 -39 q 118 -35 126 -37 l 118 -35 l 104 -9 l 85 -23 q 60 -4 74 -14 l 60 -4 q 38 16 48 6 q 27 36 28 26 l 27 36 l 26 48 l 14 51 q 10 61 12 53 l 10 61 q 4 75 8 67 q -8 88 0 83 z"},"[":{"ha":397,"x_min":-31,"x_max":726,"o":"m 417 -32 l 417 -32 q 440 -46 435 -37 q 443 -66 445 -55 q 434 -88 441 -77 q 420 -109 426 -100 l 420 -109 q 403 -113 410 -107 q 389 -127 395 -119 l 389 -127 q 334 -126 361 -123 q 284 -132 307 -129 l 284 -132 q 281 -136 280 -132 q 278 -142 281 -141 l 278 -142 q 217 -134 248 -132 q 154 -144 186 -137 q 88 -159 122 -151 q 20 -169 54 -168 l 20 -169 q -1 -146 7 -160 q -14 -117 -9 -133 q -23 -85 -20 -102 q -31 -54 -27 -69 l -31 -54 q -26 -36 -31 -43 q -17 -25 -22 -30 l -17 -25 q 18 92 -3 33 q 52 206 38 150 l 52 206 q 78 298 65 255 q 101 380 90 340 q 123 458 112 419 q 144 539 134 497 l 144 539 q 162 604 153 573 q 178 666 170 635 q 193 731 185 697 q 207 805 200 764 l 207 805 q 206 825 205 818 q 205 838 206 831 l 205 838 q 194 863 202 855 l 194 863 q 206 876 202 865 q 206 892 209 887 l 206 892 q 241 899 222 897 q 277 902 259 900 q 311 906 295 903 q 339 915 327 908 l 339 915 q 443 920 389 917 q 543 924 497 922 l 543 924 q 583 919 560 919 q 628 915 606 918 q 668 903 650 912 q 693 869 686 893 l 693 869 q 715 862 708 867 q 724 848 721 856 q 725 830 726 839 q 724 810 724 820 l 724 810 q 682 790 707 797 q 626 779 656 783 q 563 773 596 775 q 500 771 530 771 q 443 769 469 770 q 398 766 416 768 l 398 766 q 372 763 384 764 q 348 759 359 761 l 348 759 q 326 664 338 714 q 302 563 314 613 q 277 464 289 512 q 255 377 265 416 q 239 309 245 337 q 232 269 233 280 l 232 269 q 207 189 217 222 q 188 126 196 155 q 171 67 179 96 q 149 -1 162 38 l 149 -1 q 197 5 166 2 l 197 5 q 266 9 223 7 q 374 11 308 11 l 374 11 q 383 -3 376 1 q 398 -11 390 -8 q 411 -18 405 -14 q 417 -32 417 -22 z"},"\\":{"ha":361,"x_min":61,"x_max":299,"o":"m 286 134 l 286 134 q 282 110 281 121 q 287 87 283 98 q 295 66 291 76 q 299 46 299 56 l 299 46 q 291 30 294 38 q 285 14 288 22 q 278 -3 282 5 q 264 -19 273 -12 l 264 -19 q 231 -21 244 -22 q 199 -21 217 -20 l 199 -21 q 170 8 180 -11 q 156 48 160 26 q 151 91 151 69 q 153 129 151 112 l 153 129 q 152 139 162 137 l 152 139 q 151 164 152 146 q 146 204 149 182 q 140 248 143 225 q 134 289 137 271 l 134 289 q 122 337 126 304 q 113 406 117 370 q 103 472 108 441 q 87 513 97 502 l 87 513 q 81 570 89 535 q 67 642 73 605 q 62 712 61 679 q 81 761 62 744 l 81 761 q 145 726 118 749 q 199 667 172 703 l 199 667 q 204 628 201 653 q 211 572 207 602 q 219 508 215 541 q 228 445 223 474 q 237 392 232 415 q 246 357 241 368 l 246 357 q 254 310 247 336 q 266 255 260 283 q 275 198 272 226 q 272 147 278 170 l 272 147 q 279 140 274 142 q 286 134 283 138 z"},"]":{"ha":413,"x_min":-287,"x_max":424,"o":"m 395 876 l 395 876 q 414 869 408 874 q 422 855 420 863 q 423 837 424 846 q 422 817 422 827 l 422 817 q 400 723 412 776 q 374 610 388 669 q 343 490 359 550 q 314 377 327 429 q 291 287 300 325 q 281 235 282 249 l 281 235 q 254 149 264 184 q 234 83 243 114 q 214 18 224 51 q 188 -62 204 -16 l 188 -62 q 179 -86 186 -74 q 164 -109 171 -99 l 164 -109 q 147 -113 154 -107 q 133 -127 139 -119 l 133 -127 q 78 -126 105 -123 q 28 -132 51 -129 l 28 -132 q 25 -136 24 -132 q 22 -142 25 -141 l 22 -142 q -39 -134 -8 -132 q -102 -144 -70 -137 q -168 -159 -134 -151 q -236 -169 -202 -168 l -236 -169 q -257 -146 -249 -160 q -270 -117 -265 -133 q -279 -85 -276 -102 q -287 -54 -283 -69 l -287 -54 q -281 -34 -287 -40 q -269 -21 -275 -28 l -269 -21 q -227 -17 -246 -20 q -192 -12 -209 -15 q -157 -7 -175 -10 q -119 -5 -140 -5 l -119 -5 q -94 2 -113 -1 q -52 6 -76 4 q -1 9 -28 8 q 50 10 26 10 l 50 10 q 76 93 62 52 q 101 173 90 133 l 101 173 q 127 264 113 222 q 153 345 140 305 q 176 423 165 384 q 192 505 186 462 l 192 505 q 211 571 202 541 q 228 630 220 600 q 244 693 236 659 q 259 772 251 727 l 259 772 q 187 776 221 776 q 133 772 153 775 l 133 772 q 59 758 85 764 q 23 746 33 751 l 23 746 q -3 754 6 747 q -19 770 -13 760 q -29 792 -25 780 q -40 817 -34 804 l -40 817 q -38 843 -37 826 q -48 867 -40 859 l -48 867 q -38 881 -42 869 q -38 897 -35 892 l -38 897 q -7 904 -23 902 q 25 907 9 905 q 56 911 41 908 q 81 920 70 913 l 81 920 q 173 925 125 922 q 262 930 220 928 l 262 930 q 297 925 277 925 q 337 921 317 924 q 373 909 357 918 q 395 876 389 900 z"},"^":{"ha":531,"x_min":0,"x_max":469,"o":"m 460 464 l 460 464 q 462 420 463 443 q 460 375 460 396 l 460 375 q 463 331 460 354 q 467 285 465 307 q 469 245 469 263 q 464 217 469 227 l 464 217 q 449 199 458 206 q 431 184 439 192 l 431 184 q 399 201 411 186 q 389 228 387 215 l 389 228 q 348 280 360 246 q 331 352 335 313 q 324 429 326 391 q 314 492 322 466 l 314 492 q 257 404 280 442 q 210 331 234 366 q 157 260 186 296 q 80 178 127 223 l 80 178 q 65 182 70 179 q 54 187 59 184 q 43 190 49 189 q 26 190 37 191 l 26 190 q 20 203 22 199 q 17 211 18 207 q 13 222 15 215 q 5 240 10 228 l 5 240 q 4 248 3 243 q 5 256 4 252 q 5 262 5 260 q 0 262 4 264 l 0 262 q 10 286 3 275 q 16 311 17 297 l 16 311 q 63 369 37 339 q 114 430 88 398 q 162 496 139 461 q 202 569 185 530 l 202 569 q 209 572 206 569 q 213 577 211 574 q 217 583 215 580 q 223 586 219 586 l 223 586 q 242 633 225 611 q 275 670 258 655 l 275 670 q 275 688 272 682 q 276 706 277 694 l 276 706 q 318 756 290 743 q 371 751 345 768 l 371 751 q 389 732 382 743 q 407 717 395 720 l 407 717 q 410 686 405 701 q 422 669 415 670 l 422 669 q 430 627 425 649 q 440 583 435 605 q 448 538 445 560 q 450 498 451 516 l 450 498 q 454 482 450 489 q 460 464 458 474 z"},"_":{"ha":726,"x_min":-108,"x_max":722,"o":"m 670 70 l 670 70 q 704 63 693 68 q 718 51 714 58 q 721 34 722 43 q 720 16 720 25 l 720 16 q 655 -1 694 5 q 568 -10 615 -7 q 470 -13 521 -13 q 371 -14 419 -14 q 282 -14 323 -14 q 214 -15 241 -14 l 214 -15 q 85 -25 131 -20 q 22 -35 39 -30 l 22 -35 q -25 -28 -8 -34 q -54 -13 -43 -22 q -73 8 -65 -4 q -92 31 -81 19 l -92 31 q -89 54 -86 39 q -108 76 -93 69 l -108 76 q -90 88 -96 78 q -89 103 -84 98 l -89 103 q -35 108 -64 107 q 21 110 -7 109 q 74 113 49 110 q 118 121 99 115 l 118 121 q 279 122 195 121 q 436 124 363 122 l 436 124 q 498 118 462 119 q 568 114 533 117 q 631 101 602 110 q 670 70 659 92 z"},"`":{"ha":773,"x_min":297,"x_max":601,"o":"m 306 624 l 306 624 q 298 647 298 636 q 300 669 297 658 q 309 692 303 680 q 321 717 315 703 l 321 717 q 339 732 329 721 q 350 753 349 742 l 350 753 q 365 756 355 750 q 376 767 374 761 l 376 767 q 397 752 387 761 q 415 733 406 742 q 433 717 424 724 q 453 707 442 709 l 453 707 q 505 654 477 680 q 555 602 532 627 l 555 602 q 570 581 559 588 q 589 566 580 574 q 599 547 597 558 q 588 515 601 536 l 588 515 q 593 497 594 505 q 588 482 592 489 q 576 468 583 475 q 562 454 569 461 l 562 454 q 512 469 538 455 q 462 502 486 483 q 416 540 437 520 q 380 572 395 559 l 380 572 q 333 610 351 598 q 306 624 314 622 z"},"a":{"ha":595,"x_min":-26,"x_max":600,"o":"m 531 88 l 529 84 q 512 50 523 67 q 485 19 500 32 q 450 -4 469 5 q 410 -14 431 -13 l 410 -14 q 393 -7 397 -11 q 383 -1 388 -4 l 383 -1 q 378 3 380 1 q 373 5 375 4 l 373 5 l 361 10 l 365 23 q 364 36 367 31 q 352 48 361 40 l 352 48 q 346 54 349 51 q 341 60 343 57 l 341 60 l 324 79 l 351 86 q 385 104 376 93 q 391 141 393 115 l 391 141 q 358 142 371 145 q 330 135 344 139 l 330 135 q 294 127 312 130 q 253 123 275 123 l 253 123 q 238 124 245 123 q 223 125 231 124 l 223 125 l 213 127 q 209 140 211 138 q 205 143 207 141 l 205 143 q 195 157 200 148 q 192 178 189 165 l 192 178 q 186 196 187 187 l 186 196 q 177 171 180 184 l 177 171 l 173 161 l 163 159 q 160 155 161 158 q 159 149 159 151 l 159 149 l 154 132 q 150 129 152 130 q 146 125 148 127 l 146 125 q 141 107 144 116 q 135 90 138 98 l 135 90 q 127 65 130 77 q 124 40 123 52 l 124 40 l 120 29 q 109 20 115 23 q 97 13 103 16 l 97 13 q 92 10 95 11 q 86 7 88 8 l 86 7 l 83 -4 l 71 -6 q 56 -9 60 -8 q 45 -10 51 -10 l 45 -10 l 35 -9 q 18 6 24 0 q 4 16 12 11 l 4 16 q -6 34 -5 28 q -8 45 -7 40 l -8 45 q -10 55 -10 51 q -13 61 -11 59 l -13 61 l -26 73 l -15 82 l -14 99 q 29 197 6 150 q 75 293 51 244 l 75 293 q 91 325 83 309 q 106 357 98 341 l 106 357 q 105 364 105 360 q 107 373 105 368 l 107 373 q 125 404 118 390 q 139 431 132 417 l 139 431 q 156 464 147 448 q 177 497 164 480 l 177 497 l 193 504 q 200 507 196 505 q 209 508 204 508 l 209 508 l 224 506 q 273 543 252 519 q 316 599 294 566 l 316 599 l 326 613 l 339 605 q 353 600 344 602 q 372 594 362 597 l 372 594 q 406 585 390 590 q 432 570 422 580 l 432 570 q 439 546 438 554 q 442 530 440 538 l 442 530 q 448 496 445 513 q 451 458 450 479 l 451 458 q 460 425 456 441 q 466 391 463 408 l 466 391 q 476 345 471 367 q 489 302 481 322 l 489 302 q 499 301 497 302 l 499 301 q 510 304 504 303 q 522 306 515 305 l 522 306 l 533 307 l 537 297 q 547 287 538 292 l 547 287 q 566 282 560 286 q 577 272 572 277 l 577 272 q 585 266 581 268 l 585 266 l 600 260 l 592 245 q 564 211 582 227 q 522 183 545 194 l 522 183 q 524 172 523 177 q 526 160 524 166 l 526 160 q 531 125 529 143 q 531 88 533 107 l 531 88 z m 240 257 l 240 257 q 295 262 270 259 q 349 270 319 264 l 349 270 q 334 333 342 300 q 317 397 326 365 l 317 397 l 311 387 q 273 340 291 366 q 241 291 254 314 l 241 291 q 229 273 235 282 q 218 255 223 264 l 218 255 q 230 256 224 256 q 240 257 235 256 z"},"b":{"ha":587,"x_min":-31,"x_max":557,"o":"m 549 163 l 549 163 q 556 153 555 160 q 556 142 557 146 l 556 142 q 531 110 538 119 q 521 97 524 101 q 515 89 518 92 q 499 76 511 86 l 499 76 q 407 28 454 49 q 307 -1 359 7 l 307 -1 q 277 -16 299 -12 q 235 -25 254 -21 l 235 -25 q 231 -19 231 -23 q 226 -14 230 -16 l 226 -14 q 217 -24 225 -24 q 198 -20 209 -25 q 174 -8 186 -16 q 152 5 161 -1 l 152 5 q 142 -11 147 -3 q 128 -22 136 -19 l 128 -22 q 112 -19 117 -20 q 101 -23 106 -18 l 101 -23 q 92 -16 95 -20 q 85 -8 88 -12 q 77 -2 81 -5 q 64 3 72 1 l 64 3 q 62 16 66 7 q 50 26 58 24 l 50 26 q 47 44 54 33 q 35 67 39 54 l 35 67 q 38 91 37 78 q 50 106 39 104 l 50 106 q 47 118 49 113 q 43 128 45 123 l 43 128 q 53 143 50 134 q 58 160 56 151 q 63 178 60 169 q 74 193 66 187 l 74 193 q 88 238 83 223 q 96 266 93 252 q 102 296 98 280 q 114 336 105 312 l 114 336 q 117 363 113 351 q 126 386 121 374 q 133 410 130 397 q 132 439 136 422 l 132 439 q 112 430 118 438 q 104 407 106 421 l 104 407 q 85 400 96 399 q 64 397 73 400 l 64 397 q 6 437 29 411 q -31 498 -17 463 l -31 498 q -4 537 -22 521 q 37 563 14 552 q 86 580 60 573 q 136 592 112 586 l 136 592 q 214 608 175 599 q 298 614 253 617 l 298 614 q 313 618 304 617 q 330 618 321 618 q 348 619 339 618 q 362 622 356 619 l 362 622 q 377 615 367 616 q 397 605 386 613 l 397 605 q 418 609 409 614 q 433 598 426 604 q 447 587 440 592 q 460 582 453 582 l 460 582 q 478 565 467 573 q 498 549 488 557 q 514 530 507 540 q 520 507 520 520 l 520 507 q 523 501 519 502 q 529 497 527 500 l 529 497 q 520 444 530 466 q 494 402 509 421 q 460 366 478 383 q 426 330 441 349 l 426 330 q 449 307 436 317 q 476 287 462 297 q 501 266 489 277 q 521 240 513 255 l 521 240 q 526 237 523 238 q 532 233 529 235 l 532 233 q 540 213 535 223 q 549 193 545 202 q 553 176 552 183 q 549 163 554 168 z m 373 497 l 373 497 q 272 488 322 499 q 187 457 221 477 l 187 457 q 222 432 204 443 q 249 402 239 421 l 249 402 q 318 443 288 418 q 373 497 348 467 z m 386 178 l 386 178 q 397 194 389 188 q 413 206 405 200 q 427 218 421 211 q 432 236 433 224 l 432 236 q 374 257 400 253 q 324 257 347 260 q 279 246 300 253 q 235 236 257 239 l 235 236 q 212 173 224 207 q 189 107 200 139 l 189 107 q 244 120 219 111 q 293 138 269 128 q 339 159 316 148 q 386 178 361 169 z"},"c":{"ha":526,"x_min":-1,"x_max":509,"o":"m 416 -2 l 416 -2 q 377 -1 400 -3 q 333 -8 353 1 l 333 -8 q 225 5 280 -6 q 124 32 170 16 l 124 32 q 104 53 114 43 q 77 66 94 62 l 77 66 q 38 113 53 85 q 14 171 23 140 q 2 235 5 202 q 0 297 -1 267 l 0 297 q 43 375 15 342 q 99 439 70 407 l 99 439 q 119 452 112 445 q 133 464 125 458 q 148 475 140 469 q 161 488 155 480 l 161 488 q 198 503 182 493 q 228 523 213 512 q 259 542 243 533 q 296 556 275 551 l 296 556 q 315 571 304 565 q 338 582 326 576 q 360 593 349 587 q 376 609 370 599 l 376 609 q 390 604 381 601 q 407 609 399 606 l 407 609 q 416 607 412 610 q 422 601 419 604 q 428 598 425 598 q 432 602 430 597 l 432 602 q 435 597 437 602 q 432 590 433 592 l 432 590 q 446 587 440 591 q 463 581 451 582 l 463 581 q 465 574 467 576 q 463 565 463 571 l 463 565 q 501 537 493 556 q 502 496 509 517 q 477 457 495 475 q 438 433 459 439 l 438 433 q 348 405 390 420 q 278 359 305 389 l 278 359 q 236 341 254 352 q 201 315 217 329 q 170 285 184 300 q 139 254 155 269 l 139 254 q 135 233 140 240 q 124 217 129 225 l 124 217 q 131 191 126 202 q 142 168 136 179 l 142 168 q 283 143 208 148 q 432 137 357 138 l 432 137 q 449 119 439 127 q 466 101 458 110 q 479 80 474 91 q 481 51 484 68 l 481 51 q 450 24 467 36 q 416 -2 433 11 z"},"d":{"ha":509,"x_min":15,"x_max":493,"o":"m 493 270 l 493 270 q 491 262 492 265 q 489 255 490 258 q 488 248 488 252 q 488 236 488 243 l 488 236 q 413 147 458 183 q 313 84 367 111 q 199 34 258 56 q 84 -15 140 11 l 84 -15 q 48 5 60 -9 q 29 38 35 19 q 20 79 22 56 q 15 125 17 101 l 15 125 q 24 144 18 136 q 29 165 29 151 l 29 165 q 45 216 37 191 q 55 267 53 241 l 55 267 q 66 278 58 275 l 66 278 q 67 376 71 326 q 50 468 62 425 l 50 468 q 53 483 51 478 q 52 489 54 487 l 52 489 q 58 497 51 497 q 71 497 64 497 l 71 497 q 66 527 71 512 q 55 561 60 542 l 55 561 q 64 591 62 576 q 73 616 66 605 l 73 616 q 177 575 127 599 q 274 540 226 551 l 274 540 q 348 489 310 514 q 417 433 386 463 q 469 363 448 402 q 493 270 490 324 z m 256 215 l 256 215 q 298 232 277 223 q 336 253 318 241 q 367 279 353 264 q 390 315 381 294 l 390 315 q 374 337 384 327 q 354 355 364 346 q 335 372 344 363 q 319 394 325 381 l 319 394 q 296 402 306 396 q 277 413 286 407 q 257 423 267 418 q 232 429 246 428 l 232 429 q 193 445 210 440 q 166 458 175 450 l 166 458 q 155 455 159 458 l 155 455 q 170 384 165 417 q 176 317 175 350 q 172 248 176 283 q 161 172 168 213 l 161 172 q 180 177 171 173 q 197 184 188 180 q 215 192 205 188 q 237 196 224 195 l 237 196 q 246 206 240 202 q 256 215 251 210 z"},"e":{"ha":534,"x_min":9,"x_max":559,"o":"m 558 563 l 558 563 q 559 553 559 556 q 558 546 558 549 q 557 540 557 543 q 559 529 557 536 l 559 529 q 511 483 538 495 q 451 465 483 470 q 386 453 419 459 q 319 427 352 447 l 319 427 q 296 427 306 432 q 265 424 285 422 l 265 424 q 250 416 259 418 q 232 410 241 413 l 232 410 q 236 392 236 401 q 238 376 235 382 l 238 376 q 316 377 273 373 q 399 382 358 381 l 399 382 q 398 376 400 377 q 397 370 396 374 l 397 370 q 411 358 404 365 q 425 343 418 350 q 440 332 432 336 q 457 328 447 327 l 457 328 q 463 311 461 320 q 460 291 464 301 l 460 291 q 428 269 444 280 q 395 248 412 257 q 358 234 377 239 q 314 229 338 228 l 314 229 q 307 229 309 229 q 300 232 304 229 l 300 232 q 278 229 292 227 q 255 226 263 231 l 255 226 q 229 231 244 231 q 201 234 213 230 l 201 234 q 172 189 185 213 q 149 138 159 165 l 149 138 q 206 134 183 133 q 248 138 228 135 q 289 143 268 140 q 342 144 310 145 l 342 144 q 390 159 362 155 q 440 170 417 162 l 440 170 q 454 160 448 167 q 466 146 460 152 q 477 134 471 139 q 492 130 483 129 l 492 130 q 498 121 496 126 q 500 110 499 115 q 504 102 501 105 q 512 99 506 98 l 512 99 q 478 49 497 66 q 433 22 458 31 q 378 8 408 13 q 310 -4 347 3 l 310 -4 q 295 -3 301 -6 q 281 -1 289 -1 l 281 -1 q 226 -10 258 -6 q 161 -13 194 -14 q 98 -4 128 -12 q 49 22 68 3 l 49 22 q 39 39 41 29 q 25 53 36 48 l 25 53 q 21 82 24 66 q 15 116 18 98 q 11 150 12 133 q 12 181 9 167 l 12 181 q 25 208 15 196 q 31 234 34 220 l 31 234 q 37 240 36 235 q 45 243 38 244 l 45 243 q 58 277 51 261 q 73 308 65 293 q 88 339 80 323 q 102 373 95 354 l 102 373 q 82 402 88 386 q 72 433 75 417 q 67 465 69 448 q 60 498 65 481 l 60 498 q 85 523 70 513 q 116 538 99 532 q 153 548 133 544 q 195 557 173 552 l 195 557 q 267 577 235 570 q 329 589 298 584 q 392 597 359 593 q 467 609 425 601 l 467 609 q 484 600 476 600 l 484 600 q 494 606 488 609 q 498 611 499 602 l 498 611 q 524 583 508 594 q 558 563 539 571 z"},"f":{"ha":466,"x_min":-20,"x_max":608,"o":"m 140 34 l 140 34 q 106 -13 134 0 l 106 -13 q 87 -12 93 -14 q 73 -7 80 -10 l 73 -7 q 57 -2 64 -3 l 57 -2 l 46 6 q 41 16 44 11 q 34 26 38 21 l 34 26 q 18 51 26 36 l 18 51 q 16 100 12 80 q 26 138 20 119 l 26 138 q 30 151 28 144 q 34 163 32 157 l 34 163 q -5 203 8 177 q -20 253 -18 229 l -20 253 q -9 284 -17 272 q 10 302 -1 295 q 32 313 20 309 q 54 320 43 317 l 54 320 l 67 315 q 85 301 76 306 l 85 301 q 95 311 92 304 q 99 325 97 317 l 99 325 q 106 343 102 334 q 114 361 109 352 l 114 361 q 118 385 113 374 l 118 385 q 103 391 111 390 l 103 391 q 93 393 101 391 l 93 393 q 77 409 81 402 q 68 421 72 415 l 68 421 q 53 442 62 434 l 53 442 l 43 449 l 48 459 q 50 464 50 461 q 46 473 50 467 l 46 473 q 46 488 44 484 l 46 488 l 48 498 q 56 510 56 509 l 56 510 l 65 519 q 105 531 85 524 q 144 544 124 537 l 144 544 q 183 557 163 550 q 222 568 202 563 l 222 568 q 237 575 229 573 q 252 577 245 576 l 252 577 q 263 579 258 578 q 270 582 268 579 l 270 582 q 298 591 282 586 l 298 591 q 364 607 323 598 q 456 620 405 615 l 456 620 l 473 621 q 483 621 478 620 q 493 621 488 621 l 493 621 q 550 594 538 621 l 550 594 q 566 583 559 589 q 579 571 573 577 l 579 571 q 586 564 582 567 q 591 560 589 561 l 591 560 q 602 514 608 534 l 602 514 q 579 499 593 501 l 579 499 l 568 493 q 552 494 557 494 q 540 494 546 494 l 540 494 q 482 491 515 494 q 415 483 449 488 q 348 469 380 477 q 292 452 316 461 l 292 452 l 274 443 q 266 426 267 432 q 264 413 265 419 l 264 413 q 263 405 263 409 q 261 396 262 401 l 261 396 q 244 346 244 375 l 244 346 q 235 329 237 334 q 235 315 233 323 l 235 315 q 271 309 254 307 q 305 314 288 311 l 305 314 q 353 321 328 318 q 403 324 377 324 l 403 324 l 435 324 l 427 316 l 432 302 q 441 298 438 299 q 446 295 443 297 l 446 295 l 451 286 q 459 279 455 284 q 463 264 462 274 l 463 264 l 422 206 l 408 202 q 378 198 391 203 l 378 198 q 364 195 371 196 q 349 193 357 193 l 349 193 q 316 187 329 189 q 288 183 302 185 l 288 183 q 253 178 270 181 q 221 168 236 174 l 221 168 q 207 168 211 168 l 207 168 q 191 166 199 168 q 175 161 182 163 l 175 161 q 168 153 170 157 q 164 143 166 148 l 164 143 q 153 120 160 129 l 153 120 l 153 105 q 144 90 145 95 q 140 79 142 84 l 140 79 q 137 74 138 76 q 136 68 136 71 l 136 68 q 140 34 144 53 z"},"g":{"ha":668,"x_min":0,"x_max":710,"o":"m 709 180 l 709 180 q 646 114 685 137 q 560 75 607 90 q 462 47 513 59 q 362 16 410 35 l 362 16 q 338 15 348 16 q 318 13 327 14 q 299 10 308 11 q 279 7 290 8 l 279 7 q 274 6 275 8 q 271 1 273 3 l 271 1 q 241 -2 254 -2 q 218 -2 227 -2 l 218 -2 q 194 -5 206 -2 q 171 -8 181 -9 l 171 -8 q 54 46 96 -4 q 6 183 11 95 l 6 183 q 5 189 7 188 q 0 192 2 190 l 0 192 q 3 209 0 202 q 3 227 5 216 l 3 227 q 62 330 29 282 q 141 413 95 377 l 141 413 q 153 425 148 419 q 163 437 158 431 q 173 448 167 443 q 188 454 179 452 l 188 454 q 238 498 209 478 q 299 537 267 518 q 363 574 331 555 q 420 615 394 592 l 420 615 q 436 612 431 610 q 447 612 441 614 l 447 612 q 467 591 454 597 q 492 579 479 585 q 515 563 504 572 q 532 539 526 554 l 532 539 q 527 535 526 539 q 529 526 527 530 q 531 517 531 521 q 523 512 530 512 l 523 512 q 530 507 524 507 q 535 501 535 506 l 535 501 q 533 493 535 496 q 532 483 530 490 l 532 483 q 488 458 512 470 q 437 433 463 446 q 382 404 410 419 q 326 368 353 388 l 326 368 q 271 324 299 348 q 217 272 243 299 q 168 217 191 245 q 129 160 145 188 l 129 160 q 134 153 131 155 q 138 145 136 150 l 138 145 q 198 146 170 143 q 253 142 225 148 l 253 142 q 257 148 256 144 q 262 154 258 152 l 262 154 q 368 173 319 160 q 468 199 417 185 l 468 199 q 454 205 460 202 q 441 209 447 207 l 441 209 q 442 218 436 214 q 451 225 447 221 l 451 225 q 429 245 437 233 q 418 277 420 257 l 418 277 q 424 289 424 282 q 418 300 424 296 l 418 300 q 413 300 414 301 q 412 297 412 299 q 410 294 411 295 q 405 294 409 292 l 405 294 q 410 309 406 303 q 415 323 413 315 l 415 323 l 484 369 q 511 352 495 361 q 545 333 527 342 q 581 314 562 323 q 615 295 599 304 l 615 295 q 640 279 629 289 q 661 259 651 269 q 682 238 671 248 q 706 221 692 228 l 706 221 q 707 200 704 208 q 709 180 710 192 z"},"h":{"ha":596,"x_min":-10,"x_max":576,"o":"m 512 97 l 512 97 q 506 54 514 71 q 484 25 498 37 q 452 6 470 13 q 417 -7 434 -1 l 417 -7 q 402 4 409 -2 q 384 12 394 9 l 384 12 q 359 55 371 36 q 348 97 347 73 l 348 97 q 350 108 348 98 q 354 130 351 118 q 358 153 356 142 q 359 164 359 163 l 359 164 q 311 154 336 162 q 263 135 286 146 q 219 113 239 124 q 185 94 198 102 l 185 94 q 181 80 185 91 q 171 56 177 68 q 158 33 165 43 q 144 23 151 23 l 144 23 q 147 17 145 20 q 147 9 149 14 l 147 9 q 122 -1 133 5 q 99 -12 111 -8 q 73 -17 87 -17 q 40 -7 59 -17 l 40 -7 q 35 4 40 -1 q 25 12 30 8 q 15 18 19 15 q 11 22 11 20 l 11 22 q 7 29 6 21 q 15 33 8 37 l 15 33 q 2 58 4 47 q -10 84 -1 68 l -10 84 q -6 91 -8 86 q -4 100 -5 96 q -1 106 -3 104 q 4 105 1 108 l 4 105 q 4 120 2 114 q 8 131 6 126 q 11 141 10 136 q 8 152 12 146 l 8 152 q 29 200 24 174 q 35 246 34 225 l 35 246 q 48 266 42 253 q 56 293 53 279 q 59 319 59 306 q 55 339 58 331 l 55 339 q 66 342 56 344 l 66 342 q 75 417 72 375 q 83 496 77 458 q 103 562 89 533 q 148 599 117 590 l 148 599 q 164 562 154 578 q 185 532 173 546 q 208 502 196 517 q 229 468 219 487 l 229 468 q 225 424 228 449 q 218 373 222 399 q 209 323 213 347 q 200 282 204 299 l 200 282 q 206 276 201 277 q 207 267 210 275 l 207 267 q 257 278 231 273 q 309 289 283 283 q 360 303 335 295 q 405 321 384 310 l 405 321 q 418 399 410 360 q 420 479 426 438 l 420 479 q 428 489 425 483 q 438 497 431 495 l 438 497 q 434 537 433 516 q 442 577 435 558 q 461 610 448 596 q 491 627 473 623 l 491 627 q 510 593 502 611 q 527 556 518 574 q 545 521 535 537 q 569 492 554 504 l 569 492 q 574 432 572 463 q 576 369 575 401 l 576 369 q 559 296 568 331 q 545 220 549 260 l 545 220 q 534 202 538 212 q 526 182 530 192 q 517 162 522 171 q 505 145 512 152 l 505 145 q 507 123 509 133 q 512 97 504 112 z"},"i":{"ha":328,"x_min":56,"x_max":277,"o":"m 212 70 l 212 70 q 209 23 217 40 q 185 -2 200 6 q 149 -12 169 -11 q 111 -10 129 -13 l 111 -10 q 93 25 101 4 q 78 69 85 46 q 66 113 71 91 q 56 152 60 135 l 56 152 q 63 180 61 164 q 65 211 64 195 q 66 244 65 227 q 68 275 66 260 l 68 275 q 89 355 75 317 q 110 434 102 393 l 110 434 q 109 451 112 443 q 107 466 105 459 l 107 466 q 113 472 108 470 q 119 478 118 473 l 119 478 q 121 496 122 489 q 124 513 119 503 l 124 513 q 137 537 129 521 q 142 569 144 552 l 142 569 q 159 583 151 575 q 176 598 167 591 q 195 609 184 604 q 220 614 205 614 l 220 614 q 231 592 228 604 q 236 568 233 580 q 243 546 238 556 q 260 529 248 535 l 260 529 q 260 509 260 521 q 261 486 260 497 q 266 465 262 474 q 277 452 269 455 l 277 452 q 244 357 259 404 q 218 263 228 310 q 206 167 208 215 q 212 70 203 119 z"},"j":{"ha":547,"x_min":-20,"x_max":682,"o":"m 484 464 l 484 464 q 478 418 482 438 q 467 376 474 398 l 467 376 q 428 222 450 295 q 376 91 405 149 l 376 91 q 326 40 350 62 q 271 9 301 18 l 271 9 q 245 5 256 7 q 222 -1 233 2 l 222 -1 q 212 -3 217 -2 q 201 -6 206 -4 l 201 -6 q 173 -1 186 -3 q 148 0 159 0 l 148 0 l 135 4 q 120 9 125 7 q 110 13 114 11 q 100 15 105 14 q 82 17 94 16 l 82 17 q 54 11 67 11 l 54 11 q 15 26 36 11 q -20 90 -6 41 l -20 90 q -14 124 -18 109 q -7 146 -11 138 l -7 146 q 33 160 17 160 l 33 160 q 70 154 52 160 q 104 141 87 148 l 104 141 q 115 136 112 138 q 120 133 118 134 q 125 132 122 132 q 135 132 127 132 l 135 132 q 144 133 140 132 q 151 134 147 133 l 151 134 l 161 133 q 175 130 167 130 l 175 130 q 200 135 185 130 l 200 135 q 212 139 207 138 q 221 141 216 140 l 221 141 l 229 149 q 243 156 238 152 q 251 165 247 160 q 257 176 254 170 q 265 189 260 182 l 265 189 q 273 199 269 194 q 280 209 276 204 l 280 209 l 280 219 q 303 280 293 248 q 321 343 313 311 q 335 405 329 375 q 344 459 340 435 l 344 459 l 334 459 q 293 459 309 459 q 264 457 277 458 q 237 452 251 455 q 200 445 222 449 l 200 445 l 185 442 q 155 428 170 434 q 125 422 140 422 l 125 422 q 81 442 99 422 l 81 442 q 59 476 62 455 l 59 476 q 56 490 54 482 l 56 490 q 52 512 52 502 q 52 529 52 521 l 52 529 l 52 543 l 65 543 q 72 551 70 548 q 75 557 74 553 l 75 557 l 86 566 q 122 572 103 568 q 160 579 140 575 l 160 579 q 193 585 179 583 q 219 588 206 587 q 245 590 231 589 q 276 590 258 590 l 276 590 l 299 590 q 306 595 302 594 q 311 595 309 595 l 311 595 q 319 594 316 595 q 324 592 322 593 l 324 592 q 376 599 352 597 q 419 600 400 600 l 419 600 q 438 600 429 600 q 454 599 446 600 l 454 599 l 487 599 l 509 599 q 525 600 514 600 l 525 600 q 546 600 541 600 q 562 597 550 599 l 562 597 q 588 594 576 595 q 611 592 599 592 l 611 592 l 626 592 l 629 582 l 637 572 q 644 563 639 567 q 653 554 648 559 l 653 554 q 673 531 663 544 q 679 492 682 518 l 679 492 l 672 481 q 660 472 667 479 l 660 472 l 651 464 q 632 463 640 463 q 616 462 624 462 l 616 462 q 586 463 601 462 q 553 465 570 464 l 553 465 q 539 465 544 465 q 530 465 534 465 q 520 465 525 465 q 507 465 515 465 l 507 465 q 495 465 499 465 q 484 464 491 465 z"},"k":{"ha":661,"x_min":9,"x_max":682,"o":"m 603 36 l 603 36 q 519 38 555 34 q 447 57 482 42 l 447 57 q 443 62 445 58 q 439 68 441 66 l 439 68 q 425 71 433 71 q 410 72 416 70 l 410 72 q 385 88 402 76 q 354 109 368 99 l 354 109 q 320 137 336 123 q 292 167 304 151 l 292 167 q 284 172 289 171 q 275 174 279 172 l 275 174 q 226 129 246 156 q 188 74 206 102 q 150 21 170 46 q 99 -17 130 -4 l 99 -17 q 83 -14 90 -17 q 70 -6 76 -11 q 58 2 64 -2 q 45 8 52 6 l 45 8 q 41 30 45 20 q 32 49 36 40 q 25 67 27 58 q 29 83 23 75 l 29 83 q 11 96 23 89 l 11 96 q 17 107 17 102 q 14 117 16 112 q 11 128 12 122 q 13 140 9 134 l 13 140 q 25 142 18 140 l 25 142 q 20 152 19 150 q 17 156 20 153 l 17 156 q 19 164 15 162 q 27 167 23 165 l 27 167 q 44 258 31 216 q 73 339 57 300 q 105 418 89 378 q 130 504 120 458 l 130 504 q 148 530 141 515 q 162 560 154 545 q 179 590 169 575 q 205 613 188 604 l 205 613 q 230 606 219 612 q 257 600 241 599 l 257 600 q 263 590 260 595 q 269 580 265 585 l 269 580 l 284 583 q 304 561 295 574 q 315 532 312 547 q 314 504 318 517 q 295 482 310 490 l 295 482 q 296 475 296 477 q 294 470 295 472 q 293 466 293 468 q 296 460 293 464 l 296 460 q 266 418 276 445 q 255 370 256 391 l 255 370 q 282 394 267 382 q 312 416 296 405 q 342 437 327 427 q 368 457 356 447 l 368 457 q 432 506 401 487 q 496 547 462 524 l 496 547 q 509 548 504 549 q 518 544 513 546 l 518 544 q 515 551 518 550 q 512 559 511 552 l 512 559 q 538 569 527 563 q 562 579 549 574 l 562 579 q 579 561 571 570 q 601 549 587 551 l 601 549 q 613 533 606 538 q 627 522 620 527 q 640 510 634 517 q 646 488 645 503 l 646 488 q 638 473 642 481 q 629 454 633 465 l 629 454 q 589 422 609 436 q 547 395 568 408 q 504 369 526 382 q 459 338 482 356 l 459 338 q 447 326 454 331 q 431 315 439 320 q 416 303 423 309 q 405 289 409 297 l 405 289 q 399 288 402 288 q 393 287 396 288 l 393 287 q 384 276 390 280 q 375 265 377 272 l 375 265 q 414 216 390 233 q 468 192 438 199 q 533 184 498 184 q 606 183 568 183 l 606 183 q 610 188 610 184 q 614 190 609 191 l 614 190 q 651 168 638 182 q 682 139 664 153 l 682 139 q 659 76 680 101 q 603 36 638 51 z"},"l":{"ha":546,"x_min":9,"x_max":526,"o":"m 287 17 l 264 11 q 203 -7 236 2 q 137 -16 170 -16 l 137 -16 q 58 9 87 -16 l 58 9 q 49 24 53 20 l 49 24 q 44 33 46 28 q 40 45 41 37 l 40 45 q 21 78 28 59 q 12 116 14 96 q 11 155 9 135 q 17 193 12 175 l 17 193 q 20 201 19 197 q 21 210 20 205 l 21 210 q 30 241 25 226 q 42 267 34 256 l 42 267 q 42 287 38 276 q 51 307 46 298 l 51 307 q 75 372 65 345 q 94 424 84 398 l 94 424 q 126 513 111 469 q 153 608 141 557 l 153 608 q 165 615 161 613 l 165 615 q 175 618 171 617 l 175 618 q 217 601 193 609 q 257 592 241 592 l 257 592 q 267 585 265 587 q 271 580 269 582 l 271 580 q 290 554 282 567 q 295 518 298 540 l 295 518 q 286 509 289 509 l 286 509 q 276 475 281 489 q 264 447 270 461 l 264 447 q 251 417 257 432 q 241 380 245 402 l 241 380 q 236 371 237 375 q 232 362 234 367 l 232 362 q 228 352 230 357 q 220 342 225 346 l 220 342 q 211 300 217 316 q 197 268 204 284 l 197 268 q 176 210 185 239 q 164 144 166 181 l 164 144 q 174 146 169 146 q 182 146 178 146 l 182 146 q 203 143 191 146 l 203 143 q 269 162 233 159 q 339 166 304 165 l 339 166 q 367 166 353 166 q 393 168 381 166 l 393 168 q 405 163 402 163 q 412 162 407 162 l 412 162 q 424 161 419 162 l 424 161 q 447 145 436 150 q 470 136 458 140 l 470 136 q 492 128 481 132 q 512 115 502 123 l 512 115 l 519 72 q 525 60 526 63 l 525 60 q 521 48 525 52 l 521 48 l 523 37 q 503 30 508 34 q 492 21 497 26 l 492 21 q 481 20 484 20 q 474 20 477 20 l 474 20 q 440 15 460 20 l 440 15 q 384 24 413 24 l 384 24 q 361 23 373 24 q 337 21 349 22 l 337 21 q 313 18 325 19 q 287 17 300 17 l 287 17 z"},"m":{"ha":834,"x_min":5,"x_max":829,"o":"m 692 18 l 692 18 q 674 9 682 13 q 654 5 665 5 l 654 5 q 614 106 615 34 q 644 289 612 178 l 644 289 q 649 301 649 292 l 649 301 l 640 311 q 633 310 636 311 q 627 303 629 309 l 627 303 q 570 264 601 284 q 506 226 539 243 q 438 197 472 208 q 370 186 403 186 l 370 186 q 244 271 286 186 l 244 271 l 236 286 l 228 273 q 219 257 225 269 q 207 228 213 244 q 197 196 201 212 q 193 167 192 179 l 193 167 q 174 146 184 158 q 159 119 164 134 l 159 119 q 161 104 157 111 l 161 104 q 152 90 159 95 l 152 90 q 144 81 148 85 q 136 71 139 76 l 136 71 q 134 61 134 66 q 132 51 133 56 l 132 51 q 130 38 132 44 l 130 38 q 103 -7 113 3 q 76 -18 93 -18 l 76 -18 q 50 -15 68 -18 l 50 -15 q 27 24 37 -1 q 11 76 16 48 q 6 133 5 104 q 15 182 6 161 l 15 182 q 23 202 15 183 q 44 251 31 221 q 72 318 56 281 q 104 389 88 354 q 135 452 120 423 q 159 496 149 481 l 159 496 q 174 519 167 508 q 186 539 180 529 l 186 539 q 221 591 204 570 q 269 623 237 611 l 269 623 q 301 602 291 614 l 301 602 l 303 591 q 315 581 307 581 l 315 581 q 334 576 326 578 q 350 571 341 573 l 350 571 q 363 552 357 563 l 363 552 q 379 529 371 540 q 391 506 386 517 q 396 482 395 494 q 391 457 396 470 l 391 457 l 392 447 q 394 422 397 438 l 394 422 q 393 408 393 415 q 395 391 393 400 l 395 391 q 427 377 413 377 l 427 377 q 457 385 443 377 q 482 400 470 392 l 482 400 q 498 411 490 406 q 514 416 506 415 l 514 416 q 547 446 532 433 q 577 472 561 459 l 577 472 q 635 524 607 496 q 680 594 663 552 l 680 594 q 701 600 690 600 l 701 600 q 724 595 712 600 q 747 585 736 590 l 747 585 q 753 582 750 583 q 757 580 755 581 l 757 580 q 765 563 757 570 l 765 563 q 770 559 769 560 q 773 557 771 558 l 773 557 q 792 541 788 549 l 792 541 q 817 506 799 518 l 817 506 q 818 488 815 496 q 824 470 820 479 l 824 470 q 826 464 825 467 q 829 457 827 461 l 829 457 l 810 459 l 813 440 q 811 409 815 426 q 800 382 806 392 l 800 382 q 802 342 801 356 q 800 315 802 327 q 795 291 798 302 q 785 267 791 280 l 785 267 q 771 151 789 203 q 732 52 752 98 l 732 52 q 728 42 730 47 q 723 32 725 37 l 723 32 q 707 26 714 29 q 692 18 700 22 z"},"n":{"ha":578,"x_min":-15,"x_max":604,"o":"m 205 182 l 205 182 q 192 172 196 180 q 185 154 188 163 q 178 138 181 145 q 167 130 174 130 l 167 130 q 162 116 166 122 q 153 104 157 110 q 147 90 149 97 q 149 72 145 82 l 149 72 q 139 55 141 66 q 135 34 137 44 q 126 17 132 24 q 104 11 120 10 l 104 11 q 103 6 101 7 q 106 -1 105 5 l 106 -1 q 90 -2 95 1 q 76 -7 84 -6 l 76 -7 q 45 14 57 -1 q 23 48 32 29 q 6 85 13 66 q -9 118 -2 104 l -9 118 q -8 140 -6 129 q -15 157 -10 150 l -15 157 q 92 379 34 261 q 202 612 150 497 l 202 612 q 248 592 225 603 q 289 565 270 580 q 320 531 307 550 q 337 487 333 511 l 337 487 q 333 483 335 481 q 328 481 330 484 l 328 481 q 333 474 332 476 q 333 470 333 472 q 332 465 332 468 q 335 455 332 461 l 335 455 q 330 454 331 456 q 323 454 328 452 l 323 454 q 326 436 327 443 q 321 424 324 429 q 316 412 318 418 q 317 395 314 405 l 317 395 q 313 394 314 395 q 310 391 311 392 q 308 388 309 389 q 303 387 306 386 l 303 387 q 305 343 306 365 q 304 299 304 321 q 304 252 303 276 q 311 201 305 227 l 311 201 q 369 255 347 222 q 404 329 390 288 q 424 417 417 370 q 439 513 431 464 l 439 513 q 453 535 448 522 q 462 563 458 548 q 470 592 466 577 q 480 618 474 606 l 480 618 q 506 609 495 616 q 525 593 516 601 q 544 577 534 584 q 569 567 554 569 l 569 567 q 591 534 581 550 q 604 500 601 518 l 604 500 q 597 482 599 492 q 591 462 594 472 q 583 444 588 452 q 569 429 578 435 l 569 429 q 562 382 566 403 q 553 339 557 360 q 545 296 548 318 q 543 246 542 273 l 543 246 q 526 197 535 223 q 512 150 517 171 l 512 150 q 487 119 496 137 q 468 83 478 101 l 468 83 q 463 81 464 79 q 456 84 462 83 l 456 84 q 456 78 457 80 q 454 75 455 76 q 452 70 452 73 q 453 62 451 67 l 453 62 q 428 45 439 56 q 405 25 417 34 q 375 13 392 16 q 329 20 357 10 l 329 20 q 257 89 288 50 q 205 182 225 128 z"},"o":{"ha":644,"x_min":5,"x_max":609,"o":"m 583 300 l 583 300 q 585 277 582 288 q 593 256 588 266 q 601 234 597 245 q 607 212 605 223 l 607 212 q 607 182 609 198 q 600 150 605 165 q 587 122 595 134 q 568 103 579 109 l 568 103 q 534 75 554 85 q 497 51 514 65 l 497 51 q 473 41 486 44 q 445 35 459 38 l 445 35 q 419 23 434 29 q 388 11 404 16 q 356 3 372 5 q 328 1 340 0 l 328 1 q 270 -13 298 -10 q 203 -9 241 -17 l 203 -9 q 137 -6 167 -14 q 83 20 106 2 q 42 62 59 37 q 13 113 24 86 l 13 113 q 17 217 5 170 q 52 303 29 263 q 103 376 74 342 q 159 441 132 409 l 159 441 q 169 442 165 439 q 175 449 172 444 q 182 457 178 453 q 190 462 185 461 l 190 462 q 211 485 197 477 q 232 506 224 492 l 232 506 q 247 512 241 508 q 259 521 253 516 q 270 531 264 526 q 284 537 276 535 l 284 537 l 284 548 q 311 567 302 556 q 331 592 319 577 l 331 592 q 346 593 340 593 q 362 595 351 593 l 362 595 q 377 616 370 609 q 396 631 383 623 l 396 631 q 423 623 408 625 q 448 610 437 621 l 448 610 q 454 595 449 600 q 465 585 459 589 q 477 575 471 580 q 484 561 482 570 l 484 561 q 490 562 488 560 q 495 563 491 564 l 495 563 q 502 545 498 549 q 510 527 506 540 l 510 527 q 503 507 505 517 q 490 491 500 496 l 490 491 q 494 484 489 484 q 500 478 499 483 l 500 478 q 497 465 501 469 l 497 465 q 540 383 521 426 q 583 300 559 339 z m 458 205 l 458 205 q 469 223 462 216 q 476 244 475 230 l 476 244 q 470 257 471 252 q 469 271 469 261 l 469 271 q 431 338 447 302 q 395 404 415 373 l 395 404 q 388 396 393 400 q 377 398 383 392 l 377 398 q 370 387 375 390 q 359 384 365 383 q 347 387 353 384 q 335 393 340 389 l 335 393 q 277 348 306 370 q 225 297 248 326 l 225 297 q 220 296 221 295 q 214 294 219 296 l 214 294 q 195 260 206 275 q 172 228 183 244 q 153 194 161 212 q 144 152 145 176 l 144 152 q 184 135 161 138 q 232 134 207 132 q 280 141 256 136 q 323 145 303 145 l 323 145 q 395 172 365 155 q 458 205 425 188 z"},"p":{"ha":537,"x_min":25,"x_max":568,"o":"m 377 620 l 377 620 q 452 603 419 615 q 508 571 485 591 l 508 571 q 539 517 524 546 q 561 457 553 488 q 568 392 568 425 q 553 325 567 359 l 553 325 q 483 267 524 289 q 393 230 441 244 q 294 206 345 216 q 193 186 242 196 l 193 186 q 194 138 194 163 q 189 87 193 112 q 175 37 184 61 q 151 -7 166 13 l 151 -7 q 116 -11 134 -7 q 84 -19 98 -16 l 84 -19 q 72 -11 77 -15 q 56 -7 66 -8 l 56 -7 q 51 14 58 3 q 37 35 44 24 q 28 56 30 46 q 37 75 25 66 l 37 75 q 30 93 30 82 l 30 93 q 43 126 37 105 q 52 168 48 147 q 53 205 55 188 q 33 230 51 222 l 33 230 q 37 232 34 232 q 43 233 40 232 l 43 233 q 34 250 35 239 q 26 269 32 261 l 26 269 q 29 278 28 274 q 36 281 30 282 l 36 281 q 37 315 33 299 q 47 346 40 331 q 64 374 54 360 q 83 402 74 388 l 83 402 q 92 400 90 403 q 98 401 93 397 l 98 401 q 116 422 111 411 q 121 447 121 433 l 121 447 q 138 490 128 468 q 160 529 148 511 q 187 561 172 547 q 217 582 201 575 l 217 582 q 247 601 229 592 q 286 614 265 609 q 329 619 307 618 q 368 614 350 619 l 368 614 q 374 616 373 612 q 377 620 374 620 z m 336 381 l 336 381 q 390 399 361 392 q 437 423 418 405 l 437 423 q 402 443 425 434 q 352 453 379 451 q 298 449 325 455 q 250 424 270 442 l 250 424 q 240 396 244 406 q 229 370 236 385 l 229 370 q 236 363 231 365 q 242 355 240 360 l 242 355 q 289 369 265 367 q 336 381 312 370 z"},"q":{"ha":640,"x_min":-5,"x_max":616,"o":"m 452 -23 l 421 49 q 291 5 360 22 q 144 -17 222 -12 l 144 -17 q 68 15 102 -5 q 11 66 34 34 l 11 66 q 10 91 12 80 q 6 110 8 101 q 3 129 3 119 q 5 152 2 139 l 5 152 q 0 167 3 160 q -5 182 -3 174 l -5 182 q 10 251 -3 220 q 42 306 23 281 q 84 353 61 331 q 127 394 106 374 l 127 394 q 134 393 132 389 q 144 394 136 396 l 144 394 q 149 407 144 399 q 159 421 153 414 q 173 431 165 427 q 187 434 180 435 l 187 434 q 213 462 196 450 q 248 485 230 473 q 279 511 265 497 q 296 546 293 525 l 296 546 l 313 546 q 303 578 302 562 q 314 605 304 594 q 340 618 323 615 q 379 609 357 620 l 379 609 q 392 613 389 607 q 402 619 395 618 l 402 619 q 471 578 440 602 q 525 523 501 554 l 525 523 q 518 517 523 518 q 518 510 512 516 l 518 510 q 570 434 547 474 q 611 348 592 393 l 611 348 q 614 281 616 314 q 604 209 612 247 l 604 209 q 569 159 590 180 q 531 112 548 137 l 531 112 l 546 79 q 549 65 545 73 q 556 49 552 57 q 561 33 559 40 q 560 20 563 25 l 560 20 q 571 17 563 15 l 571 17 q 566 11 568 16 q 574 7 564 5 l 574 7 q 567 -13 572 -2 q 552 -35 561 -25 q 529 -53 542 -46 q 501 -61 516 -61 l 501 -61 q 475 -44 484 -52 q 452 -23 465 -36 l 452 -23 z m 226 287 l 226 287 q 160 217 190 257 q 112 129 130 177 l 112 129 q 131 124 120 125 q 150 121 141 123 l 150 121 q 249 147 198 135 q 346 176 299 159 l 346 176 q 310 222 327 199 q 282 265 293 244 l 282 265 q 287 277 285 270 q 292 291 289 284 q 301 302 295 297 q 317 307 307 307 l 317 307 q 353 300 332 301 q 390 296 373 299 l 390 296 q 419 268 407 284 q 444 234 431 251 l 444 234 q 475 271 462 251 q 496 317 488 291 l 496 317 q 484 347 491 330 q 466 380 476 364 q 444 408 456 395 q 418 425 432 420 l 418 425 q 409 423 411 426 q 399 421 407 419 l 399 421 q 309 358 354 389 q 226 287 264 326 z"},"r":{"ha":554,"x_min":10,"x_max":559,"o":"m 161 104 l 161 104 q 142 44 150 64 q 116 1 133 23 l 116 1 q 98 -2 103 3 q 87 -11 93 -7 l 87 -11 q 74 -11 78 -13 q 67 -6 70 -9 q 60 -1 64 -4 q 46 1 55 1 l 46 1 q 42 16 44 9 q 28 21 39 23 l 28 21 q 29 35 30 29 q 27 45 28 40 q 24 54 25 49 q 25 65 23 58 l 25 65 q 17 72 20 65 q 10 86 14 79 l 10 86 q 16 120 13 104 q 24 150 19 136 q 31 178 28 164 q 28 207 34 192 l 28 207 q 34 209 32 204 q 37 221 36 213 q 38 236 38 228 q 37 248 38 243 l 37 248 q 54 302 47 274 q 66 356 60 329 q 77 409 71 383 q 93 457 83 435 l 93 457 q 118 455 104 459 q 134 443 131 450 l 134 443 q 180 492 160 463 q 221 547 200 520 q 268 595 242 574 q 332 620 293 616 l 332 620 q 377 590 352 605 q 417 549 401 574 l 417 549 q 431 541 425 545 q 444 531 436 536 l 444 531 l 444 519 q 464 494 456 508 q 477 463 471 479 q 489 430 483 446 q 503 398 495 413 l 503 398 q 501 390 501 393 q 503 382 501 386 q 505 374 504 378 q 505 363 506 370 l 505 363 q 477 292 502 319 q 415 248 451 265 q 338 218 379 230 q 264 192 297 206 l 264 192 q 268 188 264 188 q 270 183 271 188 l 270 183 q 308 159 294 168 q 335 144 322 150 q 362 134 347 138 q 402 123 376 129 l 402 123 q 443 114 428 117 q 469 108 457 110 q 494 104 481 105 q 529 100 506 102 l 529 100 q 545 79 538 91 q 553 54 551 66 q 554 30 555 41 q 547 11 553 18 l 547 11 q 552 9 548 8 q 559 8 555 9 l 559 8 q 549 -2 553 4 q 541 -14 545 -8 q 532 -24 537 -20 q 518 -30 527 -29 l 518 -30 q 440 -31 487 -42 q 321 7 393 -21 l 321 7 q 263 32 285 21 q 224 53 240 42 q 194 75 207 63 q 161 104 180 87 z m 304 447 l 304 447 q 280 418 293 431 q 254 392 266 405 q 231 362 241 378 q 217 323 221 345 l 217 323 q 290 343 252 327 q 362 372 328 358 l 362 372 q 341 422 358 403 q 304 447 323 441 z"},"s":{"ha":475,"x_min":10,"x_max":591,"o":"m 16 450 l 16 450 q 39 486 23 471 q 73 512 54 501 q 111 529 91 522 q 149 541 131 536 l 149 541 q 235 574 189 558 q 328 601 280 589 q 425 617 375 613 q 530 604 475 620 l 530 604 q 539 585 533 594 q 552 567 545 576 q 563 550 558 558 q 569 532 568 541 l 569 532 q 585 513 579 523 q 587 485 591 502 l 587 485 q 568 471 577 477 q 547 459 558 464 l 547 459 q 472 465 510 468 q 404 460 434 462 l 404 460 q 383 469 395 469 q 357 465 370 469 q 330 457 343 461 q 304 455 316 453 l 304 455 q 280 445 294 447 q 248 440 265 442 l 248 440 q 250 434 247 435 q 251 427 253 432 l 251 427 q 267 417 257 420 q 287 411 276 414 q 305 404 297 408 q 316 389 313 399 l 316 389 q 342 382 331 389 q 360 365 353 375 q 371 344 367 355 q 374 323 374 332 l 374 323 q 381 316 377 315 q 390 312 385 317 l 390 312 q 405 286 393 299 q 424 256 417 272 l 424 256 q 427 212 426 231 q 420 172 428 192 l 420 172 q 379 106 405 135 q 319 55 352 77 q 247 16 285 32 q 173 -11 209 0 l 173 -11 q 165 -11 169 -10 q 163 -6 161 -12 l 163 -6 q 146 -15 155 -13 q 125 -16 136 -17 q 103 -15 114 -16 q 81 -16 91 -14 l 81 -16 q 69 -2 74 -9 q 60 14 63 4 l 60 14 q 56 19 55 14 q 52 24 56 24 l 52 24 q 58 36 58 34 q 55 38 57 37 q 50 41 52 39 q 49 45 48 42 l 49 45 q 52 64 53 53 q 50 85 51 74 q 52 106 49 96 q 66 122 54 116 l 66 122 q 131 125 100 118 q 188 143 161 131 q 240 169 215 155 q 288 194 264 183 l 288 194 q 297 209 291 203 q 308 220 302 215 q 319 231 314 225 q 326 246 324 237 l 326 246 q 323 255 327 253 q 318 262 318 256 l 318 262 l 307 265 q 264 284 288 276 q 223 300 240 291 l 223 300 q 203 297 212 294 q 178 303 193 300 l 178 303 q 113 310 144 305 q 52 328 81 315 l 52 328 q 47 337 50 333 q 36 339 44 341 l 36 339 q 24 355 30 347 q 13 371 18 362 l 13 371 q 16 392 15 383 q 10 408 17 400 l 10 408 q 16 429 14 421 q 16 450 18 437 z"},"t":{"ha":491,"x_min":0,"x_max":667,"o":"m 569 481 l 569 481 q 515 478 544 481 q 458 470 486 474 l 458 470 q 420 465 438 467 q 386 462 401 463 l 386 462 q 372 423 379 440 q 357 390 365 406 l 357 390 q 343 356 349 373 q 330 318 336 338 l 330 318 q 314 289 320 302 q 303 258 307 275 l 303 258 q 285 227 291 243 q 276 198 279 210 l 276 198 l 272 186 q 265 177 266 180 q 260 170 264 173 l 260 170 q 253 148 259 159 l 253 148 q 250 139 251 143 q 249 132 249 134 l 249 132 q 244 119 249 122 l 244 119 q 244 109 245 114 q 242 98 243 103 l 242 98 q 240 79 239 86 l 240 79 q 246 72 243 75 q 249 64 248 69 l 249 64 q 258 59 255 60 l 258 59 q 270 52 262 56 l 270 52 l 279 42 q 270 -4 284 13 l 270 -4 q 219 -23 255 -23 l 219 -23 l 207 -23 q 201 -15 202 -18 l 201 -15 q 188 -10 193 -12 q 179 -2 183 -8 l 179 -2 q 158 8 166 4 l 158 8 l 149 13 q 149 25 149 24 l 149 25 q 139 45 142 34 q 133 67 135 56 l 133 67 q 129 84 131 76 q 122 98 126 92 l 122 98 q 133 196 120 156 q 160 273 146 236 l 160 273 q 176 314 168 293 q 190 356 184 334 l 190 356 l 199 366 q 211 393 206 382 q 220 414 215 403 l 220 414 q 226 428 223 421 q 230 439 228 434 l 230 439 q 219 439 224 439 q 209 437 214 438 l 209 437 q 198 436 203 436 q 188 435 193 435 l 188 435 q 178 436 181 435 l 178 436 q 154 431 167 431 l 154 431 l 144 431 q 139 432 141 431 q 134 432 136 432 l 134 432 q 118 429 124 432 l 118 429 q 95 429 106 429 l 95 429 l 85 429 q 80 429 83 429 q 75 428 77 428 l 75 428 q 60 430 68 428 q 43 436 52 431 l 43 436 q 27 453 31 452 l 27 453 l 18 465 q 15 477 17 471 q 11 489 13 482 l 11 489 q 4 511 7 499 q 0 538 0 522 l 0 538 q 4 550 1 546 q 9 557 7 554 l 9 557 l 12 572 l 25 571 l 53 571 q 118 574 85 571 q 186 579 151 576 l 186 579 q 227 583 206 581 q 269 587 247 585 l 269 587 q 277 604 273 596 l 277 604 l 287 609 q 313 605 305 610 q 325 594 320 599 l 325 594 q 370 599 347 596 q 415 605 392 601 l 415 605 q 484 614 449 610 q 550 618 518 618 l 550 618 q 577 617 564 618 q 601 614 590 616 l 601 614 l 611 607 q 620 596 614 601 q 631 586 625 591 l 631 586 q 655 560 643 575 q 664 516 667 545 l 664 516 q 652 502 656 504 l 652 502 l 643 490 l 633 491 q 622 490 627 491 q 612 486 617 488 l 612 486 q 604 483 608 484 q 595 480 600 481 l 595 480 q 581 481 586 480 q 569 481 575 481 z"},"u":{"ha":599,"x_min":51,"x_max":624,"o":"m 590 569 l 590 569 q 597 531 592 547 q 608 500 602 515 l 608 500 q 618 473 613 486 q 624 440 622 459 l 624 440 q 613 392 616 414 q 605 346 609 370 l 605 346 q 574 284 589 311 q 550 237 559 257 l 550 237 q 542 226 545 232 q 534 212 538 219 l 534 212 q 529 203 532 209 q 524 195 526 197 l 524 195 l 504 202 l 500 177 l 486 173 l 476 161 q 436 106 457 128 q 389 66 415 83 q 329 33 362 48 q 253 0 295 18 l 253 0 q 224 3 236 2 q 200 4 211 3 l 200 4 q 153 7 181 4 l 153 7 q 144 18 150 15 q 133 21 138 21 l 133 21 q 108 45 116 29 q 91 78 99 60 l 91 78 q 81 99 86 89 q 70 118 76 108 l 70 118 l 87 123 l 65 147 q 60 153 63 150 q 55 158 57 155 l 55 158 l 54 174 q 52 301 51 243 q 67 403 52 358 l 67 403 l 67 414 q 73 451 70 436 q 78 478 76 465 l 78 478 q 87 519 81 500 l 87 519 q 108 531 101 522 q 120 546 115 539 l 120 546 q 139 542 134 547 q 149 526 144 537 l 149 526 q 162 506 154 517 q 184 489 169 495 l 184 489 q 190 473 186 481 q 197 454 193 464 l 197 454 q 212 419 205 437 q 219 383 218 400 l 219 383 q 204 339 209 364 q 197 289 198 314 q 198 240 195 263 q 206 200 200 216 l 206 200 l 212 187 l 229 189 q 284 207 259 197 q 329 229 308 216 q 369 260 350 242 q 409 300 388 277 l 409 300 q 446 353 430 323 q 472 414 461 382 q 488 478 482 446 q 495 537 493 509 l 495 537 q 512 561 512 543 l 512 561 l 510 572 q 510 586 506 578 l 510 586 q 538 615 516 605 l 538 615 q 567 593 554 605 q 590 569 579 581 z"},"v":{"ha":497,"x_min":67,"x_max":574,"o":"m 333 176 l 333 176 q 327 150 332 162 q 313 126 321 137 q 296 104 305 114 q 277 85 286 93 l 277 85 q 278 66 280 72 q 276 46 275 59 l 276 46 q 231 -7 261 6 q 173 -2 200 -21 l 173 -2 q 155 19 162 6 q 134 34 147 31 l 134 34 q 131 68 137 51 q 118 86 125 85 l 118 86 q 109 131 115 107 q 98 180 103 155 q 90 228 93 204 q 87 271 86 251 l 87 271 q 84 289 88 281 q 77 308 79 297 l 77 308 q 75 357 73 331 q 76 405 76 382 l 76 405 q 74 453 76 427 q 69 502 71 478 q 67 545 67 525 q 72 575 67 564 l 72 575 q 89 595 78 587 q 108 611 99 602 l 108 611 q 143 593 130 609 q 153 563 156 577 l 153 563 q 187 530 174 550 q 207 484 199 509 q 217 430 214 458 q 222 374 220 401 q 226 321 224 346 q 234 278 228 296 l 234 278 q 296 373 271 331 q 347 452 321 414 q 405 529 373 490 q 488 617 437 568 l 488 617 q 505 613 498 616 q 516 608 511 610 q 528 605 521 606 q 547 605 535 603 l 547 605 q 553 591 551 595 q 557 582 555 586 q 561 570 558 577 q 569 550 563 563 l 569 550 q 571 542 572 547 q 570 533 570 537 q 569 526 569 528 q 574 526 569 524 l 574 526 q 564 501 571 512 q 557 473 556 489 l 557 473 q 507 411 534 443 q 452 345 479 379 q 399 274 424 311 q 356 195 374 236 l 356 195 q 349 192 351 195 q 344 186 346 189 q 340 179 342 182 q 333 176 337 176 z"},"w":{"ha":845,"x_min":20,"x_max":896,"o":"m 563 -13 l 563 -13 q 508 34 528 3 q 467 103 487 65 l 467 103 q 461 115 464 109 q 455 126 458 121 l 455 126 l 441 152 l 433 168 l 421 157 l 403 141 l 393 131 q 341 84 367 107 q 285 42 314 60 q 223 12 255 23 q 152 -1 190 0 l 152 -1 l 130 10 q 98 28 111 20 q 68 53 85 36 l 68 53 q 60 70 63 62 q 52 86 56 78 l 52 86 q 34 122 41 106 q 20 158 27 138 l 20 158 q 29 206 23 172 q 44 279 35 239 q 62 360 52 319 q 81 430 71 400 l 81 430 q 102 485 90 456 q 127 539 113 514 q 156 581 140 563 q 190 601 172 598 l 190 601 q 201 591 195 594 q 212 586 207 588 l 212 586 q 240 552 226 566 q 271 524 253 538 l 271 524 q 257 469 266 499 q 237 408 247 438 q 216 348 226 377 q 200 298 206 319 l 200 298 q 190 260 194 281 l 190 260 q 173 159 181 223 l 173 159 q 199 172 185 162 q 226 193 213 182 l 226 193 q 256 220 241 205 l 256 220 q 288 255 275 239 q 313 288 301 271 q 336 326 324 305 q 365 374 348 346 l 365 374 q 397 426 380 398 q 430 479 413 453 q 462 525 446 504 q 491 558 478 546 l 491 558 q 512 539 499 548 q 538 525 524 530 l 538 525 q 550 509 544 516 q 560 495 555 501 l 560 495 q 572 478 566 486 q 582 462 577 470 l 582 462 q 579 444 581 455 q 575 420 577 433 q 569 394 572 407 q 563 368 566 380 l 563 368 q 551 311 555 330 q 546 281 547 292 q 544 263 544 270 q 543 242 543 255 l 543 242 q 544 222 542 232 l 544 222 q 548 203 545 213 q 556 185 551 193 l 556 185 l 596 216 q 629 252 613 229 q 659 304 644 274 q 687 368 673 333 q 715 439 701 403 l 715 439 q 758 542 736 492 q 799 619 779 592 l 799 619 q 838 591 821 605 q 866 559 854 576 q 886 520 878 542 q 896 468 893 498 l 896 468 q 862 396 878 433 q 830 322 845 359 l 830 322 q 789 226 810 274 q 741 135 767 178 q 683 55 715 91 q 609 -7 651 18 l 609 -7 q 590 -4 598 -4 l 590 -4 q 563 -13 574 -4 z"},"x":{"ha":519,"x_min":-22,"x_max":585,"o":"m 404 -15 l 347 26 q 304 122 332 76 q 249 201 275 168 l 249 201 q 172 133 208 170 q 105 52 135 95 l 105 52 q 100 18 103 31 q 90 -5 97 4 q 71 -20 82 -14 q 41 -34 59 -27 l 41 -34 q -7 26 8 -10 q -11 96 -22 61 l -11 96 q 2 145 -10 121 q 30 191 13 169 q 65 232 46 212 q 101 268 84 251 l 101 268 q 113 286 104 278 q 131 300 121 293 q 150 315 140 307 q 165 334 159 323 l 165 334 q 138 381 158 357 q 101 429 118 404 l 101 429 q 94 432 99 434 q 86 433 88 430 l 86 433 q 81 461 88 446 q 62 487 73 476 l 62 487 q 69 514 65 498 q 67 548 73 529 l 67 548 q 70 564 67 556 q 76 578 73 571 q 81 591 79 584 q 80 603 83 597 l 80 603 q 103 602 93 605 q 122 595 113 599 q 139 589 131 591 q 154 590 146 587 l 154 590 q 154 583 153 585 q 157 580 155 581 q 161 578 159 579 q 163 573 163 576 l 163 573 q 198 552 179 568 q 235 515 217 535 q 266 475 252 495 q 287 445 280 455 l 287 445 q 339 481 311 460 q 397 523 367 501 q 458 565 427 545 q 517 596 488 584 l 517 596 q 544 577 534 588 q 560 553 553 565 q 571 527 566 540 q 585 503 576 513 l 585 503 q 568 475 577 486 q 554 448 558 463 l 554 448 q 504 421 533 439 l 504 421 q 441 378 478 405 q 350 306 403 351 l 350 306 q 370 279 362 292 q 383 257 378 266 l 383 257 q 392 237 388 246 l 392 237 q 407 221 401 230 q 419 203 413 212 q 431 185 424 193 q 449 171 438 176 l 449 171 q 466 118 455 141 q 476 69 477 94 l 476 69 q 456 31 469 46 q 436 0 442 16 l 436 0 q 418 -6 427 -3 q 404 -15 409 -9 l 404 -15 z"},"y":{"ha":410,"x_min":42,"x_max":522,"o":"m 325 277 l 320 262 q 308 248 313 256 q 298 230 303 239 l 298 230 q 287 209 293 219 q 272 191 281 199 l 272 191 q 262 168 267 176 q 246 148 257 159 l 246 148 q 199 61 236 108 l 199 61 q 194 44 198 52 q 184 27 189 35 l 184 27 q 180 21 182 24 q 177 15 178 17 l 177 15 l 175 5 q 164 -9 170 -3 q 153 -20 158 -15 l 153 -20 q 146 -28 151 -23 l 146 -28 l 131 -34 q 42 44 58 -24 l 42 44 l 43 54 q 47 65 45 59 q 50 76 48 70 l 50 76 q 60 104 54 90 q 76 129 65 118 l 76 129 q 85 152 78 136 q 109 198 92 167 l 109 198 q 131 236 123 222 q 144 258 139 250 l 144 258 q 120 287 134 274 l 120 287 q 98 335 107 312 q 83 376 88 358 l 83 376 q 80 398 82 389 q 76 417 78 407 l 76 417 q 71 439 73 428 q 69 462 69 450 l 69 462 q 63 476 64 469 l 63 476 l 65 486 q 66 505 68 493 q 61 528 64 516 l 61 528 q 57 550 59 538 q 55 574 54 562 q 62 597 56 586 q 80 615 67 607 l 80 615 l 97 616 q 115 607 106 611 q 131 597 123 602 l 131 597 q 152 587 142 592 q 173 574 162 582 l 173 574 l 180 560 l 193 549 l 193 538 q 194 527 194 534 l 194 527 q 198 511 194 514 l 198 511 l 202 499 q 205 473 202 485 q 211 449 208 460 l 211 449 q 217 426 214 438 q 218 400 220 414 l 218 400 q 228 407 224 403 l 228 407 q 232 410 230 409 q 236 413 234 411 l 236 413 l 295 493 l 293 503 l 314 523 q 330 538 322 531 q 342 553 337 545 l 342 553 l 353 561 q 444 623 385 611 l 444 623 l 458 625 l 462 612 q 479 592 466 601 q 505 575 491 583 l 505 575 l 514 569 q 519 554 519 559 q 518 545 519 549 l 518 545 l 522 535 q 503 500 514 511 q 480 480 491 489 l 480 480 q 464 466 471 472 q 452 449 456 459 l 452 449 l 445 441 q 418 409 424 429 l 418 409 l 415 397 l 403 397 q 399 394 402 397 q 388 376 395 390 l 388 376 q 378 363 381 366 q 373 358 375 360 l 373 358 q 371 351 372 354 q 367 342 369 347 l 367 342 q 351 323 354 329 q 344 308 348 316 l 344 308 q 337 293 340 300 q 325 277 333 285 l 325 277 z"},"z":{"ha":561,"x_min":-14,"x_max":595,"o":"m 108 -39 l 108 -39 q 97 -35 103 -37 l 97 -35 l 85 -13 l 69 -25 q 58 -17 62 -21 q 49 -9 54 -14 l 49 -9 q 30 8 38 -1 q 21 24 22 16 l 21 24 l 20 34 l 10 36 q 2 57 5 50 q -8 67 -1 63 l -8 67 q -4 151 -14 117 q 26 222 6 184 l 26 222 q 48 233 38 226 q 65 247 57 240 l 65 247 q 81 260 73 254 q 96 266 89 265 l 96 266 l 105 271 q 146 307 122 291 q 196 338 170 322 l 196 338 q 239 364 217 350 q 277 393 260 377 l 277 393 q 291 396 285 392 l 291 396 q 295 409 295 401 l 295 409 q 300 413 297 411 q 304 416 302 414 l 304 416 q 323 428 311 421 q 339 446 335 435 l 339 446 l 361 467 l 331 466 q 283 463 308 465 q 239 459 257 461 l 239 459 q 208 457 224 457 q 173 455 192 456 l 173 455 q 129 515 142 475 q 127 592 115 554 l 127 592 q 139 596 134 593 q 149 600 144 598 l 149 600 q 161 600 158 601 q 169 599 164 599 l 169 599 q 216 606 197 604 q 250 607 234 607 l 250 607 q 283 606 267 607 q 314 599 299 604 l 314 599 q 385 602 349 599 q 459 597 421 605 l 459 597 q 513 602 486 606 q 559 578 539 598 l 559 578 q 568 553 560 561 q 587 540 575 544 l 587 540 q 589 489 595 511 q 567 450 582 467 q 532 420 552 433 q 491 394 511 406 l 491 394 q 477 380 485 385 q 461 366 468 374 l 461 366 q 386 293 428 324 q 298 232 343 261 l 298 232 q 235 190 266 211 q 174 143 203 168 l 174 143 l 164 134 l 173 124 q 201 112 185 112 l 201 112 q 219 115 210 112 q 235 120 227 117 l 235 120 q 249 125 243 122 q 260 127 255 127 l 260 127 l 273 127 q 289 135 281 132 q 305 140 297 138 l 305 140 q 320 144 313 142 q 335 151 327 146 l 335 151 q 377 157 357 151 q 416 171 396 163 l 416 171 q 440 180 428 176 q 463 186 451 184 l 463 186 q 473 178 467 181 q 483 171 478 174 l 483 171 q 497 156 496 163 l 497 156 l 500 128 l 519 147 q 532 125 531 137 q 529 92 533 112 l 529 92 q 449 42 497 60 q 347 7 401 24 l 347 7 q 325 1 336 4 q 302 -6 313 -2 l 302 -6 l 303 11 l 281 -3 q 275 -9 277 -6 q 270 -15 272 -12 l 270 -15 q 227 -25 244 -22 q 195 -31 210 -28 l 195 -31 q 163 -37 178 -35 q 131 -40 148 -40 l 131 -40 q 120 -40 126 -40 q 108 -39 114 -40 z"},"{":{"ha":459,"x_min":15,"x_max":818,"o":"m 509 -32 l 509 -32 q 533 -46 527 -37 q 536 -66 538 -55 q 526 -88 533 -77 q 512 -109 519 -100 l 512 -109 q 495 -113 503 -107 q 481 -127 487 -119 l 481 -127 q 427 -126 454 -123 q 376 -132 399 -129 l 376 -132 q 373 -136 372 -132 q 370 -142 373 -141 l 370 -142 q 310 -134 341 -132 q 247 -144 279 -137 q 181 -159 214 -151 q 113 -169 147 -168 l 113 -169 q 92 -146 100 -160 q 78 -117 83 -133 q 69 -85 72 -102 q 62 -54 65 -69 l 62 -54 q 66 -36 61 -43 q 76 -25 70 -30 l 76 -25 q 109 92 90 33 q 145 206 128 150 l 145 206 q 153 235 150 221 q 159 262 155 248 l 159 262 q 116 293 138 276 q 74 322 94 310 l 74 322 q 64 340 75 330 q 41 351 53 350 l 41 351 q 35 376 42 365 q 23 400 27 386 l 23 400 q 29 460 15 432 q 72 494 43 488 l 72 494 q 86 490 81 489 q 99 485 91 491 l 99 485 q 132 512 113 499 q 169 520 151 525 l 169 520 q 173 526 170 524 q 178 529 175 528 q 183 532 180 530 q 185 539 185 534 l 185 539 q 215 549 200 543 q 243 562 229 554 l 243 562 q 259 620 251 592 q 273 677 266 648 q 287 737 280 705 q 299 805 293 768 l 299 805 q 297 838 300 823 l 297 838 q 293 853 295 847 q 286 863 291 859 l 286 863 q 298 876 294 865 q 298 892 302 887 l 298 892 q 333 899 314 897 q 369 902 351 900 q 403 906 387 903 q 431 915 419 908 l 431 915 q 535 920 481 917 q 636 924 589 922 l 636 924 q 675 919 652 919 q 721 915 698 918 q 761 903 743 912 q 786 869 779 893 l 786 869 q 808 862 801 867 q 816 848 814 856 q 817 830 818 839 q 816 810 816 820 l 816 810 q 747 784 791 791 q 655 773 703 776 q 562 770 607 770 q 491 766 517 770 l 491 766 q 464 763 477 764 q 440 759 451 761 l 440 759 q 424 684 434 730 q 403 593 413 638 q 384 514 392 548 q 372 476 375 480 l 372 476 q 356 466 369 472 q 322 451 342 460 q 276 428 302 441 q 222 399 250 415 l 222 399 q 251 380 232 390 q 287 359 269 369 q 319 339 305 348 q 335 325 333 330 l 335 325 q 335 311 336 319 q 332 293 334 302 q 327 277 329 284 q 325 269 325 270 l 325 269 q 300 189 310 222 q 281 126 289 155 q 263 67 272 96 q 241 -1 254 38 l 241 -1 q 289 5 258 2 l 289 5 q 358 9 315 7 q 467 11 401 11 l 467 11 q 475 -3 468 1 q 490 -11 482 -8 q 503 -18 497 -14 q 509 -32 509 -22 z"},"|":{"ha":340,"x_min":0,"x_max":340,"o":"m 234 321 l 234 321 q 219 275 226 302 q 204 221 212 248 q 185 167 196 193 q 158 124 174 141 l 158 124 q 160 115 156 119 q 165 105 163 110 l 165 105 q 149 85 154 96 q 142 63 144 74 q 139 41 140 52 q 134 21 138 30 l 134 21 q 119 11 126 17 q 106 -1 112 5 q 91 -12 99 -7 q 72 -19 83 -17 l 72 -19 q 41 -4 52 -12 q 13 11 29 3 l 13 11 q 1 50 1 29 q 7 92 0 71 q 24 132 13 113 q 43 165 34 151 l 43 165 q 57 197 50 181 q 72 234 64 213 q 88 276 80 254 q 102 314 96 297 l 102 314 q 114 363 102 332 q 138 428 125 394 q 161 491 151 461 q 167 534 171 520 l 167 534 q 189 587 179 552 q 211 658 199 622 q 239 722 223 693 q 279 756 255 750 l 279 756 q 320 694 306 727 q 340 616 333 661 l 340 616 q 326 579 335 602 q 306 526 317 555 q 282 466 294 497 q 260 407 270 435 q 242 356 249 378 q 234 321 235 333 z"},"}":{"ha":493,"x_min":-297,"x_max":478,"o":"m 452 404 l 452 404 q 460 380 452 390 q 470 356 467 369 l 470 356 q 464 296 478 323 q 421 262 450 268 l 421 262 q 407 266 412 267 q 394 271 402 265 l 394 271 q 362 244 380 257 q 324 236 343 231 l 324 236 q 316 227 322 227 q 308 217 310 227 l 308 217 q 282 205 293 213 q 257 188 271 196 l 257 188 q 237 124 246 152 q 220 67 228 95 q 201 9 211 39 q 177 -62 191 -22 l 177 -62 q 169 -86 176 -74 q 153 -109 161 -99 l 153 -109 q 137 -113 144 -107 q 122 -127 129 -119 l 122 -127 q 68 -126 95 -123 q 17 -132 40 -129 l 17 -132 q 14 -136 13 -132 q 11 -142 14 -141 l 11 -142 q -49 -134 -18 -132 q -112 -144 -80 -137 q -178 -159 -145 -151 q -246 -169 -212 -168 l -246 -169 q -267 -146 -259 -160 q -280 -117 -275 -133 q -290 -85 -286 -102 q -297 -54 -294 -69 l -297 -54 q -291 -34 -297 -40 q -279 -21 -285 -28 l -279 -21 q -237 -17 -256 -20 q -202 -12 -219 -15 q -168 -7 -185 -10 q -130 -5 -151 -5 l -130 -5 q -104 2 -123 -1 q -62 6 -86 4 q -11 9 -38 8 q 39 10 15 10 l 39 10 q 66 93 51 52 q 91 173 80 133 l 91 173 q 105 225 98 198 q 119 273 112 251 l 119 273 q 136 285 122 277 q 170 303 149 292 q 217 326 191 313 q 271 356 243 339 l 271 356 q 243 376 261 365 q 206 397 224 386 q 174 416 188 407 q 158 431 159 425 l 158 431 q 159 447 156 436 q 166 470 162 458 q 174 490 170 481 q 177 501 177 499 l 177 501 q 196 565 186 535 q 216 627 206 595 q 234 693 225 658 q 249 772 242 728 l 249 772 q 177 776 210 776 q 123 772 143 775 l 123 772 q 49 758 75 764 q 13 746 23 751 l 13 746 q -14 754 -4 747 q -30 770 -24 760 q -40 792 -36 780 q -51 817 -45 804 l -51 817 q -49 843 -47 826 q -59 867 -51 859 l -59 867 q -48 881 -52 869 q -48 897 -45 892 l -48 897 q -17 904 -33 902 q 15 907 -1 905 q 46 911 31 908 q 71 920 60 913 l 71 920 q 163 925 115 922 q 252 930 210 928 l 252 930 q 287 925 267 925 q 327 921 307 924 q 363 909 346 918 q 385 876 379 900 l 385 876 q 404 869 398 874 q 411 855 409 863 q 413 837 413 846 q 412 817 412 827 l 412 817 q 398 762 403 790 q 385 701 392 733 q 369 633 377 668 q 352 564 361 598 l 352 564 q 343 528 348 549 q 334 493 338 507 l 334 493 q 378 462 356 479 q 420 433 400 445 l 420 433 q 430 416 419 425 q 452 404 440 406 z"},"~":{"ha":595,"x_min":0,"x_max":564,"o":"m 33 219 l 33 219 q 9 227 18 220 q 0 244 0 233 l 0 244 q 9 262 0 254 l 9 262 q 22 287 15 277 q 35 306 28 296 l 35 306 q 55 334 45 320 q 77 362 65 348 l 77 362 q 87 369 83 367 l 87 369 q 109 385 98 377 q 134 397 120 392 l 134 397 q 183 407 159 406 q 224 406 207 407 l 224 406 q 251 404 238 405 q 272 400 263 402 l 272 400 q 297 387 287 393 q 315 373 306 381 l 315 373 q 333 361 326 367 q 344 347 339 354 l 344 347 q 356 334 347 343 q 378 325 365 325 l 378 325 q 399 336 390 325 q 416 355 407 347 l 416 355 q 442 387 424 376 l 442 387 q 456 392 450 391 q 466 394 461 393 l 466 394 q 472 396 469 395 q 477 397 475 396 l 477 397 l 488 398 l 501 398 q 531 403 518 403 l 531 403 q 555 396 546 402 q 564 378 564 389 l 564 378 q 555 360 564 367 l 555 360 q 543 335 549 344 q 529 316 536 326 l 529 316 q 509 288 519 302 q 486 260 499 274 l 486 260 q 476 253 482 255 l 476 253 q 455 238 466 245 q 430 225 444 230 l 430 225 q 381 216 404 216 q 340 216 357 215 l 340 216 q 314 219 326 217 q 291 222 301 220 l 291 222 q 267 235 277 229 q 248 248 257 241 l 248 248 q 231 262 237 255 q 220 275 225 268 l 220 275 q 207 289 217 279 q 186 297 197 298 l 186 297 q 166 286 175 296 q 147 267 156 275 l 147 267 q 122 235 141 247 l 122 235 q 109 230 114 231 q 98 228 103 229 l 98 228 q 92 227 95 227 q 87 225 89 226 l 87 225 l 76 224 l 63 224 q 33 219 46 219 z"},"Ä":{"ha":719,"x_min":-26,"x_max":724,"o":"m -11 80 l -26 95 l -13 105 l -12 126 q 40 243 13 187 q 95 358 66 299 l 95 358 q 114 396 104 377 q 132 435 123 415 l 132 435 q 131 444 131 439 q 133 454 131 448 l 133 454 q 156 490 147 474 q 172 523 164 506 l 172 523 q 192 563 181 543 q 218 602 202 583 l 218 602 l 225 612 l 236 611 q 245 615 240 613 q 256 616 249 616 l 256 616 l 274 613 q 333 657 307 628 q 384 725 358 685 l 384 725 l 396 742 l 412 732 q 428 726 417 729 q 451 719 439 723 l 451 719 q 492 708 472 714 q 523 690 512 701 l 523 690 l 528 681 q 532 661 530 670 q 535 643 533 652 l 535 643 q 542 602 539 622 q 546 556 545 581 l 546 556 q 556 516 551 536 q 564 475 560 495 l 564 475 q 575 420 569 446 q 591 369 581 393 l 591 369 q 603 368 601 369 l 603 368 q 631 374 615 373 l 631 374 l 644 375 l 648 363 q 653 357 650 360 q 660 351 656 354 l 660 351 q 684 345 676 350 q 696 334 691 339 l 696 334 q 701 330 698 332 q 706 326 704 327 l 706 326 l 724 319 l 714 300 q 681 259 703 279 q 630 226 658 239 l 630 226 q 633 213 632 219 q 635 199 633 207 l 635 199 q 642 158 639 179 q 641 113 644 136 l 641 113 q 618 67 631 87 q 586 30 604 46 q 544 3 567 13 q 496 -9 521 -8 l 496 -9 q 476 -2 482 -6 q 464 6 469 2 l 464 6 q 451 14 456 12 l 451 14 l 438 20 l 442 35 q 442 49 445 43 q 427 65 438 55 l 427 65 q 420 72 423 68 q 413 79 417 75 l 413 79 l 393 102 l 426 111 q 466 132 456 119 q 474 176 476 144 l 474 176 q 433 178 449 181 q 401 170 417 174 l 401 170 q 356 160 378 164 q 308 155 334 155 l 308 155 q 272 158 291 155 l 272 158 l 261 159 l 258 170 q 256 175 258 172 q 251 179 253 177 l 251 179 q 239 195 246 185 q 236 220 232 205 l 236 220 q 228 243 229 231 l 228 243 q 222 228 224 235 q 217 213 219 220 l 217 213 l 213 200 l 200 198 q 197 192 198 196 q 196 186 195 188 l 196 186 l 200 175 l 190 166 q 185 161 188 163 q 180 157 182 159 l 180 157 q 175 136 178 146 q 167 116 171 126 l 167 116 q 158 85 162 100 q 153 55 153 70 l 153 55 l 149 42 q 137 30 144 34 q 122 23 129 26 l 122 23 q 108 15 112 19 l 108 15 l 105 2 l 90 0 q 72 -4 77 -3 q 59 -5 66 -5 l 59 -5 l 46 -4 q 27 15 34 8 q 9 26 19 21 l 9 26 l 3 34 q -2 49 -1 42 q -5 62 -3 55 l -5 62 q -11 80 -7 75 l -11 80 z m 294 356 l 293 355 q 266 313 279 335 l 266 313 q 280 314 273 314 q 293 315 286 314 l 293 315 q 358 320 328 317 q 423 330 388 323 l 423 330 q 406 406 415 367 q 385 483 396 444 l 385 483 l 380 473 q 332 415 355 446 q 294 356 309 384 l 294 356 z m 679 899 l 679 899 l 680 888 q 669 868 673 876 q 662 851 664 860 l 662 851 q 645 838 651 840 q 634 833 639 835 l 634 833 q 619 825 623 829 l 619 825 l 609 810 l 599 819 l 584 805 q 568 819 573 814 q 559 826 563 823 q 547 833 554 829 q 523 843 539 836 l 523 843 l 509 848 l 513 861 q 515 879 515 866 q 515 901 514 892 l 515 901 q 515 931 516 917 q 520 956 514 945 l 520 956 q 553 971 541 967 l 553 971 q 572 969 563 970 q 590 967 581 968 l 590 967 q 599 966 597 966 q 602 965 601 965 q 604 966 602 965 q 612 968 606 966 l 612 968 l 624 966 q 636 958 631 963 q 645 947 640 952 l 645 947 q 653 937 649 939 l 653 937 l 665 936 l 669 924 q 676 910 674 914 q 679 899 677 905 z m 380 938 l 380 938 q 402 916 391 926 q 415 894 413 906 l 415 894 q 409 872 411 878 q 403 859 406 866 l 403 859 q 373 836 390 848 l 373 836 q 365 830 367 831 q 363 829 363 829 q 362 827 362 828 q 358 819 361 825 l 358 819 l 348 812 q 333 810 340 809 q 319 811 326 810 l 319 811 q 312 812 316 811 q 305 812 307 812 l 305 812 l 297 804 l 285 809 q 270 816 274 814 q 260 821 265 817 l 260 821 l 251 827 q 245 851 247 842 q 238 867 242 859 l 238 867 q 240 890 238 884 q 244 901 242 896 l 244 901 q 249 917 250 912 l 249 917 l 245 935 l 260 936 l 260 957 q 281 958 274 958 q 294 960 288 958 q 308 964 300 961 q 332 974 315 967 l 332 974 l 346 980 l 352 967 q 364 954 354 963 q 380 938 373 945 z"},"Å":{"ha":719,"x_min":-26,"x_max":724,"o":"m 294 356 l 293 355 q 266 313 279 335 l 266 313 l 293 315 q 358 320 328 317 q 423 330 388 323 l 423 330 q 406 406 415 367 q 385 483 396 444 l 385 483 l 380 473 q 332 415 355 446 q 294 356 309 384 l 294 356 z m 574 699 l 572 701 q 561 694 567 695 q 547 691 555 693 l 547 691 q 538 687 543 689 q 528 682 533 684 l 528 682 q 532 661 530 670 q 535 643 533 652 l 535 643 q 542 602 539 622 q 546 556 545 581 l 546 556 q 556 516 551 536 q 564 475 560 495 l 564 475 q 575 420 569 446 q 591 369 581 393 l 591 369 q 603 368 601 369 l 603 368 q 631 374 615 373 l 631 374 l 644 375 l 648 363 q 653 357 650 360 q 660 351 656 354 l 660 351 q 684 345 676 350 q 696 334 691 339 l 696 334 q 701 330 698 332 q 706 326 704 327 l 706 326 l 724 319 l 714 300 q 681 259 703 279 q 630 226 658 239 l 630 226 q 633 213 632 219 q 635 199 633 207 l 635 199 q 642 158 639 179 q 641 113 644 136 l 641 113 q 618 67 631 87 q 586 30 604 46 q 544 3 567 13 q 496 -9 521 -8 l 496 -9 q 476 -2 482 -6 q 464 6 469 2 l 464 6 q 451 14 456 12 l 451 14 l 438 20 l 442 35 q 442 49 445 43 q 427 65 438 55 l 427 65 q 420 72 423 68 q 413 79 417 75 l 413 79 l 393 102 l 426 111 q 466 132 456 119 q 474 176 476 144 l 474 176 q 433 178 449 181 q 401 170 417 174 l 401 170 q 356 160 378 164 q 308 155 334 155 l 308 155 q 272 158 291 155 l 272 158 l 261 159 l 258 170 q 256 175 258 172 q 251 179 253 177 l 251 179 q 239 195 246 185 q 236 220 232 205 l 236 220 q 228 243 229 231 l 228 243 q 222 228 224 235 q 217 213 219 220 l 217 213 l 213 200 l 200 198 q 197 192 198 196 q 196 186 195 188 l 196 186 l 200 175 l 190 166 q 185 161 188 163 q 180 157 182 159 l 180 157 q 175 136 178 146 q 167 116 171 126 l 167 116 q 158 85 162 100 q 153 55 153 70 l 153 55 l 149 42 q 137 30 144 34 q 122 23 129 26 l 122 23 q 108 15 112 19 l 108 15 l 105 2 l 90 0 q 72 -4 77 -3 q 59 -5 66 -5 l 59 -5 l 46 -4 q 27 15 34 8 q 9 26 19 21 l 9 26 l 3 34 q -2 49 -1 42 q -5 62 -3 55 l -5 62 q -11 80 -7 75 l -11 80 l -26 95 l -13 105 l -12 126 q 40 243 13 187 q 95 358 66 299 l 95 358 q 114 396 104 377 q 132 435 123 415 l 132 435 q 131 444 131 439 q 133 454 131 448 l 133 454 q 156 490 147 474 q 172 523 164 506 l 172 523 q 192 563 181 543 q 218 602 202 583 l 218 602 l 225 612 l 236 611 q 245 615 240 613 q 256 616 249 616 l 256 616 l 274 613 q 358 688 321 639 l 358 688 q 330 730 339 705 l 330 730 q 332 782 326 758 q 349 825 338 805 q 375 862 360 845 q 403 895 389 879 l 403 895 q 412 899 409 893 q 419 906 414 904 l 419 906 q 429 918 422 914 q 440 928 436 921 l 440 928 q 453 936 448 930 q 466 944 458 942 l 466 944 q 480 958 475 953 q 490 971 484 963 l 490 971 q 498 972 495 972 q 505 973 500 971 l 505 973 q 513 983 510 980 q 522 991 516 986 l 522 991 q 536 987 529 988 q 549 980 543 986 l 549 980 q 552 972 549 975 q 557 967 554 969 q 563 962 560 965 q 567 955 566 959 l 567 955 q 576 947 574 949 q 580 938 578 945 l 580 938 q 577 928 578 933 q 570 920 575 922 l 570 920 q 574 907 575 908 l 574 907 q 595 866 585 887 q 617 824 605 844 l 617 824 q 621 802 615 812 q 629 780 627 791 l 629 780 q 627 751 631 762 q 614 732 622 740 q 595 716 606 723 q 574 699 584 708 l 574 699 z m 508 796 l 508 796 q 510 809 510 806 l 510 809 q 503 822 506 815 q 496 835 500 829 l 496 835 q 489 831 491 830 q 484 833 486 831 l 484 833 q 474 824 479 828 q 463 814 468 819 l 463 814 q 452 801 457 806 q 447 786 447 795 l 447 786 q 464 783 454 781 q 482 784 474 784 l 482 784 q 496 790 490 787 q 508 796 502 793 z"},"Ç":{"ha":626,"x_min":-1,"x_max":610,"o":"m 402 -149 l 402 -149 q 425 -181 417 -163 q 428 -225 433 -200 l 428 -225 q 405 -259 419 -245 q 369 -290 390 -274 l 369 -290 q 334 -302 351 -298 q 304 -314 317 -306 l 304 -314 q 293 -312 298 -312 q 284 -311 287 -313 l 284 -311 q 247 -322 267 -319 q 203 -319 226 -325 l 203 -319 q 170 -320 186 -321 q 140 -316 153 -320 q 116 -306 126 -313 q 103 -288 106 -300 l 103 -288 q 79 -261 85 -278 q 84 -227 73 -244 l 84 -227 q 99 -220 92 -226 l 99 -220 q 183 -220 140 -221 q 275 -209 226 -220 l 275 -209 q 281 -201 276 -204 q 290 -197 285 -199 q 300 -193 295 -195 q 307 -187 305 -191 l 307 -187 q 305 -182 307 -184 q 301 -179 303 -181 q 296 -176 298 -178 q 295 -170 294 -174 l 295 -170 q 271 -166 284 -171 q 249 -156 257 -162 l 249 -156 q 225 -153 232 -155 q 213 -150 218 -152 q 200 -145 207 -148 q 177 -137 193 -142 l 177 -137 q 165 -127 171 -131 q 154 -119 159 -123 q 146 -111 149 -116 q 141 -98 142 -107 l 141 -98 q 142 -81 141 -88 q 143 -66 142 -74 q 145 -51 143 -59 q 149 -32 146 -43 l 149 -32 q 172 -6 157 -24 q 206 28 186 12 l 206 28 q 177 37 191 33 q 148 46 162 41 l 148 46 q 125 71 137 59 q 93 87 113 82 l 93 87 q 46 142 64 109 q 17 212 27 175 q 3 289 6 249 q 0 364 -1 328 l 0 364 q 22 414 9 391 q 51 457 35 436 q 85 496 67 477 q 119 533 102 514 l 119 533 q 130 530 125 533 l 130 530 q 142 549 134 541 q 159 564 150 557 q 177 577 168 570 q 192 592 186 583 l 192 592 q 237 609 217 598 q 274 633 256 620 q 311 657 292 646 q 355 674 330 668 l 355 674 q 378 691 364 684 q 405 704 391 698 q 431 717 418 710 q 451 736 443 724 l 451 736 q 468 731 457 728 q 488 736 479 733 l 488 736 q 498 734 494 737 q 506 728 502 731 q 512 723 509 724 q 517 729 514 722 l 517 729 q 522 722 525 728 q 517 714 518 716 l 517 714 q 534 711 527 716 q 554 703 540 705 l 554 703 q 557 695 559 698 q 554 685 555 692 l 554 685 q 600 651 590 674 q 602 602 610 627 q 573 555 594 576 q 525 526 551 533 l 525 526 q 468 510 494 518 q 417 492 441 502 q 371 469 392 482 q 333 437 349 455 l 333 437 q 283 415 305 429 q 241 384 260 401 q 203 349 221 367 q 167 312 185 330 l 167 312 q 161 286 167 295 q 148 268 155 277 l 148 268 q 157 236 150 249 q 170 208 163 222 l 170 208 q 340 179 250 184 q 517 172 429 173 l 517 172 q 538 150 526 160 q 559 128 549 139 q 574 103 568 117 q 576 68 579 88 l 576 68 q 539 36 559 51 q 499 5 519 20 l 499 5 q 478 5 490 4 q 452 6 465 6 q 425 5 438 6 q 399 -2 411 3 l 399 -2 q 305 7 353 -1 l 305 7 l 266 -51 q 278 -58 269 -57 q 288 -65 286 -59 l 288 -65 q 325 -76 310 -68 q 351 -95 339 -85 q 374 -117 363 -106 q 400 -138 385 -129 l 400 -138 q 402 -142 400 -141 q 402 -149 404 -144 z"},"É":{"ha":642,"x_min":9,"x_max":668,"o":"m 56 34 l 56 34 q 45 53 48 42 q 28 71 41 64 l 28 71 q 23 106 26 86 q 16 146 19 125 q 11 187 12 166 q 12 224 9 207 l 12 224 q 19 241 14 233 q 28 257 23 249 q 35 272 32 264 q 35 288 37 280 l 35 288 q 43 295 41 289 q 52 298 44 300 l 52 298 q 67 339 59 320 q 84 376 75 358 q 103 413 93 394 q 120 454 112 431 l 120 454 q 96 489 103 470 q 84 526 88 507 q 78 565 80 545 q 70 604 76 584 l 70 604 q 99 634 82 622 q 137 653 116 645 q 181 665 157 660 q 232 675 205 669 l 232 675 q 318 699 280 690 q 392 713 356 707 q 467 723 428 718 q 557 736 506 727 l 557 736 q 561 733 558 733 q 567 733 563 733 l 567 733 q 578 726 570 726 l 578 726 q 578 732 578 729 q 577 736 577 734 l 577 736 q 583 735 579 736 q 589 733 586 734 q 593 734 591 732 q 594 740 595 735 l 594 740 q 625 706 606 719 q 667 682 644 692 l 667 682 q 668 669 668 673 q 666 662 667 665 q 665 654 665 658 q 667 641 665 649 l 667 641 q 631 599 651 614 q 587 576 610 584 q 539 564 564 568 q 487 556 513 560 q 433 543 460 551 q 380 519 406 535 l 380 519 q 366 522 372 522 q 352 519 359 521 q 337 515 345 517 q 316 515 328 513 l 316 515 q 298 505 308 508 q 276 499 287 502 l 276 499 q 281 477 281 488 q 283 458 280 466 l 283 458 q 376 459 325 454 q 476 465 427 463 l 476 465 q 475 458 477 460 q 473 451 473 456 l 473 451 q 490 436 482 445 q 507 419 498 427 q 524 405 515 410 q 545 400 533 399 l 545 400 q 552 379 550 390 q 549 356 554 368 l 549 356 q 510 330 529 343 q 471 305 491 316 q 426 287 450 294 q 374 281 402 280 l 374 281 q 366 281 369 281 q 357 285 362 281 l 357 285 q 331 282 347 280 q 303 278 314 283 l 303 278 q 271 283 289 283 q 238 288 252 283 l 238 288 q 204 234 220 262 q 176 173 188 205 l 176 173 q 244 168 217 167 q 295 172 271 169 q 345 178 319 175 q 407 180 370 181 l 407 180 q 465 197 432 192 q 525 210 497 201 l 525 210 q 542 199 535 207 q 556 182 549 190 q 569 167 562 173 q 587 163 576 161 l 587 163 q 594 151 592 158 q 597 138 595 144 q 601 129 598 132 q 612 126 604 125 l 612 126 q 570 66 593 87 q 517 34 546 45 q 451 17 487 22 q 369 3 414 11 l 369 3 q 351 4 358 1 q 335 6 343 6 l 335 6 q 269 -4 307 1 q 191 -8 230 -9 q 116 2 152 -7 q 56 34 80 11 z m 590 952 l 590 952 q 564 938 582 950 q 516 900 545 926 l 516 900 q 480 868 501 887 q 435 830 459 848 q 384 797 410 811 q 334 782 358 783 l 334 782 q 320 796 327 789 q 309 810 313 803 q 303 825 304 817 q 308 843 302 833 l 308 843 q 297 875 295 864 q 308 894 299 886 q 327 909 316 902 q 341 930 337 916 l 341 930 q 392 982 364 955 q 443 1035 419 1008 l 443 1035 q 463 1045 453 1037 q 481 1061 472 1052 q 500 1080 490 1070 q 520 1095 509 1089 l 520 1095 q 532 1084 522 1089 q 546 1081 541 1078 l 546 1081 q 557 1060 547 1070 q 575 1045 567 1049 l 575 1045 q 587 1020 581 1031 q 596 997 593 1008 q 599 975 599 986 q 590 952 598 964 z"}}}
